<svg width="24" height="24" viewBox="0 0 24 24" fill="none" xmlns="http://www.w3.org/2000/svg">
<path d="M14.0144 6.51672C14.0144 6.51672 15.0269 7.37172 16.7144 7.37172C18.4019 7.37172 19.4144 6.51672 19.4144 6.51672" stroke="#BDBDBD"/>
<path d="M17.6253 20.2212L17.3656 20.7144C17.2423 20.9488 16.9902 21.0968 16.7144 21.0968C16.4386 21.0968 16.1865 20.9488 16.0632 20.7144L15.8036 20.2212M17.6253 20.2212H15.8036M17.6253 20.2212L18.6873 18.2033C18.9379 17.7271 19.0632 17.489 19.1558 17.2409C19.265 16.9483 19.3403 16.6452 19.3804 16.3371C19.4144 16.0758 19.4144 15.8096 19.4144 15.2772L19.4144 6.5168L19.4144 5.6618C19.4144 4.24519 18.2056 3.0968 16.7144 3.0968C15.2232 3.0968 14.0144 4.24519 14.0144 5.6618L14.0144 6.5168L14.0144 15.2772C14.0144 15.8096 14.0144 16.0758 14.0484 16.3371C14.0885 16.6452 14.1638 16.9483 14.273 17.2409C14.3656 17.489 14.4909 17.7271 14.7415 18.2033L15.8036 20.2212" stroke="black"/>
<path opacity="0.9" d="M5.0144 9.0968C5.0144 9.0968 5.7644 10.0968 7.0144 10.0968C8.26441 10.0968 9.0144 9.0968 9.0144 9.0968" stroke="#BDBDBD"/>
<path d="M10.3648 16.7998C10.3726 19.1839 8.74952 21.599 6.38872 21.568C6.33435 18.4073 4.00462 19.1839 4.00462 16.8541C3.98131 16.4217 4.04642 15.9892 4.19597 15.5828C4.34551 15.1764 4.57635 14.8048 4.87437 14.4907C5.1724 14.1765 5.53135 13.9265 5.92929 13.7558C6.32723 13.585 6.7558 13.4973 7.18881 13.4978C7.62182 13.4983 8.05018 13.5872 8.4477 13.7588C8.84522 13.9305 9.20356 14.1815 9.50082 14.4963C9.79808 14.8112 10.028 15.1834 10.1766 15.5901C10.3251 15.9968 10.3892 16.4296 10.3648 16.8619V16.7998Z" stroke="black" stroke-linecap="round" stroke-linejoin="round"/>
<path d="M7.11089 3C6.81062 3.00097 6.51374 3.06349 6.23859 3.1837C5.96344 3.30391 5.71586 3.47926 5.51113 3.69892C5.30485 3.91674 5.14537 4.1745 5.04253 4.45631C4.93968 4.73813 4.89566 5.03802 4.91317 5.3375L5.39465 14.175C5.93138 13.8157 6.56614 13.6312 7.21184 13.6469C7.77734 13.6458 8.33361 13.7902 8.82713 14.0663L9.30861 5.3375C9.32607 5.03985 9.28275 4.74175 9.18128 4.46138C9.07981 4.18101 8.92232 3.92423 8.71841 3.70669C8.51347 3.48466 8.26494 3.30731 7.98834 3.18571C7.71174 3.06412 7.41303 3.0009 7.11089 3Z" stroke="black" stroke-linecap="round" stroke-linejoin="round"/>
</svg>
