<svg width="24" height="24" viewBox="0 0 24 24" fill="none" xmlns="http://www.w3.org/2000/svg">
<g clip-path="url(#clip0_5778_6582)">
<mask id="mask0_5778_6582" style="mask-type:luminance" maskUnits="userSpaceOnUse" x="0" y="0" width="24" height="24">
<path d="M0.5 0.5H23.5V23.5H0.5V0.5Z" fill="white" stroke="black"/>
<path d="M14.7812 22.125C14.7812 22.1424 14.7951 22.1563 14.8125 22.1563C14.8299 22.1563 14.8438 22.1424 14.8438 22.125C14.8438 22.1076 14.8299 22.0938 14.8125 22.0938C14.7951 22.0938 14.7812 22.1076 14.7812 22.125Z" fill="white" stroke="black"/>
<path d="M9.15625 1.875C9.15625 1.89239 9.17011 1.90625 9.1875 1.90625C9.20489 1.90625 9.21875 1.89239 9.21875 1.875C9.21875 1.85761 9.20489 1.84375 9.1875 1.84375C9.17011 1.84375 9.15625 1.85761 9.15625 1.875Z" fill="white" stroke="black"/>
<path d="M4.35937 12.0313C4.37677 12.0313 4.39062 12.0174 4.39062 12C4.39062 11.9826 4.37677 11.9688 4.35937 11.9688C4.35036 11.9688 4.3419 11.973 4.33708 11.9778C4.33235 11.9826 4.32812 11.9909 4.32812 12C4.32812 12.0091 4.33234 12.0174 4.33706 12.0222C4.34189 12.027 4.35038 12.0313 4.35937 12.0313Z" fill="white" stroke="black"/>
</mask>
<g mask="url(#mask0_5778_6582)">
<mask id="mask1_5778_6582" style="mask-type:luminance" maskUnits="userSpaceOnUse" x="0" y="0" width="24" height="24">
<path d="M23.4999 23.5V0.500071H0.5V23.5H23.4999Z" fill="white" stroke="white"/>
</mask>
<g mask="url(#mask1_5778_6582)">
<path d="M14.3455 20.7805C14.3455 20.8323 14.3872 20.874 14.439 20.874C14.4907 20.874 14.5325 20.8323 14.5325 20.7805C14.5325 20.7288 14.4907 20.687 14.439 20.687C14.3872 20.687 14.3455 20.7288 14.3455 20.7805Z" fill="black" stroke="black"/>
<path d="M9.46755 3.21959C9.46755 3.27134 9.50929 3.31309 9.56105 3.31309C9.6128 3.31309 9.65454 3.27134 9.65454 3.21959C9.65454 3.16784 9.6128 3.1261 9.56105 3.1261C9.50929 3.1261 9.46755 3.16784 9.46755 3.21959Z" fill="black" stroke="black"/>
<path d="M5.37403 12.0935C5.42579 12.0935 5.46753 12.0517 5.46753 12C5.46753 11.9482 5.42579 11.9065 5.37403 11.9065C5.32188 11.9065 5.28054 11.9482 5.28054 12C5.28054 12.0517 5.32181 12.0935 5.37403 12.0935Z" fill="black" stroke="black"/>
<path d="M3.14453 9.5835C3.83274 7.1343 5.78438 4.86316 8.0226 3.74734" stroke="black" stroke-linecap="round" stroke-linejoin="round"/>
<path d="M14.4165 3.14486C17.4084 3.98551 20.0145 6.59162 20.8551 9.5835" stroke="black" stroke-linecap="round" stroke-linejoin="round"/>
<path d="M20.8552 14.4168C20.167 16.866 18.2154 19.1371 15.9772 20.2529" stroke="black" stroke-linecap="round" stroke-linejoin="round"/>
<path d="M9.58317 20.8555C6.59129 20.0148 3.98518 17.4087 3.14453 14.4168" stroke="black" stroke-linecap="round" stroke-linejoin="round"/>
<path d="M12.813 2.81309C12.813 3.26228 12.4492 3.6261 12 3.6261C11.5508 3.6261 11.187 3.26228 11.187 2.81309C11.187 2.3639 11.5508 2.00008 12 2.00008C12.4492 2.00008 12.813 2.3639 12.813 2.81309Z" stroke="#BDBDBD" stroke-linecap="round" stroke-linejoin="round"/>
<path d="M21.9999 12C21.9999 12.4492 21.6361 12.813 21.1869 12.813C20.7377 12.813 20.3739 12.4492 20.3739 12C20.3739 11.5508 20.7377 11.187 21.1869 11.187C21.6361 11.187 21.9999 11.5508 21.9999 12Z" stroke="#BDBDBD" stroke-linecap="round" stroke-linejoin="round"/>
<path d="M3.6259 12C3.6259 12.4492 3.26208 12.813 2.81289 12.813C2.3637 12.813 1.99988 12.4492 1.99988 12C1.99988 11.5508 2.3637 11.187 2.81289 11.187C3.26208 11.187 3.6259 11.5508 3.6259 12Z" stroke="#BDBDBD" stroke-linecap="round" stroke-linejoin="round"/>
<path d="M12.813 21.1871C12.813 21.6363 12.4492 22.0001 12 22.0001C11.5508 22.0001 11.187 21.6363 11.187 21.1871C11.187 20.7379 11.5508 20.3741 12 20.3741C12.4492 20.3741 12.813 20.7379 12.813 21.1871Z" stroke="#BDBDBD" stroke-linecap="round" stroke-linejoin="round"/>
<path d="M10.374 14.0326V15.2521" stroke="#BDBDBD" stroke-linecap="round" stroke-linejoin="round"/>
<path d="M10.3739 15.2521H8.74792V14.4391C8.74792 13.0919 9.8398 12 11.187 12H12.813C14.1601 12 15.252 13.0919 15.252 14.4391V15.2521H10.3739Z" stroke="#BDBDBD" stroke-linecap="round" stroke-linejoin="round"/>
<path d="M13.626 15.2521V14.0326" stroke="#BDBDBD" stroke-linecap="round" stroke-linejoin="round"/>
<path d="M13.6261 9.56099C13.6261 10.459 12.898 11.187 12 11.187C11.1021 11.187 10.374 10.459 10.374 9.56099C10.374 8.66302 11.1021 7.93497 12 7.93497C12.898 7.93497 13.6261 8.66302 13.6261 9.56099Z" stroke="#BDBDBD" stroke-linecap="round" stroke-linejoin="round"/>
<path d="M5.57629 10.3866C6.30707 7.53659 9.00508 5.37402 11.9999 5.37402C15.5861 5.37402 18.6259 8.41391 18.6259 12.0001C18.6259 15.7135 15.4759 18.6261 11.9999 18.6261C9.06675 18.6261 6.33699 16.5421 5.57629 13.6135" stroke="black" stroke-linecap="round" stroke-linejoin="round"/>
</g>
</g>
</g>
<defs>
<clipPath id="clip0_5778_6582">
<rect width="24" height="24" fill="white"/>
</clipPath>
</defs>
</svg>
