<svg width="24" height="24" viewBox="0 0 24 24" fill="none" xmlns="http://www.w3.org/2000/svg">
<path d="M21.8995 11.8082C22.0546 11.7924 22.197 11.7152 22.2955 11.5938C22.394 11.4723 22.4406 11.3165 22.4249 11.1605C22.1907 8.7693 21.1555 6.52926 19.4891 4.80804C17.8228 3.08682 15.6244 1.98669 13.2547 1.68822L13.3827 1.18617C13.4189 1.04287 13.4222 0.893178 13.3925 0.748376C13.3629 0.603575 13.3009 0.46744 13.2113 0.350229C13.1287 0.241415 13.0223 0.153217 12.9003 0.0924788C12.7783 0.0317408 12.644 9.60961e-05 12.5079 0H11.3239C11.041 0 10.7796 0.13388 10.6075 0.367366C10.5184 0.489363 10.4588 0.630536 10.4334 0.779714C10.4079 0.928892 10.4173 1.08198 10.4608 1.22687L10.5979 1.68474C5.73906 2.28827 1.8849 6.17534 1.40134 11.2079C1.38642 11.364 1.43366 11.5197 1.5327 11.6408C1.63173 11.7619 1.77448 11.8386 1.92961 11.854C2.00652 11.8615 2.08414 11.8537 2.15804 11.831C2.23195 11.8083 2.30068 11.7712 2.3603 11.7218C2.41992 11.6723 2.46927 11.6115 2.50552 11.5429C2.54176 11.4742 2.56419 11.3991 2.57153 11.3217C3.03939 6.45006 7.05669 2.77586 11.9152 2.77586C16.7517 2.77586 20.7666 6.43131 21.2552 11.2788C21.2712 11.4349 21.348 11.5781 21.4687 11.6774C21.5895 11.7766 21.7444 11.8236 21.8995 11.8082ZM11.6755 1.18216H12.1697L12.0635 1.6004C12.0137 1.59986 11.9653 1.59344 11.9152 1.59344C11.8761 1.59344 11.8386 1.59826 11.7997 1.59879L11.6755 1.18216ZM23.412 12.4937H0.570466C0.417609 12.4983 0.272555 12.5626 0.166059 12.673C0.0595627 12.7835 0 12.9313 0 13.0851C0 13.239 0.0595627 13.3868 0.166059 13.4972C0.272555 13.6076 0.417609 13.672 0.570466 13.6766H0.978183C1.23899 14.6537 2.11883 15.3788 3.17193 15.3788H5.41092C6.14252 16.2755 8.3203 18.9306 8.3203 18.9306C8.3352 18.948 8.3509 18.9651 8.36794 18.9817L11.8213 22.2966L12.1691 22.6005L11.6981 22.9296C11.5736 23.0206 11.4896 23.1571 11.4639 23.3097C11.4383 23.4623 11.4731 23.619 11.561 23.7461C11.6488 23.8732 11.7827 23.9606 11.9338 23.9896C12.085 24.0185 12.2414 23.9867 12.3695 23.901L16.9114 20.7045L18.5295 22.2334C18.6384 22.3368 18.7826 22.3943 18.9324 22.3941C19.0886 22.3941 19.2451 22.3317 19.3606 22.208C19.4673 22.0937 19.5246 21.9414 19.5198 21.7847C19.515 21.6279 19.4485 21.4795 19.3351 21.372L17.3167 19.464C17.1323 19.2902 16.868 19.2656 16.653 19.374C16.5649 19.0904 16.5578 18.7876 16.6322 18.5C16.7557 18.0304 16.9878 17.5968 17.3095 17.2346L18.6516 15.7314C18.7385 15.6338 18.7906 15.5098 18.7996 15.379H20.6599C21.7124 15.379 22.5918 14.6539 22.8526 13.6769H23.412C23.5679 13.6769 23.7175 13.6146 23.8278 13.5036C23.938 13.3927 24 13.2422 24 13.0853C24 12.9284 23.938 12.7779 23.8278 12.6669C23.7175 12.556 23.5679 12.4937 23.412 12.4937ZM16.435 16.4447C15.9883 16.9464 15.6662 17.5476 15.4953 18.1988C15.3245 18.8472 15.3935 19.536 15.6896 20.1371L13.1647 21.9043L12.613 21.4229L9.20493 18.1501C9.02502 17.9316 7.79575 16.4319 6.934 15.3788H7.81225C7.81225 15.3788 9.8008 17.0868 9.81571 17.0975C10.4797 17.5688 12.0036 17.9881 12.7379 17.9881C13.2553 17.9868 13.767 17.8787 14.2412 17.6705C14.7155 17.4623 15.1422 17.1584 15.495 16.7775C15.7335 16.5202 15.9533 16.2924 16.1242 16.117C16.4124 15.8211 16.7283 15.6056 17.0623 15.4754C17.1642 15.4347 17.2701 15.4049 17.3782 15.3865L16.435 16.4447ZM14.6362 15.9705C14.3934 16.2329 14.0996 16.4424 13.7731 16.586C13.4466 16.7296 13.0942 16.8043 12.7379 16.8054C12.1779 16.8054 10.9492 16.4386 10.5124 16.1443L9.62196 15.3788H15.1972C15.0359 15.5464 14.8464 15.7437 14.6362 15.9705ZM20.6599 14.1963H3.17193C2.98521 14.1962 2.80157 14.1485 2.63816 14.0576C2.47476 13.9667 2.33692 13.8356 2.23753 13.6766H21.5932C21.494 13.8356 21.3564 13.9667 21.1932 14.0576C21.0299 14.1485 20.8464 14.1962 20.6599 14.1963Z" fill="black"/>
<path d="M18.889 9.74033C18.9627 9.71731 19.0312 9.6799 19.0905 9.63024C19.1498 9.58058 19.1988 9.51963 19.2347 9.45089C19.2706 9.38215 19.2927 9.30697 19.2997 9.22964C19.3067 9.15232 19.2984 9.07436 19.2754 9.00024C18.1795 5.45966 15.074 4.43869 14.9422 4.39639C14.7939 4.34995 14.6333 4.36436 14.4955 4.43648C14.3577 4.50859 14.2538 4.63257 14.2064 4.78142C14.1593 4.9307 14.1729 5.09265 14.2443 5.23184C14.3156 5.37104 14.4388 5.47615 14.5869 5.52419C14.695 5.55953 17.2448 6.41797 18.1526 9.35127C18.199 9.50107 18.3027 9.62619 18.4408 9.69914C18.5789 9.77209 18.7401 9.7869 18.889 9.74033Z" fill="#BDBDBD"/>
</svg>
