<svg width="24" height="24" viewBox="0 0 24 24" fill="none" xmlns="http://www.w3.org/2000/svg">
<path d="M19.6768 4.22162C19.5253 4.12329 19.3559 4.05578 19.1783 4.02293C19.0007 3.99008 18.8183 3.99255 18.6417 4.03019C18.4651 4.06782 18.2976 4.13989 18.1488 4.24228C18 4.34467 17.8728 4.47537 17.7746 4.62691L10.0676 16.5065L6.30899 13.0312C6.17638 12.9086 6.02092 12.8133 5.85148 12.7508C5.68205 12.6883 5.50196 12.6597 5.32149 12.6668C4.95701 12.6811 4.61314 12.8395 4.36551 13.1073C4.11788 13.3752 3.98678 13.7304 4.00105 14.0948C4.01533 14.4593 4.1738 14.8032 4.44162 15.0508L9.37665 19.6136C9.37665 19.6136 9.51832 19.7355 9.58388 19.7782C9.7354 19.8766 9.90483 19.9441 10.0825 19.977C10.2601 20.0099 10.4425 20.0075 10.6192 19.9698C10.7959 19.9322 10.9635 19.8601 11.1123 19.7577C11.2611 19.6552 11.3883 19.5245 11.4866 19.3729L20.0821 6.12384C20.1804 5.97234 20.2479 5.80295 20.2808 5.62534C20.3136 5.44774 20.3111 5.26541 20.2735 5.08876C20.2359 4.91212 20.1638 4.74461 20.0614 4.59583C19.959 4.44704 19.8283 4.31988 19.6768 4.22162Z" fill="black"/>
</svg>
