<svg width="24" height="24" viewBox="0 0 24 24" fill="none" xmlns="http://www.w3.org/2000/svg">
<path d="M12.3675 16.0375L16.0382 12.3668M7.96263 11.6326L11.6333 7.96191" stroke="#BDBDBD" stroke-width="1.5" stroke-linecap="round"/>
<path d="M3.92455 18.6073L4.45488 18.077L3.92455 18.6073ZM5.39283 20.0756L4.8625 20.6059L5.39283 20.0756ZM9.06355 20.0756L8.53322 20.6059L9.06355 20.0756ZM9.79769 20.8097L10.328 20.2794L9.79769 20.8097ZM14.6056 19.3774L13.8812 19.1833L13.8812 19.1833L14.6056 19.3774ZM13.4684 17.139L12.9381 17.6693H12.9381L13.4684 17.139ZM14.6056 18.5713L13.8812 18.7654V18.7654L14.6056 18.5713ZM12.0361 21.9469L11.842 21.2225L11.842 21.2225L12.0361 21.9469ZM11.23 21.9469L11.4241 21.2225L11.23 21.9469ZM2.05319 11.964L2.77763 12.1581L2.77763 12.1581L2.05319 11.964ZM3.1904 14.2024L2.66007 14.7328L3.1904 14.2024ZM2.05319 12.7701L1.32874 12.9643L2.05319 12.7701ZM4.62269 9.3945L4.8168 10.1189L4.62269 9.3945ZM6.86112 10.5317L6.33079 11.062V11.062L6.86112 10.5317ZM5.42883 9.3945L5.62295 8.67005H5.62295L5.42883 9.3945ZM19.3776 14.6055L19.1834 13.8811H19.1834L19.3776 14.6055ZM17.1391 13.4683L16.6088 13.9986L17.1391 13.4683ZM18.5714 14.6055L18.7655 13.8811H18.7655L18.5714 14.6055ZM21.9471 12.036L21.2226 11.8419L21.2226 11.8419L21.9471 12.036ZM21.9471 11.2299L21.2226 11.424L21.2226 11.424L21.9471 11.2299ZM11.9641 2.05307L11.77 1.32862V1.32862L11.9641 2.05307ZM14.2026 3.19028L13.6722 3.72061L14.2026 3.19028ZM12.7703 2.05307L12.5762 2.77751L12.5762 2.77751L12.7703 2.05307ZM9.39462 4.62257L8.67017 4.42845V4.42845L9.39462 4.62257ZM10.5318 6.861L10.0015 7.39133L10.5318 6.861ZM9.39462 5.42871L10.1191 5.2346V5.2346L9.39462 5.42871ZM7.02438 16.9757C7.31727 17.2686 7.31727 17.7435 7.02438 18.0364C6.73148 18.3293 6.25661 18.3293 5.96372 18.0364L7.02438 16.9757ZM18.0365 5.9636C18.3294 6.25649 18.3294 6.73136 18.0365 7.02426C17.7436 7.31715 17.2688 7.31715 16.9759 7.02426L18.0365 5.9636ZM12.3672 16.0378L12.8975 15.5075H12.8975L12.3672 16.0378ZM16.0379 12.3671L16.5682 11.8367L16.0379 12.3671ZM7.96233 11.6329L8.49266 11.1026V11.1026L7.96233 11.6329ZM11.6331 7.96221L12.1634 7.43188L11.6331 7.96221ZM4.45488 18.077L5.92316 19.5452L4.8625 20.6059L3.39422 19.1376L4.45488 18.077ZM19.5454 5.92304L18.0771 4.45475L19.1377 3.39409L20.606 4.86238L19.5454 5.92304ZM19.5454 7.79895C19.9064 7.43788 20.1228 7.2193 20.2581 7.04192C20.3204 6.96028 20.3462 6.9114 20.3568 6.88584C20.365 6.86626 20.3639 6.86179 20.3639 6.861H21.8639C21.8639 7.30594 21.6746 7.65828 21.4506 7.95179C21.2399 8.22799 20.9371 8.52853 20.606 8.85961L19.5454 7.79895ZM20.606 4.86238C20.9371 5.19347 21.2399 5.49401 21.4506 5.77021C21.6746 6.06372 21.8639 6.41605 21.8639 6.861H20.3639C20.3639 6.8602 20.365 6.85573 20.3568 6.83615C20.3462 6.8106 20.3204 6.76171 20.2581 6.68008C20.1228 6.50269 19.9064 6.28411 19.5454 5.92304L20.606 4.86238ZM5.92316 19.5452C6.28423 19.9063 6.50281 20.1226 6.6802 20.258C6.76183 20.3203 6.81072 20.346 6.83628 20.3567C6.85586 20.3649 6.86032 20.3638 6.86112 20.3638L6.86112 21.8638C6.41617 21.8638 6.06384 21.6745 5.77033 21.4505C5.49413 21.2398 5.19359 20.937 4.8625 20.6059L5.92316 19.5452ZM8.85974 20.6059C8.52865 20.937 8.22811 21.2398 7.95191 21.4505C7.6584 21.6745 7.30606 21.8638 6.86112 21.8638L6.86112 20.3638C6.86192 20.3638 6.86638 20.3649 6.88596 20.3567C6.91152 20.346 6.9604 20.3203 7.04204 20.258C7.21943 20.1226 7.43801 19.9063 7.79908 19.5452L8.85974 20.6059ZM4.45488 16.201C4.09381 16.5621 3.87748 16.7807 3.74214 16.9581C3.67985 17.0397 3.65408 17.0886 3.64342 17.1142C3.63526 17.1337 3.63631 17.1382 3.63631 17.139L2.13631 17.139C2.13631 16.6941 2.32566 16.3417 2.5496 16.0482C2.76034 15.772 3.06313 15.4715 3.39422 15.1404L4.45488 16.201ZM3.39422 19.1376C3.06313 18.8065 2.76034 18.506 2.5496 18.2298C2.32566 17.9363 2.13631 17.5839 2.13631 17.139L3.63631 17.139C3.63631 17.1398 3.63526 17.1443 3.64342 17.1638C3.65408 17.1894 3.67985 17.2383 3.74214 17.3199C3.87748 17.4973 4.09381 17.7159 4.45488 18.077L3.39422 19.1376ZM15.1405 3.39409C15.4716 3.06301 15.7721 2.76022 16.0483 2.54948C16.3418 2.32554 16.6942 2.13619 17.1391 2.13619V3.63619C17.1383 3.63619 17.1339 3.63513 17.1143 3.6433C17.0887 3.65396 17.0398 3.67973 16.9582 3.74201C16.7808 3.87736 16.5622 4.09368 16.2012 4.45475L15.1405 3.39409ZM18.0771 4.45475C17.716 4.09368 17.4974 3.87736 17.32 3.74201C17.2384 3.67973 17.1895 3.65396 17.164 3.6433C17.1444 3.63513 17.1399 3.63619 17.1391 3.63619V2.13619C17.5841 2.13619 17.9364 2.32554 18.2299 2.54948C18.5061 2.76022 18.8067 3.06301 19.1377 3.39409L18.0771 4.45475ZM9.59388 19.5452L10.328 20.2794L9.26736 21.34L8.53322 20.6059L9.59388 19.5452ZM12.9381 20.2794C13.2909 19.9266 13.5196 19.6969 13.6778 19.5071C13.8294 19.3253 13.867 19.2363 13.8812 19.1833L15.3301 19.5715C15.2363 19.9216 15.0483 20.2057 14.8299 20.4677C14.618 20.7218 14.332 21.0067 13.9987 21.34L12.9381 20.2794ZM13.9987 16.6087C14.332 16.942 14.618 17.2269 14.8299 17.481C15.0483 17.743 15.2363 18.0271 15.3301 18.3772L13.8812 18.7654C13.867 18.7124 13.8294 18.6234 13.6778 18.4416C13.5196 18.2518 13.2909 18.0222 12.9381 17.6693L13.9987 16.6087ZM13.8812 19.1833C13.9179 19.0464 13.9179 18.9023 13.8812 18.7654L15.3301 18.3772C15.4349 18.7684 15.4349 19.1803 15.3301 19.5716L13.8812 19.1833ZM13.9987 21.34C13.6654 21.6734 13.3805 21.9593 13.1264 22.1712C12.8644 22.3896 12.5803 22.5776 12.2302 22.6714L11.842 21.2225C11.895 21.2083 11.984 21.1707 12.1658 21.0191C12.3556 20.8609 12.5852 20.6322 12.9381 20.2794L13.9987 21.34ZM10.328 20.2794C10.6809 20.6322 10.9105 20.8609 11.1003 21.0191C11.2821 21.1707 11.3711 21.2083 11.4241 21.2225L11.0359 22.6714C10.6858 22.5776 10.4017 22.3896 10.1397 22.1712C9.88561 21.9593 9.60067 21.6734 9.26736 21.34L10.328 20.2794ZM12.2302 22.6714C11.839 22.7762 11.4271 22.7762 11.0359 22.6714L11.4241 21.2225C11.561 21.2592 11.7051 21.2592 11.842 21.2225L12.2302 22.6714ZM3.72073 11.062C3.3679 11.4149 3.13924 11.6445 2.98103 11.8343C2.82944 12.0161 2.79183 12.1051 2.77763 12.1581L1.32874 11.7699C1.42254 11.4198 1.61047 11.1357 1.82896 10.8737C2.04081 10.6196 2.32676 10.3347 2.66007 10.0014L3.72073 11.062ZM2.66007 14.7328C2.32676 14.3994 2.04081 14.1145 1.82896 13.8604C1.61047 13.5984 1.42254 13.3143 1.32874 12.9643L2.77763 12.576C2.79183 12.629 2.82944 12.718 2.98103 12.8998C3.13924 13.0896 3.3679 13.3193 3.72073 13.6721L2.66007 14.7328ZM2.77763 12.1581C2.74095 12.295 2.74095 12.4391 2.77763 12.576L1.32874 12.9643C1.22392 12.573 1.22391 12.1611 1.32874 11.7699L2.77763 12.1581ZM2.66007 10.0014C2.99338 9.66807 3.27832 9.38212 3.5324 9.17027C3.79444 8.95178 4.0785 8.76386 4.42857 8.67005L4.8168 10.1189C4.7638 10.1331 4.6748 10.1708 4.49299 10.3223C4.30324 10.4806 4.07356 10.7092 3.72073 11.062L2.66007 10.0014ZM6.33079 11.062C5.97796 10.7092 5.74829 10.4806 5.55853 10.3223C5.37673 10.1708 5.28772 10.1331 5.23472 10.1189L5.62295 8.67005C5.97302 8.76386 6.25709 8.95178 6.51912 9.17027C6.77321 9.38212 7.05814 9.66807 7.39145 10.0014L6.33079 11.062ZM4.42857 8.67005C4.8198 8.56522 5.23173 8.56523 5.62295 8.67005L5.23472 10.1189C5.09783 10.0823 4.95369 10.0823 4.8168 10.1189L4.42857 8.67005ZM20.606 8.5331L21.3402 9.26724L20.2795 10.3279L19.5454 9.59376L20.606 8.5331ZM21.3402 13.9986C21.0069 14.3319 20.7219 14.6179 20.4678 14.8297C20.2058 15.0482 19.9217 15.2361 19.5717 15.3299L19.1834 13.8811C19.2364 13.8669 19.3254 13.8292 19.5073 13.6777C19.697 13.5194 19.9267 13.2908 20.2795 12.938L21.3402 13.9986ZM17.6695 12.938C18.0223 13.2908 18.252 13.5194 18.4417 13.6777C18.6235 13.8292 18.7125 13.8669 18.7655 13.8811L18.3773 15.3299C18.0272 15.2361 17.7432 15.0482 17.4811 14.8297C17.227 14.6179 16.9421 14.3319 16.6088 13.9986L17.6695 12.938ZM19.5717 15.3299C19.1804 15.4348 18.7685 15.4348 18.3773 15.3299L18.7655 13.8811C18.9024 13.9177 19.0465 13.9177 19.1834 13.8811L19.5717 15.3299ZM20.2795 12.938C20.6323 12.5851 20.861 12.3555 21.0192 12.1657C21.1708 11.9839 21.2084 11.8949 21.2226 11.8419L22.6715 12.2301C22.5777 12.5802 22.3898 12.8643 22.1713 13.1263C21.9594 13.3804 21.6735 13.6653 21.3402 13.9986L20.2795 12.938ZM21.3402 9.26724C21.6735 9.60055 21.9594 9.88548 22.1713 10.1396C22.3898 10.4016 22.5777 10.6857 22.6715 11.0357L21.2226 11.424C21.2084 11.371 21.1708 11.282 21.0192 11.1002C20.861 10.9104 20.6323 10.6807 20.2795 10.3279L21.3402 9.26724ZM21.2226 11.8419C21.2593 11.705 21.2593 11.5609 21.2226 11.424L22.6715 11.0357C22.7763 11.427 22.7763 11.8389 22.6715 12.2301L21.2226 11.8419ZM10.0015 2.65995C10.3348 2.32664 10.6197 2.04069 10.8738 1.82884C11.1359 1.61035 11.4199 1.42242 11.77 1.32862L12.1582 2.77751C12.1052 2.79171 12.0162 2.82932 11.8344 2.98091C11.6447 3.13912 11.415 3.36778 11.0622 3.72061L10.0015 2.65995ZM13.6722 3.72061C13.3194 3.36778 13.0897 3.13912 12.9 2.98091C12.7182 2.82932 12.6292 2.79171 12.5762 2.77751L12.9644 1.32862C13.3145 1.42242 13.5985 1.61035 13.8606 1.82884C14.1146 2.04069 14.3996 2.32664 14.7329 2.65995L13.6722 3.72061ZM11.77 1.32862C12.1612 1.22379 12.5732 1.22379 12.9644 1.32862L12.5762 2.77751C12.4393 2.74083 12.2951 2.74083 12.1582 2.77751L11.77 1.32862ZM11.0622 3.72061C10.7093 4.07344 10.4807 4.30312 10.3225 4.49287C10.1709 4.67467 10.1333 4.76368 10.1191 4.81668L8.67017 4.42845C8.76398 4.07838 8.95191 3.79432 9.17039 3.53228C9.38225 3.27819 9.66819 2.99326 10.0015 2.65995L11.0622 3.72061ZM10.0015 7.39133C9.66819 7.05802 9.38225 6.77308 9.17039 6.519C8.95191 6.25696 8.76398 5.9729 8.67018 5.62283L10.1191 5.2346C10.1333 5.2876 10.1709 5.37661 10.3225 5.55841C10.4807 5.74816 10.7093 5.97784 11.0622 6.33067L10.0015 7.39133ZM10.1191 4.81668C10.0824 4.95357 10.0824 5.0977 10.1191 5.2346L8.67018 5.62283C8.56535 5.2316 8.56535 4.81968 8.67017 4.42845L10.1191 4.81668ZM3.72073 13.6721L7.02438 16.9757L5.96372 18.0364L2.66007 14.7328L3.72073 13.6721ZM14.7329 2.65995L18.0365 5.9636L16.9759 7.02426L13.6722 3.72061L14.7329 2.65995ZM12.9381 17.6693L11.8369 16.5681L12.8975 15.5075L13.9987 16.6087L12.9381 17.6693ZM16.6088 13.9986L15.5076 12.8974L16.5682 11.8367L17.6695 12.938L16.6088 13.9986ZM11.8369 16.5681L7.432 12.1633L8.49266 11.1026L12.8975 15.5075L11.8369 16.5681ZM7.432 12.1633L6.33079 11.062L7.39145 10.0014L8.49266 11.1026L7.432 12.1633ZM15.5076 12.8974L11.1027 8.49254L12.1634 7.43188L16.5682 11.8367L15.5076 12.8974ZM11.1027 8.49254L10.0015 7.39133L11.0622 6.33067L12.1634 7.43188L11.1027 8.49254ZM19.5454 9.59376C19.0497 9.09814 19.0497 8.29458 19.5454 7.79895L20.606 8.85961C20.6962 8.76945 20.6962 8.62326 20.606 8.5331L19.5454 9.59376ZM8.53322 20.6059C8.62338 20.6961 8.76957 20.6961 8.85974 20.6059L7.79908 19.5452C8.2947 19.0496 9.09826 19.0496 9.59388 19.5452L8.53322 20.6059Z" fill="black"/>
</svg>
