<svg width="24" height="24" viewBox="0 0 24 24" fill="none" xmlns="http://www.w3.org/2000/svg">
<path d="M19.8279 13.5795C20.0453 12.5368 20.0453 11.4611 19.8279 10.4184L21.4095 8.70805C21.452 8.66221 21.4807 8.60548 21.4923 8.54431C21.5039 8.48314 21.4979 8.41997 21.475 8.36199C21.1029 7.41845 20.5877 6.53653 19.9473 5.74659C19.9079 5.69796 19.8555 5.66126 19.7961 5.64067C19.7366 5.62008 19.6726 5.61643 19.6111 5.63013L17.3254 6.12925C16.521 5.42268 15.5806 4.88448 14.5606 4.54704L13.8564 2.34091C13.8373 2.28169 13.8018 2.22895 13.754 2.18867C13.7062 2.14838 13.6479 2.12216 13.5858 2.11298C12.5752 1.96234 11.5476 1.96234 10.537 2.11298C10.4736 2.12253 10.4142 2.14985 10.366 2.19172C10.3178 2.23358 10.2826 2.28824 10.2647 2.34923L9.64624 4.5121H8.3437C8.26188 4.19843 8.06731 3.92507 7.79646 3.74325C7.5256 3.56143 7.19706 3.48364 6.87241 3.52446C6.54776 3.56528 6.24929 3.72191 6.03296 3.96498C5.81662 4.20806 5.69727 4.52089 5.69727 4.84485C5.69727 5.1688 5.81662 5.48163 6.03296 5.72471C6.24929 5.96778 6.54776 6.12441 6.87241 6.16523C7.19706 6.20605 7.5256 6.12826 7.79646 5.94644C8.06731 5.76462 8.26188 5.49126 8.3437 5.17759H9.90003C9.97297 5.17749 10.0439 5.1539 10.1021 5.11038C10.1603 5.06686 10.2027 5.00578 10.2227 4.93635L10.8513 2.74021C11.657 2.638 12.4726 2.638 13.2782 2.74021L13.9724 4.91306C13.9888 4.96446 14.0175 5.01115 14.0561 5.04911C14.0948 5.08708 14.1422 5.11518 14.1942 5.13101C15.2391 5.45102 16.1978 5.99975 16.9993 6.73652C17.0391 6.77316 17.0872 6.79972 17.1396 6.81391C17.192 6.82811 17.2471 6.82953 17.3002 6.81804L19.5489 6.31892C20.0448 6.95973 20.4544 7.6616 20.7675 8.40692L19.2128 10.089C19.1764 10.1286 19.1502 10.1764 19.1364 10.2283C19.1227 10.2801 19.1218 10.3345 19.1338 10.3868C19.3791 11.4422 19.3791 12.539 19.1338 13.5945C19.1218 13.6467 19.1227 13.7011 19.1364 13.753C19.1502 13.8048 19.1764 13.8526 19.2128 13.8923L20.7675 15.5743C20.4544 16.3196 20.0448 17.0215 19.5489 17.6623L17.2951 17.1782C17.2421 17.1667 17.187 17.1681 17.1346 17.1823C17.0822 17.1965 17.034 17.223 16.9943 17.2597C16.1928 17.9965 15.2341 18.5452 14.1892 18.8652C14.1371 18.881 14.0898 18.9091 14.0511 18.9471C14.0125 18.9851 13.9837 19.0317 13.9673 19.0831L13.2732 21.256C12.4675 21.3581 11.652 21.3581 10.8463 21.256L10.2177 19.0599C10.1976 18.9915 10.1559 18.9314 10.0987 18.8883C10.0415 18.8452 9.97189 18.8213 9.90003 18.8203H8.3437C8.26188 18.5066 8.06731 18.2332 7.79646 18.0514C7.5256 17.8696 7.19706 17.7918 6.87241 17.8326C6.54776 17.8735 6.24929 18.0301 6.03296 18.2732C5.81662 18.5162 5.69727 18.8291 5.69727 19.153C5.69727 19.477 5.81662 19.7898 6.03296 20.0329C6.24929 20.276 6.54776 20.4326 6.87241 20.4734C7.19706 20.5142 7.5256 20.4364 7.79646 20.2546C8.06731 20.0728 8.26188 19.7994 8.3437 19.4858H9.64624L10.2647 21.6486C10.2825 21.7102 10.3177 21.7653 10.3663 21.8075C10.4149 21.8497 10.4748 21.8772 10.5387 21.8865C11.5492 22.0378 12.577 22.0378 13.5875 21.8865C13.6496 21.8774 13.7079 21.8512 13.7557 21.8109C13.8035 21.7706 13.839 21.7178 13.8581 21.6586L14.5623 19.4492C15.5822 19.1117 16.5227 18.5735 17.3271 17.8669L19.6128 18.3661C19.6742 18.3798 19.7383 18.3761 19.7977 18.3555C19.8572 18.3349 19.9096 18.2982 19.949 18.2496C20.5894 17.4597 21.1046 16.5778 21.4767 15.6342C21.4996 15.5762 21.5055 15.5131 21.494 15.4519C21.4824 15.3907 21.4537 15.334 21.4112 15.2881L19.8279 13.5795ZM7.04283 5.51034C6.90987 5.51034 6.77989 5.47131 6.66933 5.39819C6.55878 5.32506 6.47261 5.22112 6.42172 5.09952C6.37084 4.97792 6.35753 4.84411 6.38347 4.71501C6.40941 4.58592 6.47344 4.46734 6.56746 4.37427C6.66148 4.2812 6.78127 4.21781 6.91168 4.19214C7.04209 4.16646 7.17726 4.17964 7.3001 4.23001C7.42295 4.28038 7.52794 4.36568 7.60181 4.47512C7.67568 4.58456 7.71511 4.71322 7.71511 4.84485C7.71511 5.02135 7.64428 5.19062 7.51821 5.31542C7.39213 5.44023 7.22113 5.51034 7.04283 5.51034ZM7.04283 19.8185C6.90987 19.8185 6.77989 19.7795 6.66933 19.7064C6.55878 19.6332 6.47261 19.5293 6.42172 19.4077C6.37084 19.2861 6.35753 19.1523 6.38347 19.0232C6.40941 18.8941 6.47344 18.7755 6.56746 18.6824C6.66148 18.5894 6.78127 18.526 6.91168 18.5003C7.04209 18.4746 7.17726 18.4878 7.3001 18.5382C7.42295 18.5886 7.52794 18.6738 7.60181 18.7833C7.67568 18.8927 7.71511 19.0214 7.71511 19.153C7.71511 19.3295 7.64428 19.4988 7.51821 19.6236C7.39213 19.7484 7.22113 19.8185 7.04283 19.8185Z" fill="black"/>
<path d="M11.9961 15.6595C12.9768 15.6684 13.9208 15.2912 14.6206 14.611C15.3203 13.9308 15.7184 13.0033 15.7273 12.0326C15.7362 11.0618 15.3552 10.1273 14.6681 9.43465C13.981 8.74199 13.044 8.34789 12.0634 8.33907H4.64643C4.56462 8.0254 4.37004 7.75204 4.09919 7.57022C3.82833 7.3884 3.49979 7.31061 3.17514 7.35143C2.85049 7.39225 2.55203 7.54888 2.33569 7.79195C2.11935 8.03503 2 8.34786 2 8.67182C2 8.99577 2.11935 9.30861 2.33569 9.55168C2.55203 9.79475 2.85049 9.95138 3.17514 9.9922C3.49979 10.033 3.82833 9.95523 4.09919 9.77341C4.37004 9.5916 4.56462 9.31823 4.64643 9.00456H9.92552C9.47702 9.30448 9.10072 9.69845 8.82332 10.1585C8.54593 10.6186 8.37424 11.1334 8.32045 11.6666H7.50363C7.42181 11.3529 7.22724 11.0795 6.95639 10.8977C6.68553 10.7159 6.35699 10.6381 6.03234 10.6789C5.70769 10.7197 5.40922 10.8764 5.19289 11.1194C4.97655 11.3625 4.8572 11.6753 4.8572 11.9993C4.8572 12.3233 4.97655 12.6361 5.19289 12.8792C5.40922 13.1222 5.70769 13.2789 6.03234 13.3197C6.35699 13.3605 6.68553 13.2827 6.95639 13.1009C7.22724 12.9191 7.42181 12.6457 7.50363 12.332H8.63978C8.72893 12.332 8.81443 12.297 8.87747 12.2346C8.94051 12.1722 8.97592 12.0875 8.97592 11.9993C8.97592 11.407 9.15335 10.828 9.48577 10.3355C9.81819 9.84303 10.2907 9.45919 10.8435 9.23253C11.3963 9.00586 12.0045 8.94656 12.5914 9.06211C13.1782 9.17766 13.7173 9.46288 14.1404 9.8817C14.5635 10.3005 14.8516 10.8341 14.9683 11.4151C15.0851 11.996 15.0251 12.5981 14.7962 13.1453C14.5672 13.6925 14.1794 14.1603 13.6819 14.4893C13.1844 14.8184 12.5995 14.994 12.0012 14.994H4.64643C4.56462 14.6804 4.37004 14.407 4.09919 14.2252C3.82833 14.0434 3.49979 13.9656 3.17514 14.0064C2.85049 14.0472 2.55203 14.2038 2.33569 14.4469C2.11935 14.69 2 15.0028 2 15.3268C2 15.6507 2.11935 15.9636 2.33569 16.2066C2.55203 16.4497 2.85049 16.6063 3.17514 16.6472C3.49979 16.688 3.82833 16.6102 4.09919 16.4284C4.37004 16.2466 4.56462 15.9732 4.64643 15.6595H11.9961ZM3.34557 9.33731C3.2126 9.33731 3.08262 9.29828 2.97207 9.22516C2.86151 9.15203 2.77534 9.04809 2.72446 8.92649C2.67358 8.80489 2.66026 8.67108 2.6862 8.54198C2.71214 8.41289 2.77617 8.29431 2.87019 8.20124C2.96421 8.10817 3.084 8.04479 3.21441 8.01911C3.34482 7.99343 3.47999 8.00661 3.60284 8.05698C3.72568 8.10735 3.83068 8.19265 3.90455 8.30209C3.97842 8.41153 4.01785 8.54019 4.01785 8.67182C4.01785 8.84832 3.94702 9.01759 3.82094 9.14239C3.69486 9.2672 3.52387 9.33731 3.34557 9.33731ZM6.20276 12.6648C6.0698 12.6648 5.93982 12.6258 5.82926 12.5526C5.71871 12.4795 5.63254 12.3756 5.58165 12.254C5.53077 12.1324 5.51746 11.9986 5.5434 11.8695C5.56934 11.7404 5.63337 11.6218 5.72739 11.5287C5.82141 11.4357 5.9412 11.3723 6.07161 11.3466C6.20201 11.3209 6.33719 11.3341 6.46003 11.3845C6.58287 11.4348 6.68787 11.5201 6.76174 11.6296C6.83561 11.739 6.87504 11.8677 6.87504 11.9993C6.87504 12.1758 6.80421 12.3451 6.67814 12.4699C6.55206 12.5947 6.38106 12.6648 6.20276 12.6648ZM3.34557 15.9923C3.2126 15.9923 3.08262 15.9532 2.97207 15.8801C2.86151 15.807 2.77534 15.7031 2.72446 15.5815C2.67358 15.4599 2.66026 15.326 2.6862 15.1969C2.71214 15.0679 2.77617 14.9493 2.87019 14.8562C2.96421 14.7631 3.084 14.6998 3.21441 14.6741C3.34482 14.6484 3.47999 14.6616 3.60284 14.7119C3.72568 14.7623 3.83068 14.8476 3.90455 14.9571C3.97842 15.0665 4.01785 15.1952 4.01785 15.3268C4.01785 15.5033 3.94702 15.6726 3.82094 15.7974C3.69486 15.9222 3.52387 15.9923 3.34557 15.9923Z" fill="#BDBDBD"/>
</svg>
