<svg width="197" height="39" viewBox="0 0 197 39" fill="none" xmlns="http://www.w3.org/2000/svg">
<g id="Frame" clip-path="url(#clip0_4535_7863)">
<g id="Group">
<path id="Vector" d="M104.15 35.0827H105.95C108.664 35.0827 110.282 33.7939 110.282 31.5255C110.282 29.2572 108.664 27.9941 105.95 27.9941H101.357V38.3048H104.15V35.0827ZM104.15 32.8401V30.2109H105.82C107.072 30.2109 107.568 30.6749 107.568 31.5255C107.568 32.4019 107.099 32.8401 105.82 32.8401H104.15ZM115.006 31.1904H115.084L116.284 34.2321H113.831L115.006 31.1904ZM117.85 38.3048H120.851L116.702 27.9941H113.544L109.395 38.3048H112.213L112.996 36.32H117.067L117.85 38.3048ZM124.4 32.737V30.2109H126.41C127.61 30.2109 128.21 30.6491 128.21 31.4998C128.21 32.4277 127.61 32.737 126.41 32.737H124.4ZM131.107 38.3048C130.924 38.1243 130.82 37.8666 130.768 37.5573C130.716 37.2479 130.663 36.7066 130.559 35.9333C130.455 34.7476 129.802 34.129 128.732 33.9228C129.985 33.7681 130.95 32.7886 130.95 31.2678C130.95 29.2572 129.62 27.9941 126.906 27.9941H121.634V38.3048H124.4V34.8765H126.279C127.219 34.8765 127.741 35.1343 127.819 36.32C127.897 37.3768 128.028 38.0212 128.263 38.3048H131.107ZM142.198 38.3048L137.97 32.3762L141.989 27.9941H138.753L135.021 32.17V27.9941H132.203V38.3048H135.021V35.1858L135.935 34.2063L138.832 38.3048H142.198Z" fill="white"/>
<path id="Vector_2" d="M100.889 19.5123C100.889 21.1105 101.411 22.3735 102.428 23.3788C103.446 24.3841 104.725 24.8738 106.238 24.8738C107.83 24.8738 109.057 24.4356 109.892 23.5592C110.753 22.6828 111.223 21.6002 111.327 20.3114L108.639 20.2083C108.561 20.7754 108.352 21.2909 107.987 21.7549C107.621 22.1931 107.047 22.4251 106.238 22.4251C104.725 22.4251 103.811 21.2909 103.811 19.5381C103.811 17.7853 104.725 16.6511 106.238 16.6511C107.047 16.6511 107.621 16.8831 107.987 17.3471C108.352 17.7853 108.561 18.3008 108.639 18.8679L111.327 18.7648C111.223 17.476 110.753 16.4191 109.892 15.5169C109.057 14.6148 107.83 14.1766 106.238 14.1766C104.725 14.1766 103.446 14.6663 102.428 15.6716C101.384 16.6511 100.889 17.9142 100.889 19.5123ZM122.809 19.5123C122.809 17.9142 122.288 16.6511 121.244 15.6458C120.2 14.6405 118.895 14.1508 117.408 14.1508C115.894 14.1508 114.615 14.6405 113.571 15.6458C112.528 16.6511 112.006 17.9142 112.006 19.5123C112.006 21.1105 112.528 22.3735 113.571 23.3788C114.615 24.3841 115.92 24.8738 117.408 24.8738C118.921 24.8738 120.2 24.3841 121.244 23.3788C122.288 22.3735 122.809 21.0847 122.809 19.5123ZM119.913 19.5123C119.913 21.2651 118.921 22.3993 117.408 22.3993C115.894 22.3993 114.876 21.2651 114.876 19.5123C114.876 17.7595 115.868 16.6253 117.408 16.6253C118.921 16.5996 119.913 17.7595 119.913 19.5123ZM131.943 14.357H129.412L127.689 20.8269H127.611L125.967 14.357H123.149L125.889 24.6676H128.838L130.586 18.1462H130.664L132.413 24.6676H135.414L138.154 14.357H135.44L133.796 20.8269H133.718L131.943 14.357ZM149.271 19.5123C149.271 17.9142 148.749 16.6511 147.705 15.6458C146.661 14.6405 145.357 14.1508 143.869 14.1508C142.355 14.1508 141.077 14.6405 140.033 15.6458C138.989 16.6511 138.467 17.9142 138.467 19.5123C138.467 21.1105 138.989 22.3735 140.033 23.3788C141.077 24.3841 142.355 24.8738 143.869 24.8738C145.383 24.8738 146.661 24.3841 147.705 23.3788C148.723 22.3735 149.271 21.0847 149.271 19.5123ZM146.374 19.5123C146.374 21.2651 145.383 22.3993 143.843 22.3993C142.329 22.3993 141.312 21.2651 141.312 19.5123C141.312 17.7595 142.303 16.6253 143.843 16.6253C145.383 16.5996 146.374 17.7595 146.374 19.5123ZM153.159 19.0999V16.5738H155.169C156.369 16.5738 156.969 17.012 156.969 17.8626C156.969 18.7906 156.369 19.0999 155.169 19.0999H153.159ZM159.866 24.6676C159.683 24.4872 159.579 24.2294 159.527 23.9201C159.475 23.6108 159.422 23.0695 159.318 22.2962C159.214 21.1105 158.561 20.4918 157.491 20.2856C158.744 20.1309 159.709 19.1514 159.709 17.6306C159.709 15.62 158.379 14.357 155.665 14.357H150.393V24.6676H153.159V21.2393H155.038C155.978 21.2393 156.5 21.4971 156.578 22.6828C156.656 23.7397 156.787 24.3841 156.995 24.6676H159.866ZM170.931 24.6676L166.703 18.739L170.722 14.357H167.486L163.754 18.5328V14.357H160.936V24.6676H163.754V21.5229L164.668 20.5434L167.564 24.6419H170.931V24.6676ZM171.557 24.6676H174.375V14.357H171.557V24.6676ZM178.655 14.357H175.967V24.6676H178.551V18.5586L183.066 24.6676H185.31V14.357H182.726V20.0794L178.655 14.357ZM191.521 24.8481C192.852 24.8481 193.974 24.4356 194.548 23.5077V24.6419H197.001V19.3061H192.043V21.2909H194.339C193.922 22.09 193.034 22.4766 192.121 22.4766C190.32 22.4766 189.355 21.2651 189.355 19.4865C189.355 17.7337 190.268 16.5996 191.912 16.5996C193.243 16.5996 194.052 17.3471 194.209 18.4555L196.949 18.3524C196.74 15.8005 194.913 14.125 191.86 14.125C190.346 14.125 189.068 14.6148 188.024 15.62C186.98 16.6253 186.458 17.8884 186.458 19.4865C186.458 21.0847 186.928 22.3735 187.919 23.353C188.885 24.3583 190.085 24.8481 191.521 24.8481Z" fill="white"/>
<path id="Vector_3" d="M106.159 3.89161H106.237L107.438 6.93325H104.984L106.159 3.89161ZM109.029 11.006H112.03L107.881 0.695312H104.724L100.574 11.006H103.419L104.202 9.02116H108.273L109.029 11.006Z" fill="white"/>
<path id="Vector_4" d="M87.6314 0.695312H86.457V38.2776H87.6314V0.695312Z" fill="white"/>
<path id="Vector_5" d="M19.7548 8.94448C14.1963 8.94448 10.5689 13.1203 10.5689 19.5129C10.5689 25.9055 14.1963 30.0813 19.7548 30.0813C25.3133 30.0813 28.9407 25.9055 28.9407 19.5129C28.9146 13.1203 25.2872 8.94448 19.7548 8.94448ZM33.7424 33.5869C29.9323 37.2214 25.235 39.0258 19.7287 39.0258C14.2224 39.0258 9.5251 37.2472 5.71506 33.5869C1.93112 29.9524 0 25.2868 0 19.5129C0 13.7389 1.93112 9.07337 5.74116 5.43886C9.5512 1.77859 14.2485 0 19.7548 0C25.2611 0 29.9584 1.77859 33.7684 5.43886C37.5785 9.07337 39.5096 13.7389 39.5096 19.5129C39.4835 25.2868 37.5524 29.9524 33.7424 33.5869Z" fill="white"/>
<path id="Vector_6" d="M73.5393 29.9533V38.2792H41.3105V30.5977L60.0215 9.07428H41.4932V0.722656H73.0696V8.58452L54.2282 29.9533H73.5393Z" fill="white"/>
</g>
</g>
<defs>
<clipPath id="clip0_4535_7863">
<rect width="197" height="39" fill="white"/>
</clipPath>
</defs>
</svg>
