<svg width="142" height="28" viewBox="0 0 142 28" fill="none" xmlns="http://www.w3.org/2000/svg">
<path d="M75.0723 25.1699H76.3702C78.3265 25.1699 79.4927 24.2451 79.4927 22.6177C79.4927 20.9902 78.3265 20.084 76.3702 20.084H73.0596V27.4816H75.0723V25.1699ZM75.0723 23.5609V21.6745H76.2762C77.1791 21.6745 77.5365 22.0074 77.5365 22.6177C77.5365 23.2465 77.1979 23.5609 76.2762 23.5609H75.0723ZM82.8974 22.3772H82.9539L83.8191 24.5595H82.051L82.8974 22.3772ZM84.9478 27.4816H87.111L84.1201 20.084H81.844L78.8532 27.4816H80.8847L81.449 26.0576H84.3835L84.9478 27.4816ZM89.6692 23.4869V21.6745H91.1176C91.9829 21.6745 92.4155 21.9889 92.4155 22.5992C92.4155 23.265 91.9829 23.4869 91.1176 23.4869H89.6692ZM94.5035 27.4816C94.3718 27.3521 94.2966 27.1672 94.2589 26.9453C94.2213 26.7233 94.1837 26.335 94.1084 25.7802C94.0332 24.9294 93.5629 24.4856 92.7917 24.3376C93.6946 24.2267 94.3906 23.5239 94.3906 22.4327C94.3906 20.9902 93.4313 20.084 91.475 20.084H87.6753V27.4816H89.6692V25.0219H91.0235C91.7007 25.0219 92.0769 25.2068 92.1334 26.0576C92.1898 26.8158 92.2838 27.2782 92.4531 27.4816H94.5035ZM102.498 27.4816L99.4506 23.228L102.347 20.084H100.015L97.325 23.08V20.084H95.2935V27.4816H97.325V25.2438L97.9834 24.5411L100.071 27.4816H102.498Z" fill="white"/>
<path d="M72.7207 14C72.7207 15.1467 73.0969 16.0529 73.8305 16.7741C74.5641 17.4954 75.4858 17.8468 76.5768 17.8468C77.7243 17.8468 78.6084 17.5324 79.2103 16.9036C79.831 16.2748 80.1696 15.498 80.2449 14.5733L78.3074 14.4994C78.251 14.9062 78.1005 15.2761 77.8371 15.609C77.5738 15.9234 77.16 16.0899 76.5768 16.0899C75.4858 16.0899 74.8275 15.2761 74.8275 14.0185C74.8275 12.7609 75.4858 11.9472 76.5768 11.9472C77.16 11.9472 77.5738 12.1136 77.8371 12.4465C78.1005 12.7609 78.251 13.1308 78.3074 13.5377L80.2449 13.4637C80.1696 12.539 79.831 11.7807 79.2103 11.1334C78.6084 10.4862 77.7243 10.1718 76.5768 10.1718C75.4858 10.1718 74.5641 10.5231 73.8305 11.2444C73.0781 11.9472 72.7207 12.8534 72.7207 14ZM88.5215 14C88.5215 12.8534 88.1453 11.9472 87.3928 11.2259C86.6404 10.5046 85.6999 10.1533 84.6277 10.1533C83.5367 10.1533 82.615 10.5046 81.8626 11.2259C81.1102 11.9472 80.734 12.8534 80.734 14C80.734 15.1467 81.1102 16.0529 81.8626 16.7741C82.615 17.4954 83.5555 17.8468 84.6277 17.8468C85.7187 17.8468 86.6404 17.4954 87.3928 16.7741C88.1453 16.0529 88.5215 15.1282 88.5215 14ZM86.4335 14C86.4335 15.2576 85.7187 16.0714 84.6277 16.0714C83.5367 16.0714 82.8031 15.2576 82.8031 14C82.8031 12.7424 83.5179 11.9287 84.6277 11.9287C85.7187 11.9102 86.4335 12.7424 86.4335 14ZM95.1051 10.3012H93.2805L92.039 14.9432H91.9826L90.7975 10.3012H88.766L90.7411 17.6988H92.8667L94.127 13.0198H94.1834L95.4437 17.6988H97.6069L99.582 10.3012H97.6257L96.4407 14.9432H96.3842L95.1051 10.3012ZM107.595 14C107.595 12.8534 107.219 11.9472 106.467 11.2259C105.714 10.5046 104.774 10.1533 103.701 10.1533C102.61 10.1533 101.689 10.5046 100.936 11.2259C100.184 11.9472 99.8077 12.8534 99.8077 14C99.8077 15.1467 100.184 16.0529 100.936 16.7741C101.689 17.4954 102.61 17.8468 103.701 17.8468C104.792 17.8468 105.714 17.4954 106.467 16.7741C107.2 16.0529 107.595 15.1282 107.595 14ZM105.507 14C105.507 15.2576 104.792 16.0714 103.683 16.0714C102.592 16.0714 101.858 15.2576 101.858 14C101.858 12.7424 102.573 11.9287 103.683 11.9287C104.792 11.9102 105.507 12.7424 105.507 14ZM110.398 13.7041V11.8917H111.846C112.712 11.8917 113.144 12.2061 113.144 12.8164C113.144 13.4822 112.712 13.7041 111.846 13.7041H110.398ZM115.232 17.6988C115.101 17.5694 115.025 17.3844 114.988 17.1625C114.95 16.9406 114.913 16.5522 114.837 15.9974C114.762 15.1467 114.292 14.7028 113.521 14.5548C114.423 14.4439 115.119 13.7411 115.119 12.65C115.119 11.2074 114.16 10.3012 112.204 10.3012H108.404V17.6988H110.398V15.2391H111.752C112.43 15.2391 112.806 15.4241 112.862 16.2748C112.919 17.033 113.013 17.4954 113.163 17.6988H115.232ZM123.208 17.6988L120.161 13.4452L123.057 10.3012H120.725L118.035 13.2972V10.3012H116.004V17.6988H118.035V15.4426L118.693 14.7398L120.781 17.6803H123.208V17.6988ZM123.659 17.6988H125.691V10.3012H123.659V17.6988ZM128.776 10.3012H126.838V17.6988H128.701V13.3157L131.955 17.6988H133.572V10.3012H131.71V14.4069L128.776 10.3012ZM138.049 17.8283C139.009 17.8283 139.818 17.5324 140.231 16.8666V17.6803H142V13.8521H138.426V15.2761H140.081C139.78 15.8494 139.14 16.1268 138.482 16.1268C137.184 16.1268 136.488 15.2576 136.488 13.9815C136.488 12.7239 137.146 11.9102 138.332 11.9102C139.291 11.9102 139.874 12.4465 139.987 13.2418L141.962 13.1678C141.811 11.3369 140.495 10.1348 138.294 10.1348C137.203 10.1348 136.281 10.4862 135.529 11.2074C134.776 11.9287 134.4 12.8349 134.4 13.9815C134.4 15.1282 134.739 16.0529 135.454 16.7556C136.149 17.4769 137.015 17.8283 138.049 17.8283Z" fill="white"/>
<path d="M76.5206 2.79326H76.577L77.4423 4.97556H75.6741L76.5206 2.79326ZM78.5897 7.89762H80.7529L77.762 0.5H75.486L72.4951 7.89762H74.5455L75.1098 6.47358H78.0442L78.5897 7.89762Z" fill="white"/>
<path d="M63.1661 0.5H62.3193V27.4643H63.1661V0.5Z" fill="white"/>
<path d="M14.2395 6.41744C10.2329 6.41744 7.61823 9.41347 7.61823 14C7.61823 18.5865 10.2329 21.5826 14.2395 21.5826C18.2461 21.5826 20.8608 18.5865 20.8608 14C20.842 9.41347 18.2273 6.41744 14.2395 6.41744ZM24.3219 24.0978C21.5756 26.7054 18.1897 28 14.2207 28C10.2517 28 6.86581 26.7239 4.11949 24.0978C1.39197 21.4901 0 18.1427 0 14C0 9.85733 1.39197 6.50991 4.1383 3.90225C6.88462 1.27609 10.2705 0 14.2395 0C18.2085 0 21.5944 1.27609 24.3407 3.90225C27.087 6.50991 28.479 9.85733 28.479 14C28.4602 18.1427 27.0682 21.4901 24.3219 24.0978Z" fill="white"/>
<path d="M53.0082 21.4918V27.4654H29.7773V21.9541L43.2644 6.51161H29.909V0.519531H52.6696V6.16022L39.0885 21.4918H53.0082Z" fill="white"/>
</svg>
