<svg width="1370" height="736" viewBox="0 0 1370 736" fill="none" xmlns="http://www.w3.org/2000/svg">
<g style="mix-blend-mode:overlay" opacity="0.4">
<path d="M368.024 168.687C264.471 168.687 196.895 247.44 196.895 368C196.895 488.56 264.471 567.313 368.024 567.313C471.576 567.313 539.152 488.56 539.152 368C538.666 247.44 471.09 168.687 368.024 168.687ZM628.606 633.427C557.626 701.971 470.117 736 367.537 736C264.957 736 177.449 702.457 106.469 633.427C35.9759 564.882 0 476.893 0 368C0 259.107 35.9759 171.118 106.955 102.573C177.935 33.5429 265.444 0 368.024 0C470.603 0 558.112 33.5429 629.092 102.573C700.071 171.118 736.047 259.107 736.047 368C735.561 476.893 699.585 564.882 628.606 633.427Z" fill="white"/>
<path d="M1370 564.882V721.902H769.59V577.035L1118.17 171.117H772.993V13.6113H1361.25V161.881L1010.24 564.882H1370Z" fill="white"/>
</g>
</svg>
