<svg width="24" height="24" viewBox="0 0 24 24" fill="none" xmlns="http://www.w3.org/2000/svg">
<path d="M4 10.1433C4 5.64588 7.58172 2 12 2C16.4183 2 20 5.64588 20 10.1433C20 14.6055 17.4467 19.8124 13.4629 21.6744C12.5343 22.1085 11.4657 22.1085 10.5371 21.6744C6.55332 19.8124 4 14.6055 4 10.1433Z" stroke="black" stroke-width="1.5"/>
<path d="M11.1459 8.02251C11.5259 7.34084 11.7159 7 12 7C12.2841 7 12.4741 7.34084 12.8541 8.02251L12.9524 8.19887C13.0603 8.39258 13.1143 8.48944 13.1985 8.55334C13.2827 8.61725 13.3875 8.64097 13.5972 8.68841L13.7881 8.73161C14.526 8.89857 14.895 8.98205 14.9828 9.26432C15.0706 9.54659 14.819 9.84072 14.316 10.429L14.1858 10.5812C14.0429 10.7483 13.9714 10.8319 13.9392 10.9353C13.9071 11.0387 13.9179 11.1502 13.9395 11.3733L13.9592 11.5763C14.0352 12.3612 14.0733 12.7536 13.8435 12.9281C13.6136 13.1025 13.2682 12.9435 12.5773 12.6254L12.3986 12.5431C12.2022 12.4527 12.1041 12.4075 12 12.4075C11.8959 12.4075 11.7978 12.4527 11.6014 12.5431L11.4227 12.6254C10.7318 12.9435 10.3864 13.1025 10.1565 12.9281C9.92674 12.7536 9.96476 12.3612 10.0408 11.5763L10.0605 11.3733C10.0821 11.1502 10.0929 11.0387 10.0608 10.9353C10.0286 10.8319 9.95713 10.7483 9.81418 10.5812L9.68403 10.429C9.18097 9.84072 8.92945 9.54659 9.01723 9.26432C9.10501 8.98205 9.47396 8.89857 10.2119 8.73161L10.4028 8.68841C10.6125 8.64097 10.7173 8.61725 10.8015 8.55334C10.8857 8.48944 10.9397 8.39258 11.0476 8.19887L11.1459 8.02251Z" stroke="#BDBDBD" stroke-width="1.5"/>
</svg>
