<svg width="115" height="154" viewBox="0 0 115 154" fill="none" xmlns="http://www.w3.org/2000/svg">
<g clip-path="url(#clip0_3385_22387)">
<path d="M174.401 84.9005C175.201 98.3005 171.301 109.301 166.001 120.001C165.501 121.101 164.801 122.101 164.501 123.201C162.401 130.701 157.001 135.701 151.101 140.101C143.801 145.501 135.601 148.6 126.601 150.4C117.501 152.201 108.401 153.6 99.1007 153.701C88.8007 153.701 78.9007 152.001 69.2007 148.801C63.8007 147.001 58.5007 145.201 53.1007 143.501C45.8007 141.201 39.9007 136.501 34.2007 131.801C24.0007 123.401 14.5007 114.201 9.00073 101.901C6.20073 95.7005 4.40073 88.9005 2.80073 82.3005C0.500726 73.7005 -0.399275 64.9005 0.100725 56.0005C0.700725 45.1005 4.70073 36.0005 12.8007 28.7005C23.5007 19.0005 35.3007 10.8005 48.8007 5.6005C64.8007 -0.499498 81.4007 -1.5995 98.2007 2.2005C101.301 2.9005 104.301 3.6005 107.401 4.2005C116.901 6.0005 125.201 10.3005 132.601 16.2005C143.601 24.8005 153.401 34.7005 161.801 45.8005C165.401 50.5005 168.201 55.8005 170.201 61.6005C173.001 69.5005 175.001 77.6005 174.401 84.9005ZM80.7007 139.701C86.2007 139.1 91.7007 138.8 97.2007 137.9C119.101 134.001 136.901 122.901 151.401 106.301C152.101 105.401 152.801 104.201 152.901 103.101C153.701 96.7005 153.501 90.3005 151.401 84.1005C146.601 70.0005 139.301 57.2005 131.301 44.8005C129.901 42.6005 128.101 40.3005 126.001 38.8005C118.201 33.5005 109.701 29.6005 100.701 26.6005C90.8007 23.3005 80.6007 22.2005 70.3007 21.7005C62.0007 21.4005 54.0007 22.1005 47.1007 27.2005C43.5007 29.9005 39.5007 32.1005 36.1007 34.9005C29.1007 40.8005 23.0007 47.5005 20.3007 56.7005C18.2007 63.9005 18.4007 71.3005 19.5007 78.5005C21.2007 89.7005 25.2007 100.101 30.0007 110.301C32.9007 116.301 36.7007 121.801 41.8007 125.901C53.1007 135.001 65.9007 140.201 80.7007 139.701ZM65.7007 140.501C65.6007 140.9 65.5007 141.201 65.4007 141.601C69.3007 142.601 73.1007 143.601 77.0007 144.501C85.5007 146.301 94.1007 147.401 102.801 146.301C108.101 145.601 113.301 144.201 118.501 142.801C129.501 139.701 138.301 133.201 144.901 124.001C147.501 120.401 149.301 116.301 150.101 111.801C136.801 124.201 122.001 133.8 104.601 138.9C106.801 138.9 108.801 138.4 110.801 138.001C112.701 137.601 114.501 137.3 116.401 136.9C99.9007 143.501 82.8007 142.9 65.7007 140.501ZM86.6007 4.8005C110.201 11.8005 128.201 26.6005 146.101 41.4005C140.301 31.1005 133.301 21.9005 123.601 15.1005C116.001 9.8005 108.001 5.7005 98.8007 4.4005C95.0007 3.9005 91.2007 3.4005 86.6007 4.8005ZM172.401 90.9005C173.401 74.1005 169.601 59.6005 160.101 46.9005C154.701 39.7005 148.001 33.3005 141.801 26.7005C139.401 24.2005 136.601 22.2005 134.001 19.9005C140.201 28.1005 146.501 36.0005 151.101 45.1005C153.101 49.0005 155.601 52.4005 158.401 55.7005C164.301 62.4005 168.601 70.0005 170.501 78.9005C171.301 82.6005 171.701 86.3005 172.401 90.9005ZM6.90073 91.9005C8.10073 88.2005 9.10073 85.0005 10.0007 81.7005C10.1007 81.2005 10.0007 80.5005 9.70073 80.0005C7.20073 75.3005 6.70073 70.0005 6.00073 64.8005C5.60073 61.5005 5.70073 58.0005 6.20073 54.6005C7.50072 45.6005 12.3007 38.2005 17.5007 31.0005C19.1007 28.8005 20.6007 26.5005 22.2007 24.2005C21.9007 24.0005 21.7007 23.8005 21.4007 23.5005C19.0007 25.5005 16.6007 27.4005 14.3007 29.5005C8.90073 34.6005 4.50073 40.5005 3.00073 48.0005C0.000725508 62.8005 2.50073 77.2005 6.90073 91.9005ZM49.7007 24.0005C44.8007 23.8005 40.2007 24.1005 37.0007 28.2005C36.6007 28.8005 35.8007 29.1005 35.3007 29.6005C29.0007 34.9005 23.4007 40.6005 19.7007 48.0005C17.2007 53.1005 14.6007 58.4005 14.6007 64.1005C14.6007 71.5005 15.4007 79.0005 16.2007 86.4005C16.7007 91.7005 19.6007 95.9005 23.1007 99.8005C22.4007 96.4005 21.5007 93.1005 20.4007 89.9005C17.3007 80.7005 16.4007 71.2005 17.4007 61.6005C17.8007 58.1005 19.0007 54.6005 20.5007 51.4005C24.9007 42.1005 32.6007 35.6005 40.8007 29.7005C43.6007 27.6005 46.7007 25.9005 49.7007 24.0005ZM76.6007 6.5005C82.0007 8.0005 87.2007 9.2005 92.3007 11.0005C103.601 14.9005 113.001 22.2005 122.901 28.5005C132.301 34.5005 139.901 42.6005 146.901 51.3005C148.801 53.6005 151.101 55.7005 153.801 58.4005C153.701 57.0005 153.701 56.6005 153.601 56.2005C152.501 51.4005 149.201 48.0005 145.801 44.9005C138.901 38.7005 131.901 32.7005 124.601 26.9005C114.501 18.9005 103.401 12.5005 91.1007 8.1005C87.9007 7.0005 84.5007 6.1005 81.2007 5.6005C79.7007 5.4005 78.1007 6.2005 76.6007 6.5005ZM157.101 58.3005C158.401 62.7005 158.901 66.5005 160.501 69.8005C163.301 75.9005 164.201 82.3005 164.401 89.0005C164.501 95.2005 166.301 101.101 167.501 108.101C172.001 95.0005 170.301 69.6005 157.101 58.3005ZM118.301 31.1005C105.401 17.2005 83.3007 14.2005 68.4007 19.5005C76.5007 20.7005 85.2007 21.3005 93.6007 23.3005C102.101 25.2005 110.201 28.5005 118.301 31.1005ZM116.101 148.301C117.301 148.201 117.901 148.301 118.501 148.201C129.201 146.6 138.701 142.101 147.701 136.301C151.301 134.001 154.401 130.901 157.501 127.801C158.801 126.501 160.101 124.701 159.901 122.201C146.201 132.9 131.001 139.701 116.101 148.301ZM82.1007 15.3005C81.1007 15.0005 80.1007 14.6005 79.2007 14.5005C74.0007 14.2005 68.8007 14.0005 63.6007 13.6005C56.0007 13.0005 51.0007 17.8005 45.4007 21.3005C45.5007 21.7005 45.6007 22.0005 45.8007 22.4005C57.8007 20.0005 69.8007 17.7005 82.1007 15.3005ZM163.801 101.401L162.601 101.101C158.301 113.101 151.701 123.501 141.701 131.601C148.701 128.101 155.301 124.101 160.501 118.301C161.501 117.201 162.501 115.601 162.701 114.101C163.301 110.001 163.501 105.701 163.801 101.401ZM28.6007 19.9005C32.3007 18.3005 35.9007 16.7005 39.6007 15.2005C41.4007 14.5005 43.3007 14.2005 45.1007 13.4005C51.7007 10.6005 58.4007 8.3005 65.7007 7.8005C67.9007 7.6005 70.2007 7.0005 72.7007 4.8005C55.5007 4.6005 40.7007 8.5005 28.6007 19.9005ZM155.701 96.2005C158.801 90.5005 159.401 86.0005 157.401 81.8005C153.401 73.4005 148.101 65.6005 142.401 58.2005C147.801 70.5005 154.701 82.3005 155.701 96.2005ZM13.8007 43.9005C6.30073 52.4005 5.80073 69.1005 11.4007 76.8005C12.2007 65.8005 13.0007 55.3005 13.8007 43.9005ZM14.5007 90.4005C15.8007 102.901 20.9007 113.701 28.0007 123.701C29.8007 126.201 34.4007 128.601 37.3007 128.501C26.9007 117.301 18.5007 105.101 14.5007 90.4005ZM62.9007 11.3005C75.4007 12.8005 86.7007 14.2005 98.5007 15.7005C89.2007 10.3005 79.6007 8.3005 69.4007 9.0005C67.5007 9.2005 65.6007 10.3005 62.9007 11.3005ZM34.9007 27.7005C34.6007 27.5005 34.4007 27.3005 34.1007 27.1005C32.6007 27.7005 31.1007 28.3005 29.6007 28.9005C25.4007 30.6005 22.1007 33.2005 20.4007 37.5005C18.4007 42.6005 16.5007 47.7005 14.6007 52.9005C14.6007 53.0005 14.9007 53.2005 15.4007 53.6005C19.3007 42.8005 26.3007 34.6005 34.9007 27.7005ZM136.701 45.8005C144.201 56.9005 151.101 67.2005 158.001 77.5005C153.801 65.4005 148.501 54.0005 136.701 45.8005ZM11.6007 84.5005C8.40073 89.4005 8.80073 93.7005 10.1007 98.1005C11.9007 104.201 15.1007 109.601 18.8007 114.701C19.1007 115.201 19.8007 115.401 20.3007 115.801C15.5007 106.101 12.3007 96.1005 11.6007 84.5005ZM150.101 118.901C150.401 119.101 150.801 119.301 151.101 119.501C153.301 115.501 155.901 111.601 157.701 107.401C159.401 103.501 160.401 99.2005 161.601 95.0005C162.001 93.5005 162.501 91.6005 160.501 90.2005C157.001 100.001 153.601 109.401 150.101 118.901ZM52.3007 14.3005C42.1007 15.1005 35.6007 20.5005 28.6007 26.7005C36.7007 25.0005 40.7007 22.9005 52.3007 14.3005ZM20.7007 32.6005L29.5007 23.1005C29.3007 22.9005 29.1007 22.7005 28.8007 22.5005C25.5007 25.3005 21.2007 27.3005 20.7007 32.6005ZM85.3007 2.1005H73.1007C77.1007 3.6005 81.1007 4.6005 85.3007 2.1005ZM48.3007 139.101C48.5007 138.801 48.6007 138.601 48.8007 138.301C46.5007 136.301 44.5007 133.701 39.8007 133.9C43.1007 136.001 45.7007 137.601 48.3007 139.101ZM111.301 147.301C111.201 147.001 111.101 146.701 111.001 146.4C107.501 147.1 104.001 147.8 100.601 148.4C100.701 148.701 100.701 149.001 100.801 149.301C104.301 148.701 107.801 148.001 111.301 147.301ZM25.3007 108.101C25.0007 108.401 24.8007 108.601 24.5007 108.901C26.7007 111.801 28.1007 115.3 31.8007 117.101C29.6007 114.101 27.4007 111.101 25.3007 108.101ZM132.701 40.3005L133.401 39.4005C131.701 38.0005 130.101 36.6005 128.401 35.2005C128.101 35.5005 127.901 35.9005 127.601 36.2005C129.301 37.5005 131.001 38.9005 132.701 40.3005ZM58.8007 11.4005C58.7007 11.1005 58.6007 10.9005 58.5007 10.6005C57.3007 11.0005 56.1007 11.5005 54.9007 11.9005C55.0007 12.2005 55.1007 12.4005 55.2007 12.7005C56.4007 12.3005 57.6007 11.8005 58.8007 11.4005ZM131.001 18.4005C131.101 18.2005 131.301 17.9005 131.401 17.7005C130.801 17.3005 130.301 17.0005 129.701 16.6005C129.601 16.7005 129.501 16.8005 129.501 17.0005C130.001 17.5005 130.501 17.9005 131.001 18.4005Z" fill="#D0DF00"/>
</g>
<defs>
<clipPath id="clip0_3385_22387">
<rect width="174.5" height="153.6" fill="white"/>
</clipPath>
</defs>
</svg>
