<svg width="21" height="36" viewBox="0 0 21 36" fill="none" xmlns="http://www.w3.org/2000/svg">
<path d="M16.8387 35.2876L0.532287 19.3298C0.338739 19.1398 0.20132 18.934 0.12003 18.7124C0.0387398 18.4908 -0.00126008 18.2533 3.02419e-05 18C3.02419e-05 17.7467 0.0406753 17.5092 0.121966 17.2876C0.203256 17.066 0.34003 16.8602 0.532287 16.6702L16.8387 0.664907C17.2903 0.221636 17.8548 0 18.5323 0C19.2097 0 19.7903 0.237467 20.2742 0.712401C20.7581 1.18734 21 1.74142 21 2.37467C21 3.00792 20.7581 3.56201 20.2742 4.03694L6.04841 18L20.2742 31.9631C20.7258 32.4063 20.9516 32.9528 20.9516 33.6025C20.9516 34.2522 20.7097 34.8139 20.2258 35.2876C19.7419 35.7625 19.1774 36 18.5323 36C17.8871 36 17.3226 35.7625 16.8387 35.2876Z" fill="black"/>
</svg>
