<svg width="24" height="24" viewBox="0 0 24 24" fill="none" xmlns="http://www.w3.org/2000/svg">
<g id="user">
<g id="Group 815722">
<path id="Vector" d="M4.27148 18.3437C4.27148 18.3437 6.5005 15.498 12.0005 15.498C17.5005 15.498 19.7296 18.3437 19.7296 18.3437" stroke="#BDBDBD" stroke-width="1.25" stroke-linecap="round" stroke-linejoin="round"/>
<path id="Vector_2" d="M11.998 1.99805C6.4752 1.99805 1.99805 6.4752 1.99805 11.998C1.99805 17.5208 6.4752 21.998 11.998 21.998C17.5208 21.998 21.998 17.5208 21.998 11.998C21.998 6.4752 17.5208 1.99805 11.998 1.99805Z" stroke="black" stroke-width="1.25" stroke-linecap="round" stroke-linejoin="round"/>
<path id="Vector_3" d="M12 12C13.6569 12 15 10.6569 15 9C15 7.34315 13.6569 6 12 6C10.3431 6 9 7.34315 9 9C9 10.6569 10.3431 12 12 12Z" stroke="#BDBDBD" stroke-width="1.25" stroke-linecap="round" stroke-linejoin="round"/>
</g>
</g>
</svg>
