<svg width="44" height="44" viewBox="0 0 44 44" fill="none" xmlns="http://www.w3.org/2000/svg">
<g id="Group 1000001239">
<path id="Vector" d="M38.6285 5.37152L40.0427 3.95731L40.0427 3.95731L38.6285 5.37152ZM38.6285 21.6507L40.0427 23.0649L40.0427 23.0649L38.6285 21.6507ZM22.3493 5.37152L23.7636 6.78573L22.3493 5.37152ZM18.9093 18.1139L17.4951 16.6997L17.4951 16.6997L18.9093 18.1139ZM12.7225 24.3007L14.1367 25.715L14.1367 25.715L12.7225 24.3007ZM19.6993 31.2775L18.285 29.8633L18.285 29.8633L19.6993 31.2775ZM21.7666 29.2102L23.1808 30.6244H23.1808L21.7666 29.2102ZM25.8865 25.0902L24.4723 23.676L24.4723 23.676L25.8865 25.0902ZM12.0151 26.3173L10.0273 26.5382L10.0273 26.5382L12.0151 26.3173ZM12.4019 29.7983L10.4141 30.0192L10.4141 30.0192L12.4019 29.7983ZM14.2017 31.5981L13.9808 33.5859L13.9808 33.5859L14.2017 31.5981ZM17.6827 31.9849L17.9035 29.9971L17.9035 29.9971L17.6827 31.9849ZM12.8735 30.7795L14.2877 29.3653L14.2877 29.3653L12.8735 30.7795ZM13.2205 31.1265L11.8063 32.5407L11.8063 32.5407L13.2205 31.1265ZM19.3405 16.3852L17.4034 16.8827V16.8827L19.3405 16.3852ZM27.6148 24.6595L27.1173 26.5966H27.1173L27.6148 24.6595ZM20.2579 24.905C19.4726 24.1283 18.2063 24.1352 17.4296 24.9206C16.6528 25.7059 16.6598 26.9722 17.4451 27.749L20.2579 24.905ZM37.2143 6.78573C40.9286 10.5 40.9286 16.5221 37.2143 20.2364L40.0427 23.0649C45.3191 17.7885 45.3191 9.23371 40.0427 3.95731L37.2143 6.78573ZM40.0427 3.95731C34.7663 -1.3191 26.2115 -1.3191 20.9351 3.95731L23.7636 6.78573C27.4779 3.07142 33.5 3.07142 37.2143 6.78573L40.0427 3.95731ZM17.4951 16.6997L11.3083 22.8865L14.1367 25.715L20.3235 19.5281L17.4951 16.6997ZM21.1135 32.6917L23.1808 30.6244L20.3524 27.796L18.285 29.8633L21.1135 32.6917ZM23.1808 30.6244L27.3008 26.5044L24.4723 23.676L20.3524 27.796L23.1808 30.6244ZM10.0273 26.5382L10.4141 30.0192L14.3896 29.5774L14.0029 26.0965L10.0273 26.5382ZM13.9808 33.5859L17.4618 33.9727L17.9035 29.9971L14.4226 29.6104L13.9808 33.5859ZM11.4592 32.1937L11.8063 32.5407L14.6347 29.7123L14.2877 29.3653L11.4592 32.1937ZM14.4226 29.6104C14.5028 29.6193 14.5776 29.6552 14.6347 29.7123L11.8063 32.5407C12.3914 33.1259 13.1583 33.4945 13.9808 33.5859L14.4226 29.6104ZM10.4141 30.0192C10.5055 30.8417 10.8741 31.6086 11.4593 32.1937L14.2877 29.3653C14.3448 29.4224 14.3807 29.4972 14.3896 29.5774L10.4141 30.0192ZM18.285 29.8633C18.1848 29.9635 18.0444 30.0128 17.9035 29.9971L17.4618 33.9727C18.8104 34.1225 20.154 33.6512 21.1135 32.6917L18.285 29.8633ZM11.3083 22.8865C10.3488 23.846 9.87749 25.1896 10.0273 26.5382L14.0029 26.0965C13.9872 25.9556 14.0365 25.8152 14.1367 25.715L11.3083 22.8865ZM21.2777 15.8877C20.4672 12.7318 21.299 9.2503 23.7636 6.78573L20.9351 3.95731C17.4299 7.46255 16.2558 12.4137 17.4034 16.8827L21.2777 15.8877ZM37.2143 20.2364C34.7497 22.701 31.2682 23.5328 28.1123 22.7223L27.1173 26.5966C31.5863 27.7442 36.5375 26.5701 40.0427 23.0649L37.2143 20.2364ZM27.3008 26.5044C27.2448 26.5604 27.1862 26.5847 27.1523 26.5928C27.1225 26.5999 27.1121 26.5953 27.1173 26.5966L28.1123 22.7223C26.9133 22.4144 25.4906 22.6577 24.4723 23.676L27.3008 26.5044ZM20.3235 19.5281C21.3413 18.5104 21.5858 17.0876 21.2777 15.8877L17.4034 16.8827C17.4046 16.8873 17.4001 16.8769 17.4071 16.8474C17.4151 16.8138 17.4393 16.7555 17.4951 16.6997L20.3235 19.5281ZM23.173 27.7882L20.2579 24.905L17.4451 27.749L20.3602 30.6321L23.173 27.7882Z" fill="white"/>
<path id="Vector_2" d="M29.3886 14.6101C28.8679 14.0894 28.8679 13.2452 29.3886 12.7245L26.5601 9.89608C24.4773 11.9789 24.4773 15.3558 26.5601 17.4386L29.3886 14.6101ZM31.2742 14.6101C30.7535 15.1308 29.9093 15.1308 29.3886 14.6101L26.5601 17.4386C28.6429 19.5213 32.0198 19.5213 34.1026 17.4386L31.2742 14.6101ZM31.2742 12.7245C31.7949 13.2452 31.7949 14.0894 31.2742 14.6101L34.1026 17.4386C36.1854 15.3558 36.1854 11.9789 34.1026 9.89608L31.2742 12.7245ZM34.1026 9.89608C32.0198 7.81329 28.6429 7.81329 26.5601 9.89608L29.3886 12.7245C29.9093 12.2038 30.7535 12.2038 31.2742 12.7245L34.1026 9.89608Z" fill="#BDBDBD"/>
<path id="Vector_3" d="M42 27.9859C41.8722 33.574 41.3384 36.838 39.1083 39.0681C36.1765 42 31.4577 42 22.0201 42C12.5825 42 7.86375 42 4.93188 39.0681C2 36.1362 2 31.4175 2 21.9799C2 12.5423 2 7.82355 4.93188 4.89167C7.16198 2.66156 10.426 2.12777 16.0141 2" stroke="#BDBDBD" stroke-width="4" stroke-linecap="round"/>
</g>
</svg>
