<svg width="32" height="32" viewBox="0 0 32 32" fill="none" xmlns="http://www.w3.org/2000/svg">
<path d="M10.7148 4V7.42857" stroke="#0C0507" stroke-width="1.5" stroke-miterlimit="10" stroke-linecap="round" stroke-linejoin="round"/>
<path d="M19.8574 4V7.42857" stroke="#0C0507" stroke-width="1.5" stroke-miterlimit="10" stroke-linecap="round" stroke-linejoin="round"/>
<path d="M5.57031 12.1035H24.9989" stroke="#BDBDBD" stroke-width="1.5" stroke-miterlimit="10" stroke-linecap="round" stroke-linejoin="round"/>
<path d="M22.1417 28.0003C24.6665 28.0003 26.7132 25.9536 26.7132 23.4289C26.7132 20.9041 24.6665 18.8574 22.1417 18.8574C19.617 18.8574 17.5703 20.9041 17.5703 23.4289C17.5703 25.9536 19.617 28.0003 22.1417 28.0003Z" stroke="#0C0507" stroke-width="1.5" stroke-miterlimit="10" stroke-linecap="round" stroke-linejoin="round"/>
<path d="M23.8471 23.4863H20.4414" stroke="#0C0507" stroke-miterlimit="10" stroke-linecap="round" stroke-linejoin="round"/>
<path d="M22.1445 21.8164V25.2335" stroke="#0C0507" stroke-miterlimit="10" stroke-linecap="round" stroke-linejoin="round"/>
<path d="M25.5714 11.4291V20.412C24.7371 19.4634 23.5143 18.8577 22.1429 18.8577C19.6171 18.8577 17.5714 20.9034 17.5714 23.4291C17.5714 24.2863 17.8114 25.0977 18.2343 25.7834C18.4743 26.1948 18.7829 26.5606 19.1371 26.8577H10.7143C6.71429 26.8577 5 24.572 5 21.1434V11.4291C5 8.00056 6.71429 5.71484 10.7143 5.71484H19.8571C23.8571 5.71484 25.5714 8.00056 25.5714 11.4291Z" stroke="#0C0507" stroke-width="1.5" stroke-miterlimit="10" stroke-linecap="round" stroke-linejoin="round"/>
<path d="M15.28 17.3703H15.2903" stroke="#BDBDBD" stroke-width="1.5" stroke-linecap="round" stroke-linejoin="round"/>
<path d="M11.0515 17.3703H11.0617" stroke="#BDBDBD" stroke-width="1.5" stroke-linecap="round" stroke-linejoin="round"/>
<path d="M11.0508 20.7988H11.061" stroke="#BDBDBD" stroke-width="1.5" stroke-linecap="round" stroke-linejoin="round"/>
</svg>
