<svg width="16" height="16" viewBox="0 0 16 16" fill="none" xmlns="http://www.w3.org/2000/svg">
<path d="M4.66602 2.66797V1.66797" stroke="#BDBDBD" stroke-linecap="round"/>
<path d="M11.334 2.66797V1.66797" stroke="#BDBDBD" stroke-linecap="round"/>
<path d="M1.33398 6H14.6673" stroke="#BDBDBD" stroke-linecap="round"/>
<path d="M1.33398 8.0013C1.33398 5.48714 1.33398 4.23007 2.11503 3.44902C2.89608 2.66797 4.15316 2.66797 6.66732 2.66797H9.33398C11.8481 2.66797 13.1052 2.66797 13.8863 3.44902C14.6673 4.23007 14.6673 5.48714 14.6673 8.0013V9.33464C14.6673 11.8488 14.6673 13.1059 13.8863 13.8869C13.1052 14.668 11.8481 14.668 9.33398 14.668H6.66732C4.15316 14.668 2.89608 14.668 2.11503 13.8869C1.33398 13.1059 1.33398 11.8488 1.33398 9.33464V8.0013Z" stroke="black"/>
<path d="M12.0007 10.6654L10.6673 10.6654M10.6673 10.6654L9.33398 10.6654M10.6673 10.6654L10.6673 9.33203M10.6673 10.6654L10.6673 11.9987" stroke="black" stroke-linecap="round"/>
</svg>
