<svg width="24" height="24" viewBox="0 0 24 24" fill="none" xmlns="http://www.w3.org/2000/svg">
<g id="Line Duotone / Time / Calendar Add">
<g id="Group 815723">
<path id="Vector" d="M7.00195 4.00195V2.50195" stroke="#BDBDBD" stroke-width="1.25" stroke-linecap="round"/>
<path id="Vector_2" d="M16.998 4.00195V2.50195" stroke="#BDBDBD" stroke-width="1.25" stroke-linecap="round"/>
<path id="Vector_3" d="M1.99805 9H21.998" stroke="#BDBDBD" stroke-width="1.25" stroke-linecap="round"/>
<path id="Vector_4" d="M1.99805 12.002C1.99805 8.23072 1.99805 6.3451 3.16962 5.17353C4.34119 4.00195 6.22681 4.00195 9.99805 4.00195H13.998C17.7693 4.00195 19.6549 4.00195 20.8265 5.17353C21.998 6.3451 21.998 8.23072 21.998 12.002V14.002C21.998 17.7732 21.998 19.6588 20.8265 20.8304C19.6549 22.002 17.7693 22.002 13.998 22.002H9.99805C6.22681 22.002 4.34119 22.002 3.16962 20.8304C1.99805 19.6588 1.99805 17.7732 1.99805 14.002V12.002Z" stroke="black" stroke-width="1.25"/>
<path id="Vector_5" d="M17.998 15.9981L15.998 15.9981M15.998 15.9981L13.998 15.9981M15.998 15.9981L15.998 13.998M15.998 15.9981L15.998 17.998" stroke="black" stroke-width="1.25" stroke-linecap="round"/>
</g>
</g>
</svg>
