<svg width="88" height="88" viewBox="0 0 88 88" fill="none" xmlns="http://www.w3.org/2000/svg">
<g id="Line Duotone / Time / Calendar">
<g id="Group 37058">
<path id="Vector" d="M24 43.4803C24 35.7427 24 31.8739 26.3434 29.4702C28.6869 27.0664 32.4585 27.0664 40.0019 27.0664H48.0029C55.5463 27.0664 59.318 27.0664 61.6614 29.4702C64.0048 31.8739 64.0048 35.7427 64.0048 43.4803V47.5838C64.0048 55.3214 64.0048 59.1902 61.6614 61.594C59.318 63.9978 55.5463 63.9978 48.0029 63.9978H40.0019C32.4585 63.9978 28.6869 63.9978 26.3434 61.594C24 59.1902 24 55.3214 24 47.5838V43.4803Z" stroke="white" stroke-width="2"/>
<path id="Vector_2" opacity="0.5" d="M34.002 27.0776V24" stroke="white" stroke-width="2" stroke-linecap="round"/>
<path id="Vector_3" opacity="0.5" d="M54.0078 27.0776V24" stroke="white" stroke-width="2" stroke-linecap="round"/>
<path id="Vector_4" opacity="0.5" d="M25.002 37.3242H63.0065" stroke="white" stroke-width="2" stroke-linecap="round"/>
<g id="Vector_5">
<path d="M56.0044 53.747C56.0044 54.8801 55.1088 55.7987 54.0041 55.7987C52.8994 55.7987 52.0039 54.8801 52.0039 53.747C52.0039 52.6138 52.8994 51.6953 54.0041 51.6953C55.1088 51.6953 56.0044 52.6138 56.0044 53.747Z" fill="white"/>
<path d="M56.0044 45.54C56.0044 46.6732 55.1088 47.5918 54.0041 47.5918C52.8994 47.5918 52.0039 46.6732 52.0039 45.54C52.0039 44.4069 52.8994 43.4883 54.0041 43.4883C55.1088 43.4883 56.0044 44.4069 56.0044 45.54Z" fill="white"/>
</g>
<g id="Vector_6">
<path d="M46.0024 53.747C46.0024 54.8801 45.1069 55.7987 44.0022 55.7987C42.8975 55.7987 42.002 54.8801 42.002 53.747C42.002 52.6138 42.8975 51.6953 44.0022 51.6953C45.1069 51.6953 46.0024 52.6138 46.0024 53.747Z" fill="white"/>
<path d="M46.0024 45.54C46.0024 46.6732 45.1069 47.5918 44.0022 47.5918C42.8975 47.5918 42.002 46.6732 42.002 45.54C42.002 44.4069 42.8975 43.4883 44.0022 43.4883C45.1069 43.4883 46.0024 44.4069 46.0024 45.54Z" fill="white"/>
</g>
<g id="Vector_7">
<path d="M36.0044 53.747C36.0044 54.8801 35.1088 55.7987 34.0041 55.7987C32.8994 55.7987 32.0039 54.8801 32.0039 53.747C32.0039 52.6138 32.8994 51.6953 34.0041 51.6953C35.1088 51.6953 36.0044 52.6138 36.0044 53.747Z" fill="white"/>
<path d="M36.0044 45.54C36.0044 46.6732 35.1088 47.5918 34.0041 47.5918C32.8994 47.5918 32.0039 46.6732 32.0039 45.54C32.0039 44.4069 32.8994 43.4883 34.0041 43.4883C35.1088 43.4883 36.0044 44.4069 36.0044 45.54Z" fill="white"/>
</g>
</g>
</g>
</svg>
