<svg width="24" height="32" viewBox="0 0 24 32" fill="none" xmlns="http://www.w3.org/2000/svg">
<path d="M19.5 23.5H4.5C4.10218 23.5 3.72064 23.342 3.43934 23.0607C3.15804 22.7794 3 22.3978 3 22V11.5C3 11.1022 3.15804 10.7206 3.43934 10.4393C3.72064 10.158 4.10218 10 4.5 10H7.5L9 7.75H15L16.5 10H19.5C19.8978 10 20.2794 10.158 20.5607 10.4393C20.842 10.7206 21 11.1022 21 11.5V22C21 22.3978 20.842 22.7794 20.5607 23.0607C20.2794 23.342 19.8978 23.5 19.5 23.5Z" stroke="black" stroke-width="1.5" stroke-linecap="round" stroke-linejoin="round"/>
<path d="M12 19.75C13.864 19.75 15.375 18.239 15.375 16.375C15.375 14.511 13.864 13 12 13C10.136 13 8.625 14.511 8.625 16.375C8.625 18.239 10.136 19.75 12 19.75Z" stroke="#BDBDBD" stroke-width="1.5" stroke-linecap="round" stroke-linejoin="round"/>
</svg>
