<svg width="48" height="48" viewBox="0 0 48 48" fill="none" xmlns="http://www.w3.org/2000/svg">
<path d="M21.8182 18.375C20.0073 18.375 18.5455 19.8825 18.5455 21.75C18.5455 23.6175 20.0073 25.125 21.8182 25.125C23.6291 25.125 25.0909 23.6175 25.0909 21.75C25.0909 19.8825 23.6291 18.375 21.8182 18.375Z" fill="black"/>
<path fill-rule="evenodd" clip-rule="evenodd" d="M36 18.375V30.75C36 31.9875 35.0182 33 33.8182 33H15.2727V30.75H33.8182V18.375H36Z" fill="#BDBDBD"/>
<path fill-rule="evenodd" clip-rule="evenodd" d="M31.6364 26.25V17.25C31.6364 16.0125 30.6545 15 29.4545 15H14.1818C12.9818 15 12 16.0125 12 17.25V26.25C12 27.4875 12.9818 28.5 14.1818 28.5H29.4545C30.6545 28.5 31.6364 27.4875 31.6364 26.25ZM14.1818 26.25H29.4545V17.25H14.1818V26.25Z" fill="black"/>
</svg>
