<svg width="25" height="24" viewBox="0 0 25 24" fill="none" xmlns="http://www.w3.org/2000/svg">
<mask id="mask0_5208_8331" style="mask-type:alpha" maskUnits="userSpaceOnUse" x="2" y="2" width="21" height="20">
<path d="M12.8171 2C10.809 2 8.84605 2.58649 7.17639 3.6853C5.50673 4.78412 4.20538 6.3459 3.43692 8.17316C2.66846 10.0004 2.4674 12.0111 2.85916 13.9509C3.25091 15.8907 4.2179 17.6725 5.63783 19.0711C7.05776 20.4696 8.86686 21.422 10.8364 21.8078C12.8059 22.1937 14.8473 21.9957 16.7025 21.2388C18.5578 20.4819 20.1435 19.2002 21.2591 17.5557C22.3747 15.9112 22.9702 13.9778 22.9702 12C22.9671 9.34878 21.8964 6.80704 19.993 4.93234C18.0896 3.05765 15.5089 2.00309 12.8171 2V2ZM18.678 8.83333L12.8865 16.5742C12.8181 16.6635 12.7324 16.7386 12.6342 16.7949C12.5361 16.8513 12.4275 16.8878 12.3149 16.9024C12.2023 16.917 12.0878 16.9093 11.9782 16.8799C11.8686 16.8504 11.7661 16.7997 11.6766 16.7308L7.54092 13.4742C7.45414 13.4058 7.38189 13.3212 7.3283 13.2253C7.2747 13.1294 7.24081 13.0241 7.22855 12.9153C7.2038 12.6955 7.26868 12.4751 7.40893 12.3025C7.54918 12.1299 7.7533 12.0192 7.97639 11.9948C8.08686 11.9828 8.19866 11.9922 8.3054 12.0227C8.41215 12.0532 8.51175 12.1041 8.59853 12.1725L12.0472 14.89L17.3158 7.8475C17.3792 7.75376 17.4613 7.67365 17.557 7.61203C17.6528 7.5504 17.7602 7.50854 17.8728 7.48897C17.9855 7.46939 18.101 7.47251 18.2123 7.49814C18.3237 7.52377 18.4287 7.57138 18.5208 7.63808C18.613 7.70479 18.6905 7.7892 18.7486 7.88623C18.8067 7.98326 18.8442 8.09089 18.8589 8.20261C18.8736 8.31433 18.8652 8.42782 18.8341 8.53623C18.803 8.64464 18.7499 8.74571 18.678 8.83333Z" fill="#050000"/>
</mask>
<g mask="url(#mask0_5208_8331)">
<rect x="0.632812" width="24.3673" height="24" fill="#05B15D"/>
</g>
</svg>
