<svg width="44" height="39" viewBox="0 0 44 39" fill="none" xmlns="http://www.w3.org/2000/svg">
<g id="Group 815389">
<circle id="Vector" cx="22.0013" cy="9.27281" r="7.27281" stroke="white" stroke-width="3.5"/>
<path id="Vector_2" d="M32.9102 14.7277C35.9227 14.7277 38.3648 12.6926 38.3648 10.1822C38.3648 7.67181 35.9227 5.63672 32.9102 5.63672" stroke="#BDBDBD" stroke-width="3.5" stroke-linecap="round"/>
<path id="Vector_3" d="M11.0918 14.7277C8.0793 14.7277 5.63719 12.6926 5.63719 10.1822C5.63719 7.67181 8.0793 5.63672 11.0918 5.63672" stroke="#BDBDBD" stroke-width="3.5" stroke-linecap="round"/>
<ellipse id="Vector_4" cx="22.001" cy="29.2728" rx="10.9092" ry="7.27281" stroke="white" stroke-width="3.5"/>
<path id="Vector_5" d="M36.5449 32.9113C39.7345 32.2119 41.9995 30.4405 41.9995 28.3658C41.9995 26.2911 39.7345 24.5198 36.5449 23.8203" stroke="#BDBDBD" stroke-width="3.5" stroke-linecap="round"/>
<path id="Vector_6" d="M7.45508 32.9113C4.2655 32.2119 2.00047 30.4405 2.00047 28.3658C2.00047 26.2911 4.2655 24.5198 7.45508 23.8203" stroke="#BDBDBD" stroke-width="3.5" stroke-linecap="round"/>
</g>
</svg>
