<svg width="48" height="48" viewBox="0 0 48 48" fill="none" xmlns="http://www.w3.org/2000/svg">
<path d="M18 17L21.7355 14.5231C22.7874 13.8256 24.2126 13.8256 25.2645 14.5231L29 17" stroke="#BDBDBD" stroke-width="1.5" stroke-linecap="round"/>
<path d="M18 21H22" stroke="#BDBDBD" stroke-width="1.5" stroke-linecap="round" stroke-linejoin="round"/>
<path d="M32.8333 22H30.2308C28.4465 22 27 23.3431 27 25C27 26.6569 28.4465 28 30.2308 28H32.8333C32.9167 28 32.9583 28 32.9935 27.9979C33.5328 27.965 33.9623 27.5662 33.9977 27.0654C34 27.0327 34 26.994 34 26.9167V23.0833C34 23.006 34 22.9673 33.9977 22.9346C33.9623 22.4338 33.5328 22.035 32.9935 22.0021C32.9583 22 32.9167 22 32.8333 22Z" stroke="black" stroke-width="1.5"/>
<path d="M32.965 22C32.8873 20.1277 32.6366 18.9797 31.8284 18.1716C30.6569 17 28.7712 17 25 17H22C18.2288 17 16.3431 17 15.1716 18.1716C14 19.3431 14 21.2288 14 25C14 28.7712 14 30.6569 15.1716 31.8284C16.3431 33 18.2288 33 22 33H25C28.7712 33 30.6569 33 31.8284 31.8284C32.6366 31.0203 32.8873 29.8723 32.965 28" stroke="black" stroke-width="1.5"/>
<path d="M29.9903 25H29.9993" stroke="#BDBDBD" stroke-width="2" stroke-linecap="round" stroke-linejoin="round"/>
</svg>
