<svg width="32" height="32" viewBox="0 0 32 32" fill="none" xmlns="http://www.w3.org/2000/svg">
<path d="M11 4V7.60001" stroke="#0C0507" stroke-width="1.5" stroke-miterlimit="10" stroke-linecap="round" stroke-linejoin="round"/>
<path d="M20.5996 4V7.60001" stroke="#0C0507" stroke-width="1.5" stroke-miterlimit="10" stroke-linecap="round" stroke-linejoin="round"/>
<path opacity="0.4" d="M5.59961 12.5078H25.9997" stroke="#0C0507" stroke-width="1.5" stroke-miterlimit="10" stroke-linecap="round" stroke-linejoin="round"/>
<path d="M26.6001 11.7998V21.9999C26.6001 25.5999 24.8001 27.9999 20.6001 27.9999H11C6.80001 27.9999 5 25.5999 5 21.9999V11.7998C5 8.19981 6.80001 5.7998 11 5.7998H20.6001C24.8001 5.7998 26.6001 8.19981 26.6001 11.7998Z" stroke="#0C0507" stroke-width="1.5" stroke-miterlimit="10" stroke-linecap="round" stroke-linejoin="round"/>
<path opacity="0.4" d="M19.3772 18.72C19.3489 18.6296 19.2969 18.5493 19.2269 18.488C19.157 18.4267 19.0719 18.387 18.9814 18.3733L17.1011 18.0895L16.2586 16.286C16.2184 16.2 16.1558 16.1275 16.0777 16.0767C15.9997 16.0259 15.9095 15.999 15.8175 15.999C15.7254 15.999 15.6353 16.0259 15.5572 16.0767C15.4792 16.1275 15.4165 16.2 15.3764 16.286L14.5342 18.0888L12.622 18.3732C12.5309 18.3867 12.4453 18.4266 12.375 18.4883C12.3048 18.55 12.2526 18.631 12.2245 18.7221C12.1965 18.8131 12.1936 18.9105 12.2163 19.0031C12.239 19.0958 12.2864 19.1799 12.3529 19.2459L13.7407 20.6223L13.3908 22.5973C13.3742 22.691 13.3833 22.7877 13.4169 22.8763C13.4505 22.965 13.5074 23.042 13.5811 23.0988C13.6548 23.1555 13.7423 23.1896 13.8337 23.1973C13.9251 23.205 14.0167 23.1859 14.0982 23.1421L15.8156 22.2198L17.5011 23.1405C17.582 23.1847 17.6732 23.2045 17.7644 23.1978C17.8555 23.191 17.9431 23.1579 18.0171 23.1021C18.0911 23.0464 18.1486 22.9703 18.1832 22.8824C18.2178 22.7945 18.228 22.6983 18.2128 22.6047L17.8905 20.6223L19.2531 19.2423C19.3187 19.1759 19.365 19.0918 19.3869 18.9995C19.4088 18.9073 19.4055 18.8104 19.3772 18.72ZM17.022 20.079C16.9652 20.1365 16.9227 20.2075 16.8981 20.2858C16.8735 20.3641 16.8675 20.4475 16.8807 20.5287L17.0809 21.7599L16.0457 21.1944C15.9759 21.1563 15.8982 21.1362 15.8193 21.1359C15.7403 21.1356 15.6625 21.1551 15.5924 21.1928L14.5363 21.76L14.7531 20.5361C14.7678 20.4529 14.7624 20.3673 14.7373 20.2869C14.7122 20.2064 14.6683 20.1338 14.6094 20.0754L13.7602 19.2332L14.9311 19.059C15.0105 19.0472 15.0859 19.0153 15.1507 18.9662C15.2155 18.9171 15.2677 18.8522 15.3027 18.7772L15.8175 17.6752L16.3323 18.7772C16.3673 18.852 16.4193 18.9168 16.4839 18.9659C16.5485 19.015 16.6237 19.0469 16.7029 19.0589L17.8572 19.2331L17.022 20.079Z" fill="black"/>
</svg>
