<svg width="44" height="43" viewBox="0 0 44 43" fill="none" xmlns="http://www.w3.org/2000/svg">
<g id="Group 815390">
<path id="Vector" d="M12 5V2" stroke="#BDBDBD" stroke-width="3.5" stroke-linecap="round"/>
<path id="Vector_2" d="M32 5V2" stroke="#BDBDBD" stroke-width="3.5" stroke-linecap="round"/>
<path id="Vector_3" d="M2 15H42" stroke="#BDBDBD" stroke-width="3.5" stroke-linecap="round"/>
<path id="Vector_4" d="M2 21C2 13.4575 2 9.68629 4.34315 7.34315C6.68629 5 10.4575 5 18 5H26C33.5425 5 37.3137 5 39.6569 7.34315C42 9.68629 42 13.4575 42 21V25C42 32.5425 42 36.3137 39.6569 38.6569C37.3137 41 33.5425 41 26 41H18C10.4575 41 6.68629 41 4.34315 38.6569C2 36.3137 2 32.5425 2 25V21Z" stroke="white" stroke-width="3.5"/>
<path id="Vector_5" d="M34 29L30 29M30 29L26 29M30 29L30 25M30 29L30 33" stroke="white" stroke-width="3.5" stroke-linecap="round"/>
</g>
</svg>
