<svg width="25" height="40" viewBox="0 0 25 40" fill="none" xmlns="http://www.w3.org/2000/svg">
<g id="Vector">
<path fill-rule="evenodd" clip-rule="evenodd" d="M12.1289 0.371094C11.8815 0.123698 11.5885 0 11.25 0C10.9115 0 10.6185 0.123698 10.3711 0.371094C10.1237 0.61849 10 0.911458 10 1.25V15C10.013 15.3385 9.94792 15.6641 9.80469 15.9766C9.66146 16.2891 9.47917 16.556 9.25781 16.7773C9.03646 16.9987 8.77604 17.1745 8.47656 17.3047C8.17708 17.4349 7.85156 17.5 7.5 17.5V1.25C7.5 0.911458 7.3763 0.61849 7.12891 0.371094C6.88151 0.123698 6.58854 0 6.25 0C5.91146 0 5.61849 0.123698 5.37109 0.371094C5.1237 0.61849 5 0.911458 5 1.25V17.5C4.66146 17.513 4.33594 17.4479 4.02344 17.3047C3.71094 17.1615 3.44401 16.9792 3.22266 16.7578C3.0013 16.5365 2.82552 16.276 2.69531 15.9766C2.5651 15.6771 2.5 15.3516 2.5 15V1.25C2.5 0.911458 2.3763 0.61849 2.12891 0.371094C1.88151 0.123698 1.58854 0 1.25 0C0.911458 0 0.61849 0.123698 0.371094 0.371094C0.123698 0.61849 0 0.911458 0 1.25V15C0.0130208 15.7031 0.14974 16.3542 0.410156 16.9531C0.670573 17.5521 1.02865 18.0794 1.48438 18.5352C1.9401 18.9909 2.46745 19.349 3.06641 19.6094C3.66536 19.8698 4.3099 20 5 20V38.75C5 39.0885 5.1237 39.3815 5.37109 39.6289C5.61849 39.8763 5.91146 40 6.25 40C6.58854 40 6.88151 39.8763 7.12891 39.6289C7.3763 39.3815 7.5 39.0885 7.5 38.75V20C8.17708 19.987 8.82162 19.8503 9.43359 19.5898C10.0456 19.3294 10.5794 18.9714 11.0352 18.5156C11.4909 18.0599 11.849 17.5326 12.1094 16.9336C12.3698 16.3346 12.5 15.6901 12.5 15V1.25C12.5 0.911458 12.3763 0.61849 12.1289 0.371094Z" fill="white"/>
<path fill-rule="evenodd" clip-rule="evenodd" d="M25 0V38.75C25 39.0885 24.8763 39.3815 24.6289 39.6289C24.3815 39.8763 24.0885 40 23.75 40C23.4115 40 23.1185 39.8763 22.8711 39.6289C22.6237 39.3815 22.5 39.0885 22.5 38.75V27.5C22.0182 27.5 21.4974 27.5065 20.9375 27.5195C20.3776 27.5326 19.8242 27.526 19.2773 27.5C18.7305 27.474 18.1966 27.3958 17.6758 27.2656C17.1549 27.1354 16.6992 26.9336 16.3086 26.6602C15.918 26.3867 15.599 26.0156 15.3516 25.5469C15.1042 25.0781 14.987 24.4792 15 23.75V8.75C15 7.53906 15.2279 6.40625 15.6836 5.35156C16.1393 4.29688 16.7643 3.3724 17.5586 2.57812C18.3529 1.78385 19.2773 1.15885 20.332 0.703125C21.3867 0.247396 22.526 0.0130208 23.75 0H25ZM20.5078 3.39844C21.1068 3.02083 21.7708 2.76042 22.5 2.61719V25H18.75C18.4115 25 18.1185 24.8763 17.8711 24.6289C17.6237 24.3815 17.5 24.0885 17.5 23.75V8.75C17.5 7.98177 17.6237 7.27214 17.8711 6.62109C18.1185 5.97005 18.4701 5.36458 18.9258 4.80469C19.3815 4.24479 19.9089 3.77604 20.5078 3.39844Z" fill="#BDBDBD"/>
</g>
</svg>
