<svg width="72" height="72" viewBox="0 0 72 72" fill="none" xmlns="http://www.w3.org/2000/svg">
<rect width="72" height="72" fill="black"/>
<g clip-path="url(#clip0_5471_14148)">
<path d="M44.75 33.5L53.5 28.5V43.5L44.75 38.5" stroke="#BDBDBD" stroke-width="3" stroke-linecap="round" stroke-linejoin="round"/>
<path d="M19.75 25.375H39.75C41.0761 25.375 42.3479 25.9018 43.2855 26.8395C44.2232 27.7771 44.75 29.0489 44.75 30.375V45.375C44.75 45.7065 44.6183 46.0245 44.3839 46.2589C44.1495 46.4933 43.8315 46.625 43.5 46.625H23.5C22.1739 46.625 20.9021 46.0982 19.9645 45.1605C19.0268 44.2229 18.5 42.9511 18.5 41.625V26.625C18.5 26.2935 18.6317 25.9755 18.8661 25.7411C19.1005 25.5067 19.4185 25.375 19.75 25.375V25.375Z" stroke="white" stroke-width="3" stroke-linecap="round" stroke-linejoin="round"/>
</g>
<defs>
<clipPath id="clip0_5471_14148">
<rect width="40" height="40" fill="white" transform="translate(16 16)"/>
</clipPath>
</defs>
</svg>
