<svg width="72" height="72" viewBox="0 0 72 72" fill="none" xmlns="http://www.w3.org/2000/svg">
<rect width="72" height="72" fill="black"/>
<path d="M29.75 41C34.2373 41 37.875 37.3623 37.875 32.875C37.875 28.3877 34.2373 24.75 29.75 24.75C25.2627 24.75 21.625 28.3877 21.625 32.875C21.625 37.3623 25.2627 41 29.75 41Z" stroke="white" stroke-width="3" stroke-miterlimit="10"/>
<path d="M40.2812 25.0469C40.9995 24.8521 41.7402 24.7523 42.4844 24.75C44.6393 24.75 46.7059 25.606 48.2296 27.1298C49.7533 28.6535 50.6094 30.7201 50.6094 32.875C50.6094 35.0299 49.7533 37.0965 48.2296 38.6202C46.7059 40.144 44.6393 41 42.4844 41" stroke="#BDBDBD" stroke-width="3" stroke-linecap="round" stroke-linejoin="round"/>
<path d="M18.5 46.8443C19.7687 45.039 21.4532 43.5655 23.4113 42.5482C25.3693 41.531 27.5435 41 29.75 41C31.9565 41 34.1307 41.531 36.0887 42.5482C38.0468 43.5655 39.7313 45.039 41 46.8443" stroke="white" stroke-width="3" stroke-linecap="round" stroke-linejoin="round"/>
<path d="M42.4844 41C44.6911 40.9986 46.8657 41.529 48.8239 42.5462C50.7822 43.5635 52.4666 45.0376 53.7344 46.8438" stroke="#BDBDBD" stroke-width="3" stroke-linecap="round" stroke-linejoin="round"/>
</svg>
