<svg width="72" height="72" viewBox="0 0 72 72" fill="none" xmlns="http://www.w3.org/2000/svg">
<rect width="72" height="72" fill="black"/>
<g clip-path="url(#clip0_5471_14157)">
<path d="M36 44.125C39.4518 44.125 42.25 41.3268 42.25 37.875C42.25 34.4232 39.4518 31.625 36 31.625C32.5482 31.625 29.75 34.4232 29.75 37.875C29.75 41.3268 32.5482 44.125 36 44.125Z" stroke="white" stroke-width="3" stroke-linecap="round" stroke-linejoin="round"/>
<path d="M46.625 34.125C48.0809 34.1226 49.5171 34.4604 50.8193 35.1114C52.1214 35.7625 53.2534 36.7089 54.125 37.875" stroke="#BDBDBD" stroke-width="3" stroke-linecap="round" stroke-linejoin="round"/>
<path d="M17.875 37.875C18.7466 36.7089 19.8786 35.7625 21.1807 35.1114C22.4829 34.4604 23.9191 34.1226 25.375 34.125" stroke="#BDBDBD" stroke-width="3" stroke-linecap="round" stroke-linejoin="round"/>
<path d="M27 49.7499C27.8232 48.0641 29.1033 46.6434 30.6944 45.6496C32.2856 44.6558 34.124 44.1289 36 44.1289C37.876 44.1289 39.7144 44.6558 41.3056 45.6496C42.8968 46.6434 44.1768 48.0641 45 49.7499" stroke="white" stroke-width="3" stroke-linecap="round" stroke-linejoin="round"/>
<path d="M25.3742 34.125C24.4252 34.126 23.4955 33.8568 22.6938 33.3491C21.8921 32.8413 21.2514 32.1158 20.8467 31.2575C20.442 30.3991 20.2898 29.4433 20.4081 28.5017C20.5264 27.5601 20.9103 26.6716 21.5148 25.9401C22.1193 25.2085 22.9195 24.6641 23.8219 24.3704C24.7243 24.0768 25.6917 24.046 26.6109 24.2817C27.5302 24.5173 28.3634 25.0098 29.0132 25.7014C29.663 26.3931 30.1025 27.2553 30.2805 28.1875" stroke="#BDBDBD" stroke-width="3" stroke-linecap="round" stroke-linejoin="round"/>
<path d="M41.7188 28.1875C41.8967 27.2553 42.3362 26.3931 42.986 25.7014C43.6358 25.0098 44.469 24.5173 45.3883 24.2817C46.3076 24.046 47.2749 24.0768 48.1773 24.3704C49.0797 24.6641 49.88 25.2085 50.4844 25.9401C51.0889 26.6716 51.4728 27.5601 51.5911 28.5017C51.7094 29.4433 51.5573 30.3991 51.1525 31.2575C50.7478 32.1158 50.1071 32.8413 49.3054 33.3491C48.5037 33.8568 47.574 34.126 46.625 34.125" stroke="#BDBDBD" stroke-width="3" stroke-linecap="round" stroke-linejoin="round"/>
</g>
<defs>
<clipPath id="clip0_5471_14157">
<rect width="40" height="40" fill="white" transform="translate(16 16)"/>
</clipPath>
</defs>
</svg>
