<svg width="48" height="48" viewBox="0 0 48 48" fill="none" xmlns="http://www.w3.org/2000/svg">
<path d="M24.2449 16.64C26.5442 16.64 28.0953 17.6133 28.9796 18.4267L32.4354 15.12C30.3129 13.1867 27.551 12 24.2449 12C19.4558 12 15.3198 14.6933 13.3062 18.6133L17.2653 21.6267C18.2585 18.7333 21.0068 16.64 24.2449 16.64Z" fill="black"/>
<path d="M36 24.2667C36 23.28 35.9184 22.56 35.7415 21.8133H24.2449V26.2667H30.9932C30.8571 27.3734 30.1225 29.04 28.4898 30.16L32.3537 33.0934C34.6667 31 36 27.92 36 24.2667Z" fill="black"/>
<path d="M17.2789 26.3733C17.0204 25.6267 16.8707 24.8267 16.8707 24C16.8707 23.1733 17.0204 22.3734 17.2653 21.6267L13.3062 18.6133C12.4762 20.24 12 22.0667 12 24C12 25.9333 12.4762 27.76 13.3061 29.3867L17.2789 26.3733Z" fill="black"/>
<path d="M24.2449 36C27.551 36 30.3265 34.9334 32.3537 33.0934L28.4898 30.16C27.4558 30.8667 26.068 31.36 24.2449 31.36C21.0068 31.36 18.2585 29.2667 17.2789 26.3733L13.3197 29.3867C15.3333 33.3067 19.4558 36 24.2449 36Z" fill="black"/>
</svg>
