<svg width="44" height="44" viewBox="0 0 44 44" fill="none" xmlns="http://www.w3.org/2000/svg">
<g id="Group 815384">
<path id="Vector" d="M22.7328 30.075L30.0742 22.7335M13.9231 21.2653L21.2645 13.9238" stroke="#BDBDBD" stroke-width="3.5" stroke-linecap="round"/>
<path id="Vector_2" d="M5.84885 35.2146L7.08629 33.9771L5.84885 35.2146ZM8.78542 38.1511L7.54798 39.3886V39.3886L8.78542 38.1511ZM16.1269 38.1511L14.8894 39.3886L16.1269 38.1511ZM17.5951 39.6194L18.8326 38.382L17.5951 39.6194ZM27.211 36.7549L25.5206 36.3019L25.5206 36.3019L27.211 36.7549ZM24.9366 32.278L23.6991 33.5154H23.6991L24.9366 32.278ZM27.211 35.1426L25.5206 35.5955V35.5955L27.211 35.1426ZM22.072 41.8939L21.6191 40.2035L21.6191 40.2035L22.072 41.8939ZM20.4597 41.8939L20.9126 40.2035V40.2035L20.4597 41.8939ZM2.10613 21.928L3.7965 22.3809V22.3809L2.10613 21.928ZM4.38056 26.4049L3.14312 27.6423L4.38056 26.4049ZM2.10613 23.5403L0.41576 23.9932H0.415756L2.10613 23.5403ZM7.24513 16.789L7.69807 18.4794L7.24513 16.789ZM11.722 19.0634L10.4846 20.3009V20.3009L11.722 19.0634ZM8.85743 16.789L9.31036 15.0986H9.31036L8.85743 16.789ZM36.7549 27.211L36.3019 25.5206L36.3019 25.5206L36.7549 27.211ZM32.278 24.9366L31.0406 26.174L32.278 24.9366ZM35.1426 27.211L35.5955 25.5206L35.5955 25.5206L35.1426 27.211ZM41.8939 22.072L40.2035 21.6191L40.2035 21.6191L41.8939 22.072ZM41.8939 20.4597L40.2035 20.9126L40.2035 20.9126L41.8939 20.4597ZM21.928 2.10613L21.4751 0.415761L21.4751 0.415761L21.928 2.10613ZM26.4049 4.38056L25.1674 5.618V5.618L26.4049 4.38056ZM23.5403 2.10613L23.0874 3.7965L23.0874 3.7965L23.5403 2.10613ZM16.789 7.24513L15.0986 6.7922V6.7922L16.789 7.24513ZM19.0634 11.722L17.826 12.9594L19.0634 11.722ZM16.789 8.85742L18.4794 8.40449V8.40449L16.789 8.85742ZM12.2253 31.7747C12.9087 32.4581 12.9087 33.5662 12.2253 34.2496C11.5419 34.933 10.4338 34.933 9.75041 34.2496L12.2253 31.7747ZM34.2496 9.75041C34.933 10.4338 34.933 11.5419 34.2496 12.2253C33.5662 12.9087 32.4581 12.9087 31.7747 12.2253L34.2496 9.75041ZM22.7341 30.0756L23.9716 28.8381H23.9716L22.7341 30.0756ZM30.0756 22.7341L31.313 21.4967L30.0756 22.7341ZM13.9244 21.2659L15.1619 20.0284V20.0284L13.9244 21.2659ZM21.2659 13.9244L22.5033 12.687L21.2659 13.9244ZM7.08629 33.9771L10.0229 36.9137L7.54798 39.3886L4.61141 36.452L7.08629 33.9771ZM36.9137 10.0229L33.9771 7.08629L36.452 4.61141L39.3886 7.54799L36.9137 10.0229ZM36.9137 13.4211C37.6409 12.694 38.0591 12.2705 38.3172 11.9322C38.5445 11.6343 38.4776 11.6156 38.4776 11.722L41.9776 11.722C41.9776 12.6885 41.5646 13.446 41.0998 14.0552C40.6658 14.6241 40.0458 15.2388 39.3886 15.896L36.9137 13.4211ZM39.3886 7.54799C40.0458 8.20516 40.6658 8.8199 41.0998 9.38877C41.5646 9.99803 41.9776 10.7555 41.9776 11.722L38.4776 11.722C38.4776 11.8284 38.5445 11.8097 38.3172 11.5118C38.0591 11.1735 37.6409 10.75 36.9137 10.0229L39.3886 7.54799ZM10.0229 36.9137C10.75 37.6409 11.1735 38.0591 11.5118 38.3172C11.8097 38.5445 11.8284 38.4776 11.722 38.4776L11.722 41.9776C10.7555 41.9776 9.99802 41.5646 9.38877 41.0998C8.81989 40.6658 8.20516 40.0458 7.54798 39.3886L10.0229 36.9137ZM15.896 39.3886C15.2388 40.0458 14.6241 40.6658 14.0552 41.0998C13.446 41.5646 12.6885 41.9776 11.722 41.9776L11.722 38.4776C11.6156 38.4776 11.6343 38.5445 11.9322 38.3172C12.2705 38.0591 12.694 37.6409 13.4211 36.9137L15.896 39.3886ZM7.08629 30.5789C6.35915 31.306 5.9409 31.7295 5.68278 32.0678C5.45547 32.3657 5.52238 32.3844 5.52238 32.278L2.02238 32.278C2.02238 31.3115 2.43536 30.554 2.90021 29.9448C3.33424 29.3759 3.95424 28.7612 4.61141 28.104L7.08629 30.5789ZM4.61141 36.452C3.95424 35.7948 3.33425 35.1801 2.90021 34.6112C2.43536 34.002 2.02238 33.2445 2.02238 32.278L5.52238 32.278C5.52238 32.1716 5.45547 32.1903 5.68278 32.4882C5.9409 32.8265 6.35915 33.25 7.08629 33.9771L4.61141 36.452ZM28.104 4.61141C28.7612 3.95424 29.3759 3.33424 29.9448 2.90021C30.554 2.43536 31.3115 2.02238 32.278 2.02238L32.278 5.52238C32.3844 5.52238 32.3657 5.45547 32.0678 5.68278C31.7295 5.9409 31.306 6.35915 30.5789 7.08629L28.104 4.61141ZM33.9771 7.08629C33.25 6.35915 32.8265 5.9409 32.4882 5.68278C32.1903 5.45548 32.1716 5.52238 32.278 5.52238L32.278 2.02238C33.2445 2.02238 34.002 2.43536 34.6112 2.90021C35.1801 3.33424 35.7948 3.95424 36.452 4.61141L33.9771 7.08629ZM17.3643 36.9137L18.8326 38.382L16.3577 40.8569L14.8894 39.3886L17.3643 36.9137ZM23.6991 38.382C24.4081 37.6731 24.8558 37.2229 25.1633 36.8542C25.4553 36.5039 25.5055 36.3584 25.5206 36.3019L28.9014 37.2078C28.7005 37.9575 28.2996 38.5581 27.8515 39.0955C27.4188 39.6144 26.8374 40.1935 26.174 40.8569L23.6991 38.382ZM26.174 31.0406C26.8374 31.7039 27.4188 32.283 27.8515 32.8019C28.2996 33.3393 28.7005 33.94 28.9014 34.6896L25.5206 35.5955C25.5055 35.539 25.4553 35.3935 25.1633 35.0433C24.8558 34.6745 24.4081 34.2244 23.6991 33.5154L26.174 31.0406ZM25.5206 36.3019C25.5826 36.0705 25.5826 35.8269 25.5206 35.5955L28.9014 34.6896C29.1224 35.5145 29.1224 36.383 28.9014 37.2078L25.5206 36.3019ZM26.174 40.8569C25.5106 41.5202 24.9316 42.1017 24.4127 42.5343C23.8752 42.9825 23.2746 43.3834 22.5249 43.5842L21.6191 40.2035C21.6756 40.1884 21.8211 40.1382 22.1713 39.8462C22.5401 39.5387 22.9902 39.0909 23.6991 38.382L26.174 40.8569ZM18.8326 38.382C19.5415 39.0909 19.9916 39.5387 20.3604 39.8462C20.7107 40.1382 20.8562 40.1884 20.9126 40.2035L20.0068 43.5842C19.2571 43.3834 18.6565 42.9825 18.119 42.5343C17.6001 42.1017 17.0211 41.5202 16.3577 40.8569L18.8326 38.382ZM22.5249 43.5842C21.7001 43.8053 20.8316 43.8053 20.0068 43.5842L20.9126 40.2035C21.144 40.2655 21.3877 40.2655 21.6191 40.2035L22.5249 43.5842ZM5.618 20.3009C4.90908 21.0098 4.46132 21.4599 4.15382 21.8287C3.8618 22.1789 3.81163 22.3244 3.7965 22.3809L0.41576 21.4751C0.616631 20.7254 1.01754 20.1248 1.46566 19.5873C1.89831 19.0684 2.47976 18.4894 3.14312 17.826L5.618 20.3009ZM3.14312 27.6423C2.47976 26.9789 1.89831 26.3999 1.46566 25.881C1.01754 25.3435 0.616631 24.7429 0.41576 23.9932L3.7965 23.0874C3.81163 23.1438 3.8618 23.2893 4.15382 23.6396C4.46132 24.0084 4.90908 24.4585 5.618 25.1674L3.14312 27.6423ZM3.7965 22.3809C3.7345 22.6123 3.7345 22.856 3.7965 23.0874L0.415756 23.9932C0.194744 23.1684 0.194744 22.2999 0.41576 21.4751L3.7965 22.3809ZM3.14312 17.826C3.80649 17.1626 4.38557 16.5812 4.90446 16.1485C5.44191 15.7004 6.04254 15.2995 6.7922 15.0986L7.69807 18.4794C7.64158 18.4945 7.49607 18.5447 7.14584 18.8367C6.77705 19.1442 6.32692 19.5919 5.618 20.3009L3.14312 17.826ZM10.4846 20.3009C9.77564 19.5919 9.3255 19.1442 8.95672 18.8367C8.60648 18.5447 8.46098 18.4945 8.40449 18.4794L9.31036 15.0986C10.06 15.2995 10.6607 15.7004 11.1981 16.1485C11.717 16.5812 12.2961 17.1626 12.9594 17.826L10.4846 20.3009ZM6.7922 15.0986C7.61704 14.8776 8.48552 14.8776 9.31036 15.0986L8.4045 18.4794C8.1731 18.4174 7.92946 18.4174 7.69807 18.4794L6.7922 15.0986ZM39.3886 14.8894L40.8569 16.3577L38.382 18.8326L36.9137 17.3643L39.3886 14.8894ZM40.8569 26.174C40.1935 26.8374 39.6144 27.4188 39.0955 27.8515C38.5581 28.2996 37.9575 28.7005 37.2078 28.9014L36.3019 25.5206C36.3584 25.5055 36.5039 25.4553 36.8542 25.1633C37.2229 24.8558 37.6731 24.4081 38.382 23.6991L40.8569 26.174ZM33.5154 23.6991C34.2244 24.4081 34.6745 24.8558 35.0433 25.1633C35.3935 25.4553 35.539 25.5055 35.5955 25.5206L34.6896 28.9014C33.94 28.7005 33.3393 28.2996 32.8019 27.8515C32.283 27.4188 31.7039 26.8374 31.0406 26.174L33.5154 23.6991ZM37.2078 28.9014C36.383 29.1224 35.5145 29.1224 34.6896 28.9014L35.5955 25.5206C35.8269 25.5826 36.0705 25.5826 36.3019 25.5206L37.2078 28.9014ZM38.382 23.6991C39.0909 22.9902 39.5387 22.5401 39.8462 22.1713C40.1382 21.8211 40.1884 21.6756 40.2035 21.6191L43.5842 22.5249C43.3834 23.2746 42.9825 23.8752 42.5343 24.4127C42.1017 24.9316 41.5202 25.5106 40.8569 26.174L38.382 23.6991ZM40.8569 16.3577C41.5202 17.0211 42.1017 17.6001 42.5343 18.119C42.9825 18.6565 43.3834 19.2571 43.5842 20.0068L40.2035 20.9126C40.1884 20.8562 40.1382 20.7107 39.8462 20.3604C39.5387 19.9916 39.0909 19.5415 38.382 18.8326L40.8569 16.3577ZM40.2035 21.6191C40.2655 21.3877 40.2655 21.144 40.2035 20.9126L43.5842 20.0068C43.8053 20.8316 43.8053 21.7001 43.5842 22.5249L40.2035 21.6191ZM17.826 3.14313C18.4894 2.47976 19.0684 1.89831 19.5873 1.46566C20.1248 1.01754 20.7254 0.616632 21.4751 0.415761L22.3809 3.7965C22.3244 3.81164 22.1789 3.8618 21.8287 4.15382C21.4599 4.46132 21.0098 4.90908 20.3009 5.618L17.826 3.14313ZM25.1674 5.618C24.4585 4.90908 24.0084 4.46132 23.6396 4.15382C23.2893 3.8618 23.1438 3.81164 23.0874 3.7965L23.9932 0.415761C24.7429 0.616631 25.3435 1.01754 25.881 1.46566C26.3999 1.89831 26.9789 2.47976 27.6423 3.14313L25.1674 5.618ZM21.4751 0.415761C22.2999 0.194746 23.1684 0.194746 23.9932 0.415761L23.0874 3.7965C22.856 3.7345 22.6123 3.7345 22.3809 3.7965L21.4751 0.415761ZM20.3009 5.618C19.5919 6.32692 19.1442 6.77705 18.8367 7.14584C18.5447 7.49607 18.4945 7.64158 18.4794 7.69807L15.0986 6.7922C15.2995 6.04254 15.7004 5.4419 16.1485 4.90446C16.5812 4.38557 17.1626 3.80649 17.826 3.14313L20.3009 5.618ZM17.826 12.9594C17.1626 12.2961 16.5812 11.717 16.1485 11.1981C15.7004 10.6607 15.2995 10.06 15.0986 9.31036L18.4794 8.40449C18.4945 8.46098 18.5447 8.60648 18.8367 8.95672C19.1442 9.3255 19.5919 9.77564 20.3009 10.4846L17.826 12.9594ZM18.4794 7.69807C18.4174 7.92946 18.4174 8.17309 18.4794 8.40449L15.0986 9.31036C14.8776 8.48552 14.8776 7.61704 15.0986 6.7922L18.4794 7.69807ZM5.618 25.1674L12.2253 31.7747L9.75041 34.2496L3.14312 27.6423L5.618 25.1674ZM27.6423 3.14313L34.2496 9.75041L31.7747 12.2253L25.1674 5.618L27.6423 3.14313ZM23.6991 33.5154L21.4967 31.313L23.9716 28.8381L26.174 31.0406L23.6991 33.5154ZM31.0406 26.174L28.8381 23.9716L31.313 21.4967L33.5154 23.6991L31.0406 26.174ZM21.4967 31.313L12.687 22.5033L15.1619 20.0284L23.9716 28.8381L21.4967 31.313ZM12.687 22.5033L10.4846 20.3009L12.9594 17.826L15.1619 20.0284L12.687 22.5033ZM28.8381 23.9716L20.0284 15.1619L22.5033 12.687L31.313 21.4967L28.8381 23.9716ZM20.0284 15.1619L17.826 12.9594L20.3009 10.4846L22.5033 12.687L20.0284 15.1619ZM36.9137 17.3643C35.8248 16.2754 35.8248 14.51 36.9137 13.4211L39.3886 15.896C39.6665 15.618 39.6665 15.1674 39.3886 14.8894L36.9137 17.3643ZM14.8894 39.3886C15.1674 39.6665 15.618 39.6665 15.896 39.3886L13.4211 36.9137C14.51 35.8248 16.2754 35.8248 17.3643 36.9137L14.8894 39.3886Z" fill="white"/>
</g>
</svg>
