<svg width="30" height="28" viewBox="0 0 30 28" fill="none" xmlns="http://www.w3.org/2000/svg">
<path id="Vector" d="M28.3904 4.14837L28.3901 4.14781C27.2958 1.902 24.0525 -0.0479145 20.1887 1.07938L20.1868 1.07994C18.3381 1.61394 16.7251 2.75911 15.6114 4.32836L14.9998 5.19017L14.3882 4.32836C13.2746 2.75931 11.6619 1.61423 9.81352 1.08014C5.93571 -0.0311287 2.70239 1.90481 1.60944 4.14781L1.60917 4.14837C0.0111844 7.42083 0.606758 11.18 3.71624 15.4444L28.3904 4.14837ZM28.3904 4.14837C29.9886 7.4212 29.3927 11.1808 26.2918 15.4456L26.2905 15.4475C23.8369 18.844 20.2986 22.2533 15.1211 26.2741L15.1199 26.275C15.0869 26.3007 15.0463 26.3147 15.0045 26.3147C14.9627 26.3147 14.922 26.3007 14.8891 26.275L14.888 26.2742M28.3904 4.14837L14.888 26.2742M14.888 26.2742C9.7037 22.2461 6.17203 18.8073 3.71635 15.4445L14.888 26.2742Z" fill="#585858" fill-opacity="0.7" stroke="#BDBDBD" stroke-width="1.5"/>
</svg>
