<svg width="9" height="16" viewBox="0 0 9 16" fill="none" xmlns="http://www.w3.org/2000/svg">
<path d="M-7.21772e-07 8.00902C-7.13418e-07 7.81791 0.0287945 7.63874 0.0863857 7.47151C0.143063 7.30429 0.239962 7.149 0.377084 7.00567L6.71897 0.376381C6.97036 0.113599 7.28483 -0.0115814 7.66237 0.000841044C8.039 0.0123079 8.35301 0.149432 8.6044 0.412215C8.85579 0.674997 8.98149 1.00945 8.98149 1.41557C8.98149 1.82169 8.85579 2.15614 8.6044 2.41892L3.25665 8.00902L8.63868 13.635C8.89007 13.8977 9.01028 14.2265 8.99931 14.6211C8.98743 15.0148 8.85579 15.343 8.6044 15.6058C8.35301 15.8686 8.03306 16 7.64455 16C7.25603 16 6.93608 15.8686 6.68469 15.6058L0.377084 9.01237C0.239962 8.86904 0.143063 8.71376 0.0863857 8.54653C0.0287945 8.3793 -7.30126e-07 8.20013 -7.21772e-07 8.00902Z" fill="black"/>
</svg>
