<svg width="32" height="32" viewBox="0 0 32 32" fill="none" xmlns="http://www.w3.org/2000/svg">
<g id="Line Duotone / Time / Calendar Add">
<path id="Vector" d="M9.33398 5.33203V3.33203" stroke="#BDBDBD" stroke-width="2" stroke-linecap="round"/>
<path id="Vector_2" d="M22.666 5.33203V3.33203" stroke="#BDBDBD" stroke-width="2" stroke-linecap="round"/>
<path id="Vector_3" d="M2.66602 12H29.3327" stroke="#BDBDBD" stroke-width="2" stroke-linecap="round"/>
<path id="Vector_4" d="M2.66602 15.9987C2.66602 10.9704 2.66602 8.45623 4.22811 6.89413C5.79021 5.33203 8.30437 5.33203 13.3327 5.33203H18.666C23.6943 5.33203 26.2085 5.33203 27.7706 6.89413C29.3327 8.45623 29.3327 10.9704 29.3327 15.9987V18.6654C29.3327 23.6937 29.3327 26.2078 27.7706 27.7699C26.2085 29.332 23.6943 29.332 18.666 29.332H13.3327C8.30437 29.332 5.79021 29.332 4.22811 27.7699C2.66602 26.2078 2.66602 23.6937 2.66602 18.6654V15.9987Z" stroke="black" stroke-width="2"/>
<path id="Vector_5" d="M23.9993 21.3347L21.3327 21.3347M21.3327 21.3347L18.666 21.3347M21.3327 21.3347L21.3327 18.668M21.3327 21.3347L21.3327 24.0013" stroke="black" stroke-width="2" stroke-linecap="round"/>
</g>
</svg>
