<svg width="48" height="48" viewBox="0 0 48 48" fill="none" xmlns="http://www.w3.org/2000/svg">
<path fill-rule="evenodd" clip-rule="evenodd" d="M13.7737 12C12.7944 12 12 12.7702 12 13.7192V34.2814C12 35.2304 12.7945 36 13.7737 36H34.2262C35.2059 36 36 35.2303 36 34.2811V13.7192C36 12.7702 35.2059 12 34.2262 12H13.7737ZM19.2932 21.28V32.0849H15.7018V21.28H19.2932ZM19.5299 17.9385C19.5299 18.9754 18.7504 19.8051 17.4982 19.8051L17.4747 19.805C16.2694 19.805 15.4901 18.9753 15.4901 17.9384C15.4901 16.878 16.2929 16.0715 17.522 16.0715C18.7504 16.0715 19.5065 16.878 19.5299 17.9385ZM24.8721 32.0849H21.2811C21.2811 32.0849 21.3281 22.294 21.2812 21.2804H24.8724V22.8098C25.3498 22.0737 26.2042 21.0267 28.1091 21.0267C30.4719 21.0267 32.2434 22.5711 32.2434 25.8897V32.0849H28.6524V26.3052C28.6524 24.8526 28.1324 23.8618 26.8332 23.8618C25.8409 23.8618 25.25 24.53 24.9905 25.1754C24.8956 25.4058 24.8721 25.7291 24.8721 26.0516V32.0849Z" fill="black"/>
</svg>
