<svg width="32" height="32" viewBox="0 0 32 32" fill="none" xmlns="http://www.w3.org/2000/svg">
<path d="M16 26H6.99998C6.44798 26 6 25.552 6 25.0001V7.00003C6 6.44802 6.44802 6.00005 6.99998 6.00005H16C16.553 6.00005 17 5.55307 17 5.00007C17 4.44708 16.553 4 16 4H6.99998C5.34599 4 4 5.34603 4 7.00003V25C4 26.654 5.34599 28 6.99998 28H16C16.553 28 17 27.553 17 27C17 26.447 16.553 26 16 26Z" fill="black"/>
<path opacity="0.5" d="M27.782 15.2879L21.702 9.28789C21.31 8.89989 20.676 8.90492 20.288 9.29791C19.9 9.6909 19.904 10.3239 20.298 10.7119L24.643 14.9999H13C12.447 14.9999 12 15.4469 12 15.9999C12 16.5529 12.447 16.9999 13 16.9999H24.643L20.298 21.2879C19.904 21.6759 19.901 22.3089 20.288 22.7019C20.381 22.7962 20.4918 22.8712 20.6141 22.9223C20.7363 22.9735 20.8675 22.9999 21 22.9999C21.254 22.9999 21.508 22.9039 21.702 22.7118L27.782 16.7118C27.8763 16.6187 27.9512 16.5079 28.0023 16.3857C28.0535 16.2635 28.0799 16.1323 28.08 15.9998C28.08 15.7319 27.973 15.4769 27.782 15.2879Z" fill="#BDBDBD"/>
</svg>
