<svg width="40" height="39" viewBox="0 0 40 39" fill="none" xmlns="http://www.w3.org/2000/svg">
<g id="Group">
<g id="Vector">
<path fill-rule="evenodd" clip-rule="evenodd" d="M20.8333 26.6657H19.1664V38.3324H20.8333V26.6657ZM32.4997 23.3326H7.5V24.9992H32.4997V23.3326Z" fill="white"/>
<path fill-rule="evenodd" clip-rule="evenodd" d="M35.8331 12.4993C33.5354 12.4993 31.6662 10.6301 31.6662 8.33283C31.6662 6.03521 33.5354 4.16602 35.8331 4.16602C38.1304 4.16602 39.9996 6.03521 39.9996 8.33283C39.9996 10.6301 38.1304 12.4993 35.8331 12.4993ZM33.3331 8.33283C33.3331 6.95434 34.4546 5.83287 35.8331 5.83287C37.2112 5.83287 38.333 6.95434 38.333 8.33283C38.333 9.71094 37.2112 10.8328 35.8331 10.8328C34.4546 10.8328 33.3331 9.71094 33.3331 8.33283Z" fill="#BDBDBD"/>
</g>
<path id="Vector_2" d="M27.4985 38.3326C27.3887 38.3326 27.277 38.3115 27.1702 38.2648C26.7469 38.0833 26.551 37.5934 26.7328 37.1708L29.2328 31.3374C29.2969 31.1875 29.4037 31.0598 29.5398 30.97C29.676 30.8803 29.8355 30.8325 29.9985 30.8327H35.8319C37.21 30.8327 38.3318 29.7108 38.3318 28.3327V17.4994C38.3318 16.5802 37.5842 15.8329 36.665 15.8329H35.8319C35.2469 15.8329 34.7143 16.2196 33.9969 17.1696C33.1918 18.2328 30.7487 21.2326 30.6451 21.3592C30.5668 21.4551 30.4682 21.5323 30.3564 21.5854C30.2445 21.6384 30.1223 21.6659 29.9985 21.6659H25.832C25.3718 21.6659 24.9986 22.0394 24.9986 22.4993V24.1659C24.9987 24.2754 24.9772 24.3838 24.9353 24.4849C24.8934 24.5861 24.8321 24.678 24.7546 24.7554C24.6772 24.8328 24.5853 24.8942 24.4842 24.936C24.383 24.9779 24.2746 24.9994 24.1651 24.9993C24.0557 24.9994 23.9473 24.9779 23.8462 24.936C23.745 24.8942 23.6531 24.8328 23.5758 24.7554C23.4984 24.678 23.437 24.586 23.3952 24.4849C23.3534 24.3837 23.3319 24.2753 23.332 24.1659V22.4993C23.332 21.1208 24.4535 19.9994 25.832 19.9994H29.6018C30.2585 19.1909 32.0285 17.0078 32.6669 16.1636C33.371 15.2335 34.3658 14.166 35.8319 14.166H36.665C38.5033 14.166 39.9984 15.6611 39.9984 17.4994V28.3327C39.9984 30.63 38.1292 32.4992 35.8319 32.4992H30.5478L28.2642 37.8275C28.1293 38.1433 27.8217 38.3326 27.4985 38.3326Z" fill="white"/>
<path id="Vector_3" d="M24.1649 38.3318C24.0782 38.3318 23.9891 38.3175 23.9016 38.2885C23.4658 38.1435 23.2292 37.6718 23.3752 37.2341L26.1384 28.9436C26.5907 27.5819 27.8624 26.6651 29.3001 26.6651H31.6648V24.1651C31.6648 23.7044 32.0375 23.332 32.4982 23.332C32.959 23.332 33.3317 23.7044 33.3317 24.1651V27.4985C33.3317 27.608 33.3102 27.7164 33.2684 27.8176C33.2265 27.9187 33.1652 28.0106 33.0877 28.088C33.0103 28.1655 32.9184 28.2268 32.8173 28.2687C32.7161 28.3105 32.6077 28.332 32.4982 28.332H29.3C28.5817 28.332 27.9457 28.7894 27.7199 29.4702L24.9559 37.7618C24.9004 37.9277 24.7942 38.072 24.6523 38.1743C24.5104 38.2766 24.3399 38.3317 24.1649 38.3318Z" fill="white"/>
<g id="Vector_4">
<path fill-rule="evenodd" clip-rule="evenodd" d="M31.9997 24.8325C32.1496 24.9452 32.3247 24.9992 32.4986 24.9992C32.7529 24.9992 33.0028 24.8841 33.1654 24.6659L35.6654 21.3325C35.9419 20.9651 35.8671 20.4426 35.4988 20.1668C35.1311 19.8909 34.6086 19.965 34.3327 20.3334L31.8328 23.6668C31.5563 24.0342 31.6314 24.5567 31.9997 24.8325ZM11.7342 37.8274C11.8691 38.1432 12.1766 38.3324 12.4998 38.3324C12.6128 38.3328 12.7246 38.3097 12.8282 38.2647C13.2506 38.0831 13.4474 37.5933 13.2654 37.1706L10.7655 31.3372C10.7013 31.1873 10.5946 31.0596 10.4585 30.9699C10.3224 30.8801 10.1629 30.8324 9.99986 30.8325H4.16651C2.7884 30.8325 1.66654 29.7107 1.66654 28.3326V17.4993C1.66654 16.5801 2.41419 15.8327 3.33339 15.8327H4.16651C4.75243 15.8327 5.28407 16.2194 6.00242 17.1685C6.80655 18.2325 9.25065 21.2325 9.35409 21.3591C9.51253 21.5535 9.74908 21.6658 9.99986 21.6658H14.1664C14.6256 21.6658 14.9998 22.0393 14.9998 22.4992V24.1657C14.9998 24.6265 15.3731 24.9992 15.8332 24.9992C16.2931 24.9992 16.6663 24.6265 16.6663 24.1657V22.4992C16.6663 21.1207 15.5449 19.9992 14.1664 19.9992H10.3956C9.73893 19.1908 7.96989 17.0076 7.33084 16.1635C6.62835 15.2334 5.63258 14.1659 4.16651 14.1659H3.33339C1.49506 14.1659 0 15.6609 0 17.4993V28.3326C0 30.6299 1.86919 32.4991 4.16651 32.4991H9.45049L11.7342 37.8274Z" fill="white"/>
<path fill-rule="evenodd" clip-rule="evenodd" d="M4.16651 12.4993C1.86919 12.4993 0 10.6301 0 8.33283C0 6.03521 1.86919 4.16602 4.16651 4.16602C6.46413 4.16602 8.33332 6.03521 8.33332 8.33283C8.33332 10.6301 6.46413 12.4993 4.16651 12.4993ZM1.66654 8.33283C1.66654 6.95434 2.7884 5.83287 4.16651 5.83287C5.545 5.83287 6.66647 6.95434 6.66647 8.33283C6.66647 9.71094 5.545 10.8328 4.16651 10.8328C2.7884 10.8328 1.66654 9.71094 1.66654 8.33283Z" fill="#BDBDBD"/>
</g>
<path id="Vector_5" d="M15.8328 38.3318C15.6578 38.3317 15.4873 38.2766 15.3454 38.1743C15.2034 38.072 15.0972 37.9277 15.0418 37.7618L12.2784 29.4709C12.168 29.139 11.9559 28.8504 11.6721 28.6459C11.3884 28.4415 11.0474 28.3316 10.6977 28.332H7.49944C7.03953 28.332 6.66602 27.9593 6.66602 27.4985V24.1651C6.66602 23.7044 7.03953 23.332 7.49944 23.332C7.95936 23.332 8.33287 23.7044 8.33287 24.1651V26.6651H10.6977C11.3974 26.6643 12.0796 26.884 12.6473 27.293C13.215 27.702 13.6394 28.2795 13.8601 28.9435L16.6235 37.2341C16.7693 37.6708 16.5335 38.1435 16.0967 38.2885C16.0116 38.3168 15.9225 38.3315 15.8328 38.3318Z" fill="white"/>
<g id="Vector_6">
<path fill-rule="evenodd" clip-rule="evenodd" d="M7.12731 24.9119C7.24321 24.9698 7.37101 24.9998 7.50055 24.9997C7.68053 24.9998 7.85566 24.9413 7.99945 24.833C8.3678 24.5571 8.44296 24.0347 8.1664 23.6673L5.66643 20.3339C5.3912 19.9656 4.86965 19.8914 4.49981 20.1673C4.13145 20.4432 4.0563 20.9656 4.33286 21.333L6.83282 24.6664C6.91057 24.77 7.0114 24.8541 7.12731 24.9119ZM26.347 21.6031C26.4481 21.6449 26.5565 21.6664 26.6659 21.6663C27.1267 21.6663 27.4993 21.2939 27.4993 20.8332V14.9998C27.4993 12.2423 25.2569 9.99986 22.4994 9.99986H17.4995C14.7419 9.99986 12.4995 12.2423 12.4995 14.9998V17.4998C12.4995 17.9597 12.8728 18.3332 13.333 18.3332C13.7929 18.3332 14.1661 17.9597 14.1661 17.4998V14.9998C14.1661 13.1615 15.6611 11.6664 17.4995 11.6664H22.4994C24.3377 11.6664 25.8328 13.1615 25.8328 14.9998V20.8332C25.8327 20.9426 25.8542 21.051 25.896 21.1521C25.9378 21.2532 25.9992 21.3451 26.0766 21.4225C26.1539 21.4999 26.2458 21.5612 26.347 21.6031Z" fill="white"/>
<path fill-rule="evenodd" clip-rule="evenodd" d="M19.9994 8.33332C17.7021 8.33332 15.8329 6.46413 15.8329 4.16651C15.8329 1.86919 17.7021 0 19.9994 0C22.2967 0 24.1659 1.86919 24.1659 4.16651C24.1659 6.46413 22.2967 8.33332 19.9994 8.33332ZM17.4995 4.16651C17.4995 2.7884 18.6209 1.66654 19.9994 1.66654C21.3779 1.66654 22.4994 2.7884 22.4994 4.16651C22.4994 5.545 21.3779 6.66647 19.9994 6.66647C18.6209 6.66647 17.4995 5.545 17.4995 4.16651Z" fill="#BDBDBD"/>
</g>
<path id="Vector_7" d="M19.168 13.334H20.8348V15.0005H19.168V13.334Z" fill="#BDBDBD"/>
</g>
</svg>
