<svg width="88" height="88" viewBox="0 0 88 88" fill="none" xmlns="http://www.w3.org/2000/svg">
<g id="Line Duotone / Users / Users Group Two Rounded">
<g id="Group 815389">
<circle id="Vector" cx="44.1593" cy="32.421" r="8.42103" stroke="white" stroke-width="3.5"/>
<path id="Vector_2" d="M56.791 38.7372C60.2791 38.7372 63.1068 36.3808 63.1068 33.4741C63.1068 30.5673 60.2791 28.2109 56.791 28.2109" stroke="#BDBDBD" stroke-width="3.5" stroke-linecap="round"/>
<path id="Vector_3" d="M31.5273 38.7372C28.0392 38.7372 25.2116 36.3808 25.2116 33.4741C25.2116 30.5673 28.0392 28.2109 31.5273 28.2109" stroke="#BDBDBD" stroke-width="3.5" stroke-linecap="round"/>
<ellipse id="Vector_4" cx="44.1589" cy="55.5773" rx="12.6316" ry="8.42103" stroke="white" stroke-width="3.5"/>
<path id="Vector_5" d="M61 59.7919C64.6931 58.982 67.3158 56.931 67.3158 54.5288C67.3158 52.1265 64.6931 50.0755 61 49.2656" stroke="#BDBDBD" stroke-width="3.5" stroke-linecap="round"/>
<path id="Vector_6" d="M27.3164 59.7919C23.6233 58.982 21.0006 56.931 21.0006 54.5288C21.0006 52.1265 23.6233 50.0755 27.3164 49.2656" stroke="#BDBDBD" stroke-width="3.5" stroke-linecap="round"/>
</g>
</g>
</svg>
