<svg width="32" height="32" viewBox="0 0 32 32" fill="none" xmlns="http://www.w3.org/2000/svg">
<path d="M27.5308 17.8739L27.8058 14.9516C28.0218 12.6564 28.1298 11.5089 27.7372 11.0345C27.5248 10.7779 27.236 10.6206 26.9272 10.5935C26.3564 10.5434 25.6395 11.3595 24.2058 12.9917C23.4643 13.8358 23.0935 14.2578 22.68 14.3232C22.4508 14.3594 22.2173 14.3222 22.0057 14.2157C21.6238 14.0235 21.3692 13.5017 20.8599 12.4582L18.1757 6.95783C17.2134 4.98594 16.7322 4 16 4C15.2678 4 14.7866 4.98594 13.8243 6.95783L11.1401 12.4582C10.6308 13.5017 10.3762 14.0235 9.99431 14.2157C9.7827 14.3222 9.54921 14.3594 9.32005 14.3232C8.90646 14.2578 8.53572 13.8358 7.79424 12.9917C6.3605 11.3595 5.64362 10.5434 5.07278 10.5935C4.76399 10.6206 4.47517 10.7779 4.26278 11.0345C3.87016 11.5089 3.97816 12.6564 4.19417 14.9516L4.4692 17.8739C4.92238 22.689 5.14897 25.0966 6.56811 26.5483C7.98725 28 10.1142 28 14.3681 28H17.6319C21.8858 28 24.0127 28 25.4319 26.5483C26.851 25.0966 27.0776 22.689 27.5308 17.8739Z" stroke="black" stroke-width="2"/>
<path d="M14.9755 16.6255C15.4315 15.8074 15.6595 15.3984 16.0004 15.3984C16.3413 15.3984 16.5693 15.8074 17.0253 16.6255L17.1432 16.8371C17.2728 17.0695 17.3376 17.1858 17.4386 17.2624C17.5396 17.3391 17.6654 17.3676 17.9171 17.4245L18.1462 17.4764C19.0316 17.6767 19.4744 17.7769 19.5797 18.1156C19.6851 18.4543 19.3832 18.8073 18.7796 19.5132L18.6234 19.6958C18.4518 19.8964 18.3661 19.9967 18.3275 20.1208C18.2889 20.2449 18.3019 20.3787 18.3278 20.6464L18.3514 20.89C18.4427 21.8319 18.4883 22.3028 18.2125 22.5121C17.9368 22.7215 17.5222 22.5306 16.6931 22.1489L16.4787 22.0501C16.2431 21.9416 16.1253 21.8874 16.0004 21.8874C15.8755 21.8874 15.7577 21.9416 15.5221 22.0501L15.3076 22.1489C14.4786 22.5306 14.064 22.7215 13.7882 22.5121C13.5125 22.3028 13.5581 21.8319 13.6494 20.89L13.673 20.6464C13.6989 20.3787 13.7119 20.2449 13.6733 20.1208C13.6347 19.9967 13.5489 19.8964 13.3774 19.6958L13.2212 19.5132C12.6176 18.8073 12.3157 18.4543 12.4211 18.1156C12.5264 17.7769 12.9691 17.6767 13.8546 17.4764L14.0837 17.4245C14.3353 17.3676 14.4612 17.3391 14.5622 17.2624C14.6632 17.1858 14.728 17.0695 14.8576 16.8371L14.9755 16.6255Z" stroke="#BDBDBD" stroke-width="2"/>
</svg>
