<svg width="21" height="36" viewBox="0 0 21 36" fill="none" xmlns="http://www.w3.org/2000/svg">
<path d="M4.16128 35.2876L20.4677 19.3298C20.6613 19.1398 20.7987 18.934 20.88 18.7124C20.9613 18.4908 21.0013 18.2533 21 18C21 17.7467 20.9593 17.5092 20.878 17.2876C20.7967 17.066 20.66 16.8602 20.4677 16.6702L4.16128 0.664907C3.70967 0.221636 3.14516 0 2.46774 0C1.79032 0 1.20967 0.237467 0.725805 0.712401C0.241936 1.18734 0 1.74142 0 2.37467C0 3.00792 0.241936 3.56201 0.725805 4.03694L14.9516 18L0.725805 31.9631C0.274193 32.4063 0.0483856 32.9528 0.0483856 33.6025C0.0483856 34.2522 0.290321 34.8139 0.774191 35.2876C1.25806 35.7625 1.82258 36 2.46774 36C3.1129 36 3.67741 35.7625 4.16128 35.2876Z" fill="black"/>
</svg>
