<svg width="9" height="16" viewBox="0 0 9 16" fill="none" xmlns="http://www.w3.org/2000/svg">
<path d="M9 8.00902C9 7.81791 8.97121 7.63874 8.91361 7.47151C8.85694 7.30429 8.76004 7.149 8.62292 7.00567L2.28103 0.376381C2.02964 0.113599 1.71517 -0.0115814 1.33763 0.000841044C0.960999 0.0123079 0.64699 0.149432 0.395599 0.412215C0.144209 0.674997 0.0185133 1.00945 0.0185133 1.41557C0.0185133 1.82169 0.144209 2.15614 0.395599 2.41892L5.74335 8.00902L0.361319 13.635C0.109928 13.8977 -0.0102811 14.2265 0.000688641 14.6211C0.0125726 15.0148 0.14421 15.343 0.3956 15.6058C0.64699 15.8686 0.966941 16 1.35545 16C1.74397 16 2.06392 15.8686 2.31531 15.6058L8.62292 9.01237C8.76004 8.86904 8.85694 8.71376 8.91361 8.54653C8.97121 8.3793 9 8.20013 9 8.00902Z" fill="black"/>
</svg>
