<svg width="48" height="48" viewBox="0 0 48 48" fill="none" xmlns="http://www.w3.org/2000/svg">
<g id="Line Duotone / Essentional, UI / Share">
<g id="Group 815579">
<path id="Vector" d="M27.4685 29.3354L21.5566 25.4336" stroke="#BDBDBD" stroke-width="1.5" stroke-linecap="round"/>
<path id="Vector_2" d="M27.5778 18.2656L21.666 22.1674" stroke="#BDBDBD" stroke-width="1.5" stroke-linecap="round"/>
<path id="Vector_3" d="M21.5556 23.4457C21.5556 24.9799 20.3119 26.2235 18.7778 26.2235C17.2437 26.2235 16 24.9799 16 23.4457C16 21.9116 17.2437 20.668 18.7778 20.668C20.3119 20.668 21.5556 21.9116 21.5556 23.4457Z" stroke="black" stroke-width="1.5"/>
<path id="Vector_4" d="M32.6669 31.2231C32.6669 32.7572 31.4232 34.0009 29.8891 34.0009C28.355 34.0009 27.1113 32.7572 27.1113 31.2231C27.1113 29.689 28.355 28.4453 29.8891 28.4453C31.4232 28.4453 32.6669 29.689 32.6669 31.2231Z" stroke="black" stroke-width="1.5"/>
<path id="Vector_5" d="M32.6669 16.7778C32.6669 18.3119 31.4232 19.5556 29.8891 19.5556C28.355 19.5556 27.1113 18.3119 27.1113 16.7778C27.1113 15.2437 28.355 14 29.8891 14C31.4232 14 32.6669 15.2437 32.6669 16.7778Z" stroke="black" stroke-width="1.5"/>
</g>
</g>
</svg>
