<svg width="44" height="44" viewBox="0 0 44 44" fill="none" xmlns="http://www.w3.org/2000/svg">
<g id="Group 815388">
<path id="Vector" d="M19.7225 4.7267C20.7358 2.9089 21.2425 2 22 2C22.7575 2 23.2641 2.9089 24.2775 4.7267L24.5396 5.19698C24.8276 5.71354 24.9715 5.97182 25.196 6.14224C25.4205 6.31266 25.7001 6.37592 26.2593 6.50243L26.7684 6.61762C28.7361 7.06284 29.72 7.28545 29.954 8.03818C30.1881 8.79091 29.5174 9.57525 28.1759 11.1439L27.8288 11.5498C27.4476 11.9955 27.257 12.2184 27.1713 12.4942C27.0855 12.7699 27.1144 13.0673 27.172 13.662L27.2245 14.2035C27.4273 16.2965 27.5287 17.3429 26.9159 17.8082C26.303 18.2734 25.3818 17.8492 23.5395 17.0009L23.0628 16.7815C22.5393 16.5404 22.2775 16.4199 22 16.4199C21.7225 16.4199 21.4607 16.5404 20.9372 16.7815L20.4605 17.0009C18.6181 17.8492 17.6969 18.2734 17.0841 17.8082C16.4713 17.3429 16.5727 16.2965 16.7755 14.2035L16.828 13.662C16.8856 13.0673 16.9144 12.7699 16.8287 12.4942C16.7429 12.2184 16.5523 11.9955 16.1711 11.5498L15.8241 11.1439C14.4826 9.57525 13.8119 8.79091 14.0459 8.03818C14.28 7.28545 15.2639 7.06284 17.2316 6.61762L17.7407 6.50243C18.2999 6.37592 18.5795 6.31266 18.8039 6.14224C19.0284 5.97182 19.1724 5.71354 19.4604 5.19698L19.7225 4.7267Z" stroke="white" stroke-width="3.5"/>
<path id="Vector_2" d="M36.8613 13.3633C37.3679 12.4544 37.6213 12 38 12C38.3787 12 38.6321 12.4544 39.1387 13.3633L39.2698 13.5985C39.4138 13.8568 39.4858 13.9859 39.598 14.0711C39.7103 14.1563 39.8501 14.188 40.1296 14.2512L40.3842 14.3088C41.368 14.5314 41.86 14.6427 41.977 15.0191C42.0941 15.3955 41.7587 15.7876 41.088 16.572L40.9144 16.7749C40.7238 16.9978 40.6285 17.1092 40.5856 17.2471C40.5428 17.385 40.5572 17.5336 40.586 17.831L40.6122 18.1018C40.7136 19.1482 40.7643 19.6715 40.4579 19.9041C40.1515 20.1367 39.6909 19.9246 38.7697 19.5005L38.5314 19.3907C38.2696 19.2702 38.1387 19.2099 38 19.2099C37.8613 19.2099 37.7304 19.2702 37.4686 19.3907L37.2303 19.5005C36.3091 19.9246 35.8485 20.1367 35.5421 19.9041C35.2356 19.6715 35.2864 19.1482 35.3878 18.1018L35.414 17.831C35.4428 17.5336 35.4572 17.385 35.4143 17.2471C35.3715 17.1092 35.2762 16.9978 35.0856 16.7749L34.912 16.572C34.2413 15.7876 33.9059 15.3955 34.023 15.0191C34.14 14.6427 34.6319 14.5314 35.6158 14.3088L35.8704 14.2512C36.1499 14.188 36.2897 14.1563 36.402 14.0711C36.5142 13.9859 36.5862 13.8568 36.7302 13.5985L36.8613 13.3633Z" stroke="white" stroke-width="3.5"/>
<path id="Vector_3" d="M4.86126 13.3633C5.36792 12.4544 5.62125 12 6 12C6.37874 12 6.63207 12.4544 7.13873 13.3633L7.26981 13.5985C7.41378 13.8568 7.48577 13.9859 7.59802 14.0711C7.71026 14.1563 7.85005 14.188 8.12964 14.2512L8.38418 14.3088C9.36805 14.5314 9.85998 14.6427 9.97702 15.0191C10.0941 15.3955 9.75869 15.7876 9.08795 16.572L8.91442 16.7749C8.72382 16.9978 8.62852 17.1092 8.58565 17.2471C8.54277 17.385 8.55718 17.5336 8.586 17.831L8.61223 18.1018C8.71364 19.1482 8.76434 19.6715 8.45793 19.9041C8.15152 20.1367 7.69092 19.9246 6.76973 19.5005L6.5314 19.3907C6.26963 19.2702 6.13874 19.2099 6 19.2099C5.86125 19.2099 5.73037 19.2702 5.46859 19.3907L5.23027 19.5005C4.30907 19.9246 3.84847 20.1367 3.54206 19.9041C3.23565 19.6715 3.28635 19.1482 3.38776 18.1018L3.41399 17.831C3.44281 17.5336 3.45722 17.385 3.41434 17.2471C3.37147 17.1092 3.27617 16.9978 3.08557 16.7749L2.91204 16.572C2.2413 15.7876 1.90593 15.3955 2.02297 15.0191C2.14001 14.6427 2.63194 14.5314 3.61581 14.3088L3.87035 14.2512C4.14994 14.188 4.28973 14.1563 4.40197 14.0711C4.51422 13.9859 4.58621 13.8568 4.73018 13.5985L4.86126 13.3633Z" stroke="white" stroke-width="3.5"/>
<path id="Vector_4" opacity="0.5" d="M6 40.7768H10.5199C12.5416 40.7768 14.5851 40.9874 16.5526 41.3927C20.0331 42.1098 23.6977 42.1967 27.2139 41.6275C28.9476 41.3468 30.6521 40.9177 32.1949 40.173C33.5877 39.5008 35.2938 38.5532 36.4398 37.4918C37.5842 36.4319 38.7759 34.6974 39.6218 33.3415C40.3472 32.1788 39.9963 30.7524 38.849 29.8861C37.5746 28.9238 35.6834 28.924 34.4092 29.8865L30.7948 32.6169C29.394 33.675 27.8639 34.6491 26.0411 34.9398C25.822 34.9748 25.5923 35.0066 25.3527 35.0344M25.3527 35.0344C25.2806 35.0427 25.2075 35.0507 25.1336 35.0583M25.3527 35.0344C25.6443 34.9719 25.9338 34.7921 26.2055 34.555C27.4919 33.4322 27.5733 31.54 26.4571 30.2863C26.1981 29.9954 25.8951 29.7528 25.5581 29.5518C19.9634 26.2149 11.2588 28.7564 6 32.4858M25.3527 35.0344C25.2797 35.05 25.2066 35.0583 25.1336 35.0583M25.1336 35.0583C24.0869 35.1658 22.8623 35.1936 21.5035 35.0653" stroke="white" stroke-width="3.5" stroke-linecap="round"/>
</g>
</svg>
