<svg width="32" height="32" viewBox="0 0 32 32" fill="none" xmlns="http://www.w3.org/2000/svg">
<g id="Line Duotone / Hands / Hand Stars">
<g id="Group 815578">
<path id="Vector" d="M14.481 4.48577C15.1566 3.2739 15.4944 2.66797 15.9993 2.66797C16.5043 2.66797 16.8421 3.2739 17.5177 4.48577L17.6924 4.79929C17.8844 5.14367 17.9804 5.31585 18.13 5.42947C18.2797 5.54308 18.4661 5.58525 18.8389 5.66959L19.1783 5.74638C20.4901 6.0432 21.146 6.19161 21.3021 6.69343C21.4581 7.19525 21.011 7.71814 20.1166 8.76393L19.8853 9.03449C19.6311 9.33167 19.5041 9.48026 19.4469 9.66408C19.3897 9.84791 19.4089 10.0462 19.4474 10.4427L19.4823 10.8036C19.6175 12.199 19.6852 12.8966 19.2766 13.2068C18.8681 13.5169 18.2539 13.2341 17.0257 12.6686L16.7079 12.5223C16.3589 12.3616 16.1843 12.2812 15.9993 12.2812C15.8144 12.2812 15.6398 12.3616 15.2908 12.5223L14.973 12.6686C13.7448 13.2341 13.1306 13.5169 12.7221 13.2068C12.3135 12.8966 12.3812 12.199 12.5164 10.8036L12.5513 10.4427C12.5898 10.0462 12.609 9.84791 12.5518 9.66408C12.4946 9.48026 12.3676 9.33167 12.1134 9.03449L11.8821 8.76393C10.9877 7.71814 10.5406 7.19525 10.6966 6.69343C10.8527 6.19161 11.5086 6.0432 12.8204 5.74638L13.1598 5.66959C13.5326 5.58525 13.719 5.54308 13.8687 5.42947C14.0183 5.31585 14.1143 5.14367 14.3063 4.79929L14.481 4.48577Z" stroke="black" stroke-width="1.5"/>
<path id="Vector_2" d="M25.9075 10.2448C26.2453 9.6389 26.4142 9.33594 26.6667 9.33594C26.9192 9.33594 27.0881 9.6389 27.4258 10.2448L27.5132 10.4016C27.6092 10.5738 27.6572 10.6599 27.732 10.7167C27.8068 10.7735 27.9 10.7946 28.0864 10.8368L28.2561 10.8751C28.912 11.0236 29.24 11.0978 29.318 11.3487C29.396 11.5996 29.1725 11.861 28.7253 12.3839L28.6096 12.5192C28.4826 12.6678 28.419 12.7421 28.3904 12.834C28.3619 12.9259 28.3715 13.025 28.3907 13.2233L28.4082 13.4038C28.4758 14.1014 28.5096 14.4503 28.3053 14.6053C28.101 14.7604 27.794 14.619 27.1798 14.3363L27.0209 14.2631C26.8464 14.1827 26.7592 14.1426 26.6667 14.1426C26.5742 14.1426 26.4869 14.1827 26.3124 14.2631L26.1535 14.3362C25.5394 14.619 25.2323 14.7604 25.028 14.6053C24.8238 14.4503 24.8576 14.1014 24.9252 13.4038L24.9427 13.2233C24.9619 13.025 24.9715 12.9259 24.9429 12.834C24.9143 12.7421 24.8508 12.6678 24.7237 12.5192L24.608 12.3839C24.1609 11.861 23.9373 11.5996 24.0153 11.3487C24.0933 11.0978 24.4213 11.0236 25.0772 10.8751L25.2469 10.8368C25.4333 10.7946 25.5265 10.7735 25.6013 10.7167C25.6761 10.6599 25.7241 10.5738 25.8201 10.4016L25.9075 10.2448Z" stroke="black" stroke-width="1.5"/>
<path id="Vector_3" d="M4.57353 10.2448C4.9113 9.6389 5.08019 9.33594 5.33268 9.33594C5.58518 9.33594 5.75407 9.6389 6.09184 10.2448L6.17922 10.4016C6.27521 10.5738 6.3232 10.6599 6.39803 10.7167C6.47286 10.7735 6.56606 10.7946 6.75245 10.8368L6.92214 10.8751C7.57805 11.0236 7.90601 11.0978 7.98404 11.3487C8.06206 11.5996 7.83848 11.861 7.39132 12.3839L7.27564 12.5192C7.14857 12.6678 7.08503 12.7421 7.05645 12.834C7.02787 12.9259 7.03748 13.025 7.05669 13.2233L7.07418 13.4038C7.14178 14.1014 7.17558 14.4503 6.97131 14.6053C6.76704 14.7604 6.45997 14.619 5.84584 14.3363L5.68695 14.2631C5.51244 14.1827 5.42518 14.1426 5.33268 14.1426C5.24019 14.1426 5.15293 14.1827 4.97841 14.2631L4.81953 14.3362C4.2054 14.619 3.89833 14.7604 3.69406 14.6053C3.48978 14.4503 3.52358 14.1014 3.59119 13.4038L3.60868 13.2233C3.62789 13.025 3.63749 12.9259 3.60891 12.834C3.58033 12.7421 3.5168 12.6678 3.38973 12.5192L3.27404 12.3839C2.82688 11.861 2.6033 11.5996 2.68133 11.3487C2.75935 11.0978 3.08731 11.0236 3.74323 10.8751L3.91292 10.8368C4.09931 10.7946 4.1925 10.7735 4.26733 10.7167C4.34216 10.6599 4.39016 10.5738 4.48614 10.4016L4.57353 10.2448Z" stroke="black" stroke-width="1.5"/>
<path id="Vector_4" opacity="0.5" d="M5.33203 28.5178H8.34528C9.69309 28.5178 11.0554 28.6583 12.3671 28.9285C14.6875 29.4065 17.1305 29.4645 19.4746 29.085C20.6304 28.8979 21.7668 28.6118 22.7953 28.1154C23.7239 27.6672 24.8613 27.0355 25.6253 26.3279C26.3882 25.6213 27.1827 24.4649 27.7466 23.561C28.2302 22.7859 27.9963 21.8349 27.2314 21.2574C26.3818 20.6159 25.121 20.616 24.2715 21.2577L21.8619 23.0779C20.9281 23.7833 19.908 24.4327 18.6928 24.6265C18.5467 24.6499 18.3936 24.6711 18.2338 24.6896M18.2338 24.6896C18.1858 24.6952 18.1371 24.7005 18.0878 24.7055M18.2338 24.6896C18.4282 24.6479 18.6213 24.5281 18.8024 24.37C19.66 23.6215 19.7142 22.36 18.9701 21.5242C18.7974 21.3302 18.5954 21.1685 18.3708 21.0345C14.641 18.8099 8.83792 20.5043 5.33203 22.9906M18.2338 24.6896C18.1852 24.7 18.1364 24.7055 18.0878 24.7055M18.0878 24.7055C17.39 24.7772 16.5736 24.7957 15.6677 24.7102" stroke="black" stroke-width="1.5" stroke-linecap="round"/>
</g>
</g>
</svg>
