<svg width="24" height="24" viewBox="0 0 24 24" fill="none" xmlns="http://www.w3.org/2000/svg">
<g clip-path="url(#clip0_5208_8340)">
<mask id="mask0_5208_8340" style="mask-type:alpha" maskUnits="userSpaceOnUse" x="2" y="2" width="20" height="20">
<path d="M21.3384 9.06806C21.2494 8.82889 21.0896 8.62258 20.8802 8.47666C20.6709 8.33073 20.422 8.25215 20.1668 8.25139H15.0943C15.008 8.25145 14.9238 8.22471 14.8533 8.17485C14.7828 8.12499 14.7296 8.05448 14.7009 7.97306L12.8801 2.81222C12.7909 2.57369 12.631 2.36809 12.4218 2.22294C12.2125 2.07778 11.9639 2 11.7093 2C11.4546 2 11.206 2.07778 10.9968 2.22294C10.7875 2.36809 10.6276 2.57369 10.5384 2.81222L10.5343 2.82556L8.71761 7.97306C8.689 8.05434 8.63589 8.12476 8.56559 8.17461C8.4953 8.22445 8.41128 8.25128 8.32511 8.25139H3.25094C2.99412 8.2512 2.74348 8.33011 2.53309 8.4774C2.32271 8.6247 2.1628 8.83322 2.07512 9.0746C1.98743 9.31599 1.97622 9.57852 2.04302 9.8265C2.10982 10.0745 2.25137 10.2959 2.44844 10.4606L6.76844 14.0439C6.83306 14.0975 6.87997 14.1694 6.90302 14.2502C6.92607 14.3309 6.92418 14.4167 6.89761 14.4964L5.08261 19.9389C4.99873 20.1905 4.99707 20.4623 5.07788 20.715C5.15868 20.9676 5.31776 21.188 5.5321 21.3443C5.74644 21.5005 6.00494 21.5845 6.27019 21.5842C6.53544 21.5838 6.7937 21.4991 7.00761 21.3422L11.4626 18.0756C11.534 18.0232 11.6203 17.995 11.7089 17.995C11.7974 17.995 11.8837 18.0232 11.9551 18.0756L16.4084 21.3414C16.6223 21.4988 16.8806 21.584 17.1461 21.5847C17.4116 21.5854 17.6704 21.5015 17.8851 21.3453C18.0997 21.189 18.259 20.9685 18.34 20.7156C18.4209 20.4628 18.4192 20.1907 18.3351 19.9389L16.5201 14.4931C16.4935 14.4134 16.4916 14.3276 16.5147 14.2468C16.5377 14.1661 16.5847 14.0942 16.6493 14.0406L20.9776 10.4522C21.1721 10.2861 21.3111 10.0644 21.3756 9.81685C21.4401 9.56933 21.4271 9.30798 21.3384 9.06806Z" fill="#050000"/>
</mask>
<g mask="url(#mask0_5208_8340)">
<rect width="24" height="24" fill="#FFAB47"/>
</g>
</g>
<defs>
<clipPath id="clip0_5208_8340">
<rect width="24" height="24" fill="white"/>
</clipPath>
</defs>
</svg>
