<svg width="24" height="24" viewBox="0 0 24 24" fill="none" xmlns="http://www.w3.org/2000/svg">
<path d="M21.596 2.27702C21.4066 2.15411 21.1949 2.06972 20.9729 2.02866C20.7509 1.9876 20.5229 1.99068 20.3021 2.03773C20.0813 2.08478 19.8719 2.17487 19.686 2.30285C19.5 2.43084 19.341 2.59421 19.2182 2.78364L9.58447 17.6331L4.88624 13.289C4.72048 13.1358 4.52615 13.0167 4.31436 12.9385C4.10256 12.8603 3.87744 12.8246 3.65186 12.8335C3.19627 12.8513 2.76642 13.0494 2.45689 13.3842C2.14735 13.7189 1.98348 14.163 2.00132 14.6186C2.01916 15.0741 2.21725 15.504 2.55202 15.8135L8.72081 21.517C8.72081 21.517 8.8979 21.6694 8.97985 21.7227C9.16925 21.8457 9.38103 21.9302 9.60309 21.9713C9.82515 22.0124 10.0531 22.0093 10.274 21.9623C10.4949 21.9152 10.7043 21.8251 10.8904 21.6971C11.0764 21.569 11.2354 21.4056 11.3582 21.2161L22.1026 4.6548C22.2255 4.46542 22.3099 4.25368 22.3509 4.03168C22.392 3.80968 22.3889 3.58176 22.3419 3.36095C22.2948 3.14015 22.2047 2.93077 22.0768 2.74478C21.9488 2.5588 21.7854 2.39985 21.596 2.27702Z" fill="black"/>
</svg>
