<svg width="32" height="32" viewBox="0 0 32 32" fill="none" xmlns="http://www.w3.org/2000/svg">
<g id="Line Duotone / Users / Users Group Two Rounded">
<ellipse id="Vector" cx="15.9993" cy="8.0013" rx="5.33333" ry="5.33333" stroke="black" stroke-width="1.5"/>
<path id="Vector_2" d="M24 11.9987C26.2091 11.9987 28 10.5063 28 8.66536C28 6.82442 26.2091 5.33203 24 5.33203" stroke="#BDBDBD" stroke-width="1.5" stroke-linecap="round"/>
<path id="Vector_3" d="M8 11.9987C5.79086 11.9987 4 10.5063 4 8.66536C4 6.82442 5.79086 5.33203 8 5.33203" stroke="#BDBDBD" stroke-width="1.5" stroke-linecap="round"/>
<ellipse id="Vector_4" cx="16" cy="22.6654" rx="8" ry="5.33333" stroke="black" stroke-width="1.5"/>
<path id="Vector_5" d="M26.666 25.3346C29.005 24.8217 30.666 23.5227 30.666 22.0013C30.666 20.4799 29.005 19.1809 26.666 18.668" stroke="#BDBDBD" stroke-width="1.5" stroke-linecap="round"/>
<path id="Vector_6" d="M5.33398 25.3346C2.99499 24.8217 1.33398 23.5227 1.33398 22.0013C1.33398 20.4799 2.99499 19.1809 5.33398 18.668" stroke="#BDBDBD" stroke-width="1.5" stroke-linecap="round"/>
</g>
</svg>
