<svg width="24" height="24" viewBox="0 0 24 24" fill="none" xmlns="http://www.w3.org/2000/svg">
<g clip-path="url(#clip0_5217_15126)">
<mask id="mask0_5217_15126" style="mask-type:alpha" maskUnits="userSpaceOnUse" x="2" y="2" width="20" height="20">
<path d="M12 22C13.9778 22 15.9112 21.4135 17.5557 20.3147C19.2002 19.2159 20.4819 17.6541 21.2388 15.8268C21.9957 13.9996 22.1937 11.9889 21.8078 10.0491C21.422 8.10929 20.4696 6.32746 19.0711 4.92894C17.6725 3.53041 15.8907 2.578 13.9509 2.19215C12.0111 1.8063 10.0004 2.00433 8.17316 2.76121C6.3459 3.51809 4.78412 4.79981 3.6853 6.4443C2.58649 8.08879 2 10.0222 2 12C2.00287 14.6513 3.05736 17.1932 4.9321 19.0679C6.80684 20.9426 9.34871 21.9971 12 22ZM16.01 12.4167C16.0025 12.5659 15.9525 12.7098 15.8658 12.8315C15.7791 12.9532 15.6594 13.0475 15.5208 13.1033L10.45 15.6383C10.3132 15.7093 10.1616 15.7473 10.0075 15.7492C9.864 15.7502 9.72309 15.711 9.60083 15.6358C9.47677 15.5533 9.37628 15.4399 9.30922 15.3068C9.24217 15.1737 9.21085 15.0255 9.21833 14.8767V9.955C9.2056 9.80553 9.23454 9.65545 9.30194 9.52142C9.36935 9.3874 9.47258 9.27468 9.60017 9.19578C9.72776 9.11688 9.87472 9.07488 10.0247 9.07445C10.1748 9.07402 10.322 9.11517 10.45 9.19334L15.5208 11.7292C15.6595 11.785 15.7793 11.8795 15.866 12.0013C15.9527 12.1232 16.0027 12.2673 16.01 12.4167Z" fill="#050000"/>
</mask>
<g mask="url(#mask0_5217_15126)">
<rect width="24" height="24" fill="#FFAB47"/>
</g>
</g>
<defs>
<clipPath id="clip0_5217_15126">
<rect width="24" height="24" fill="white"/>
</clipPath>
</defs>
</svg>
