<svg width="24" height="24" viewBox="0 0 24 24" fill="none" xmlns="http://www.w3.org/2000/svg">
<path d="M2 16.9C2 15.5906 2 14.9359 2.29472 14.455C2.45963 14.1859 2.68589 13.9596 2.955 13.7947C3.43594 13.5 4.09063 13.5 5.4 13.5H6.5C8.38562 13.5 9.32843 13.5 9.91421 14.0858C10.5 14.6716 10.5 15.6144 10.5 17.5V18.6C10.5 19.9094 10.5 20.5641 10.2053 21.045C10.0404 21.3141 9.81411 21.5404 9.545 21.7053C9.06406 22 8.40937 22 7.1 22C5.13594 22 4.15391 22 3.4325 21.5579C3.02884 21.3106 2.68945 20.9712 2.44208 20.5675C2 19.8461 2 18.8641 2 16.9Z" stroke="white" stroke-width="1.5"/>
<path d="M13.5 5.4C13.5 4.09063 13.5 3.43594 13.7947 2.955C13.9596 2.68589 14.1859 2.45963 14.455 2.29472C14.9359 2 15.5906 2 16.9 2C18.8641 2 19.8461 2 20.5675 2.44208C20.9712 2.68945 21.3106 3.02884 21.5579 3.4325C22 4.15391 22 5.13594 22 7.1C22 8.40937 22 9.06406 21.7053 9.545C21.5404 9.81411 21.3141 10.0404 21.045 10.2053C20.5641 10.5 19.9094 10.5 18.6 10.5H17.5C15.6144 10.5 14.6716 10.5 14.0858 9.91421C13.5 9.32843 13.5 8.38562 13.5 6.5V5.4Z" stroke="white" stroke-width="1.5"/>
<path d="M17.0133 5.70035C17.0007 5.81934 17 5.98137 17 6.25C17 6.51863 17.0007 6.68066 17.0133 6.79965C17.0192 6.85461 17.0263 6.88525 17.0315 6.90172C17.0339 6.90939 17.0357 6.91331 17.0363 6.91468L17.0369 6.91573L17.0369 6.91576M17.0133 5.70035L17.0369 6.91574L17.0369 6.91576M17.0133 5.70035C17.0192 5.64539 17.0263 5.61475 17.0315 5.59828M17.0133 5.70035L17.0315 5.59828M17.0369 6.91576C17.0369 6.91579 17.0369 6.91579 17.0369 6.91577L17.0369 6.91576ZM17.0315 5.59828C17.0339 5.59061 17.0357 5.58669 17.0363 5.58532M17.0315 5.59828L17.0363 5.58532M17.0363 5.58532L17.0369 5.58427M17.0363 5.58532L17.0369 5.58427M17.0369 5.58427L17.0369 5.58424M17.0369 5.58427C17.0369 5.58426 17.0369 5.58425 17.0369 5.58424M17.0369 5.58424C17.0499 5.56591 17.0659 5.5499 17.0843 5.53689M17.0369 5.58424L17.0843 5.53689M17.0843 5.53689L17.0853 5.53634M17.0843 5.53689L17.0842 5.53691C17.0842 5.53692 17.0842 5.53692 17.0842 5.53692L17.0842 5.53691C17.0843 5.5369 17.0843 5.53689 17.0843 5.53689ZM17.0843 5.53689L17.0853 5.53634M17.0853 5.53634C17.0867 5.53568 17.0906 5.5339 17.0983 5.53149M17.0853 5.53634L17.0983 5.53149M17.0983 5.53149C17.1148 5.52631 17.1454 5.51918 17.2004 5.51333M17.0983 5.53149L17.2004 5.51333M17.2004 5.51333C17.3193 5.50066 17.4814 5.5 17.75 5.5M17.2004 5.51333L17.75 5.5M17.75 5.5C18.0186 5.5 18.1807 5.50066 18.2996 5.51333M17.75 5.5L18.2996 5.51333M18.2996 5.51333C18.3546 5.51918 18.3852 5.52631 18.4017 5.53149M18.2996 5.51333L18.4017 5.53149M18.4017 5.53149C18.4094 5.5339 18.4133 5.53568 18.4147 5.53634M18.4017 5.53149L18.4147 5.53634M18.4147 5.53634L18.4157 5.53689M18.4147 5.53634L18.4157 5.53689M18.4157 5.53689L18.4158 5.53691M18.4157 5.53689L18.4158 5.53691M18.4158 5.53691C18.4341 5.54992 18.4501 5.56593 18.4631 5.58426C18.4631 5.58425 18.4631 5.58424 18.4631 5.58423C18.4631 5.58421 18.4631 5.58421 18.4631 5.58424L18.4631 5.58427L18.4637 5.58532C18.4643 5.58669 18.4661 5.59061 18.4685 5.59828C18.4737 5.61475 18.4808 5.64539 18.4867 5.70035C18.4993 5.81934 18.5 5.98137 18.5 6.25C18.5 6.51863 18.4993 6.68066 18.4867 6.79965C18.4808 6.85461 18.4737 6.88525 18.4685 6.90172C18.4661 6.90939 18.4643 6.91331 18.4637 6.91468L18.4631 6.91573L18.4631 6.91576C18.4501 6.93409 18.4341 6.9501 18.4157 6.96311C18.4157 6.9631 18.4158 6.9631 18.4158 6.96309C18.4158 6.96308 18.4158 6.96308 18.4158 6.96309L18.4157 6.96311L18.4147 6.96366C18.4133 6.96432 18.4094 6.9661 18.4017 6.96851C18.3852 6.97369 18.3546 6.98082 18.2996 6.98667C18.1807 6.99934 18.0186 7 17.75 7C17.4814 7 17.3193 6.99934 17.2004 6.98667C17.1454 6.98082 17.1148 6.97369 17.0983 6.96851C17.0906 6.9661 17.0867 6.96432 17.0853 6.96366L17.0843 6.96311L17.0842 6.96309L18.4158 5.53691Z" fill="#BDBDBD" stroke="#BDBDBD"/>
<path d="M19 13.5H17C15.5955 13.5 14.8933 13.5 14.3889 13.8371C14.1705 13.983 13.983 14.1705 13.8371 14.3889C13.5 14.8933 13.5 15.5955 13.5 17" stroke="white" stroke-width="1.5"/>
<path d="M12.75 22C12.75 22.4142 13.0858 22.75 13.5 22.75C13.9142 22.75 14.25 22.4142 14.25 22H12.75ZM12.75 19V22H14.25V19H12.75Z" fill="#BDBDBD"/>
<path d="M17 22H19C19.9319 22 20.3978 22 20.7654 21.8478C21.2554 21.6448 21.6448 21.2554 21.8478 20.7654C22 20.3978 22 19.9319 22 19" stroke="white" stroke-width="1.5" stroke-linejoin="round"/>
<path d="M22.75 13.5C22.75 13.0858 22.4142 12.75 22 12.75C21.5858 12.75 21.25 13.0858 21.25 13.5H22.75ZM22.75 17V13.5H21.25V17H22.75Z" fill="#BDBDBD"/>
<path d="M2 7.1C2 5.13594 2 4.15391 2.44208 3.4325C2.68945 3.02884 3.02884 2.68945 3.4325 2.44208C4.15391 2 5.13594 2 7.1 2C8.40937 2 9.06406 2 9.545 2.29472C9.81411 2.45963 10.0404 2.68589 10.2053 2.955C10.5 3.43594 10.5 4.09063 10.5 5.4V6.5C10.5 8.38562 10.5 9.32843 9.91421 9.91421C9.32843 10.5 8.38562 10.5 6.5 10.5H5.4C4.09063 10.5 3.43594 10.5 2.955 10.2053C2.68589 10.0404 2.45963 9.81411 2.29472 9.545C2 9.06406 2 8.40937 2 7.1Z" stroke="white" stroke-width="1.5"/>
<path d="M5.51333 5.70035C5.50066 5.81934 5.5 5.98137 5.5 6.25C5.5 6.51863 5.50066 6.68066 5.51333 6.79965C5.51918 6.85461 5.52631 6.88525 5.53149 6.90172C5.5339 6.90939 5.53568 6.91331 5.53634 6.91468L5.53689 6.91573L5.53691 6.91576M5.51333 5.70035L5.53689 6.91574L5.53691 6.91576M5.51333 5.70035C5.51918 5.64539 5.52631 5.61475 5.53149 5.59828M5.51333 5.70035L5.53149 5.59828M5.53691 6.91576C5.53692 6.91579 5.53692 6.91579 5.53691 6.91577L5.53691 6.91576ZM5.53149 5.59828C5.5339 5.59061 5.53568 5.58669 5.53634 5.58532M5.53149 5.59828L5.53634 5.58532M5.53634 5.58532L5.53689 5.58427M5.53634 5.58532L5.53689 5.58427M5.53689 5.58427L5.53691 5.58424M5.53689 5.58427C5.53689 5.58426 5.5369 5.58425 5.53691 5.58424M5.53691 5.58424C5.54992 5.56591 5.56593 5.5499 5.58427 5.53689M5.53691 5.58424L5.58427 5.53689M5.58427 5.53689L5.58532 5.53634M5.58427 5.53689L5.58424 5.53691C5.58422 5.53692 5.58421 5.53692 5.58422 5.53692L5.58423 5.53691C5.58426 5.5369 5.58427 5.53689 5.58427 5.53689ZM5.58427 5.53689L5.58532 5.53634M5.58532 5.53634C5.58669 5.53568 5.59061 5.5339 5.59828 5.53149M5.58532 5.53634L5.59828 5.53149M5.59828 5.53149C5.61475 5.52631 5.64539 5.51918 5.70035 5.51333M5.59828 5.53149L5.70035 5.51333M5.70035 5.51333C5.81934 5.50066 5.98137 5.5 6.25 5.5M5.70035 5.51333L6.25 5.5M6.25 5.5C6.51863 5.5 6.68066 5.50066 6.79965 5.51333M6.25 5.5L6.79965 5.51333M6.79965 5.51333C6.85461 5.51918 6.88525 5.52631 6.90172 5.53149M6.79965 5.51333L6.90172 5.53149M6.90172 5.53149C6.90939 5.5339 6.91331 5.53568 6.91468 5.53634M6.90172 5.53149L6.91468 5.53634M6.91468 5.53634L6.91573 5.53689M6.91468 5.53634L6.91573 5.53689M6.91573 5.53689L6.91576 5.53691M6.91573 5.53689L6.91576 5.53691M6.91576 5.53691C6.93409 5.54992 6.9501 5.56593 6.96311 5.58426C6.9631 5.58425 6.9631 5.58424 6.96309 5.58423C6.96308 5.58421 6.96308 5.58421 6.96309 5.58424L6.96311 5.58427L6.96366 5.58532C6.96432 5.58669 6.9661 5.59061 6.96851 5.59828C6.97369 5.61475 6.98082 5.64539 6.98667 5.70035C6.99934 5.81934 7 5.98137 7 6.25C7 6.51863 6.99934 6.68066 6.98667 6.79965C6.98082 6.85461 6.97369 6.88525 6.96851 6.90172C6.9661 6.90939 6.96432 6.91331 6.96366 6.91468L6.96311 6.91573L6.96309 6.91576C6.95008 6.93409 6.93407 6.9501 6.91574 6.96311C6.91575 6.9631 6.91575 6.9631 6.91577 6.96309C6.91579 6.96308 6.91579 6.96308 6.91576 6.96309L6.91573 6.96311L6.91468 6.96366C6.91331 6.96432 6.90939 6.9661 6.90172 6.96851C6.88525 6.97369 6.85461 6.98082 6.79965 6.98667C6.68066 6.99934 6.51863 7 6.25 7C5.98137 7 5.81934 6.99934 5.70035 6.98667C5.64539 6.98082 5.61475 6.97369 5.59828 6.96851C5.59061 6.9661 5.58669 6.96432 5.58532 6.96366L5.58427 6.96311L5.58424 6.96309L6.91576 5.53691Z" fill="#BDBDBD" stroke="#BDBDBD"/>
<path d="M5.51333 17.2004C5.50066 17.3193 5.5 17.4814 5.5 17.75C5.5 18.0186 5.50066 18.1807 5.51333 18.2996C5.51918 18.3546 5.52631 18.3852 5.53149 18.4017C5.5339 18.4094 5.53568 18.4133 5.53634 18.4147L5.53689 18.4157L5.53691 18.4158M5.51333 17.2004L5.53689 18.4157L5.53691 18.4158M5.51333 17.2004C5.51918 17.1454 5.52631 17.1148 5.53149 17.0983M5.51333 17.2004L5.53149 17.0983M5.53691 18.4158C5.53692 18.4158 5.53692 18.4158 5.53691 18.4158L5.53691 18.4158ZM5.53149 17.0983C5.5339 17.0906 5.53568 17.0867 5.53634 17.0853M5.53149 17.0983L5.53634 17.0853M5.53634 17.0853L5.53689 17.0843M5.53634 17.0853L5.53689 17.0843M5.53689 17.0843L5.53691 17.0842M5.53689 17.0843C5.53689 17.0843 5.5369 17.0842 5.53691 17.0842M5.53691 17.0842C5.54992 17.0659 5.56593 17.0499 5.58427 17.0369M5.53691 17.0842L5.58427 17.0369M5.58427 17.0369L5.58532 17.0363M5.58427 17.0369L5.58424 17.0369C5.58422 17.0369 5.58421 17.0369 5.58422 17.0369L5.58423 17.0369C5.58426 17.0369 5.58427 17.0369 5.58427 17.0369ZM5.58427 17.0369L5.58532 17.0363M5.58532 17.0363C5.58669 17.0357 5.59061 17.0339 5.59828 17.0315M5.58532 17.0363L5.59828 17.0315M5.59828 17.0315C5.61475 17.0263 5.64539 17.0192 5.70035 17.0133M5.59828 17.0315L5.70035 17.0133M5.70035 17.0133C5.81934 17.0007 5.98137 17 6.25 17M5.70035 17.0133L6.25 17M6.25 17C6.51863 17 6.68066 17.0007 6.79965 17.0133M6.25 17L6.79965 17.0133M6.79965 17.0133C6.85461 17.0192 6.88525 17.0263 6.90172 17.0315M6.79965 17.0133L6.90172 17.0315M6.90172 17.0315C6.90939 17.0339 6.91331 17.0357 6.91468 17.0363M6.90172 17.0315L6.91468 17.0363M6.91468 17.0363L6.91573 17.0369M6.91468 17.0363L6.91573 17.0369M6.91573 17.0369L6.91576 17.0369M6.91573 17.0369L6.91576 17.0369M6.91576 17.0369C6.93409 17.0499 6.9501 17.0659 6.96311 17.0843C6.9631 17.0843 6.9631 17.0842 6.96309 17.0842C6.96308 17.0842 6.96308 17.0842 6.96309 17.0842L6.96311 17.0843L6.96366 17.0853C6.96432 17.0867 6.9661 17.0906 6.96851 17.0983C6.97369 17.1148 6.98082 17.1454 6.98667 17.2004C6.99934 17.3193 7 17.4814 7 17.75C7 18.0186 6.99934 18.1807 6.98667 18.2996C6.98082 18.3546 6.97369 18.3852 6.96851 18.4017C6.9661 18.4094 6.96432 18.4133 6.96366 18.4147L6.96311 18.4157L6.96309 18.4158C6.95008 18.4341 6.93407 18.4501 6.91574 18.4631C6.91575 18.4631 6.91575 18.4631 6.91577 18.4631C6.91579 18.4631 6.91579 18.4631 6.91576 18.4631L6.91573 18.4631L6.91468 18.4637C6.91331 18.4643 6.90939 18.4661 6.90172 18.4685C6.88525 18.4737 6.85461 18.4808 6.79965 18.4867C6.68066 18.4993 6.51863 18.5 6.25 18.5C5.98137 18.5 5.81934 18.4993 5.70035 18.4867C5.64539 18.4808 5.61475 18.4737 5.59828 18.4685C5.59061 18.4661 5.58669 18.4643 5.58532 18.4637L5.58427 18.4631L5.58424 18.4631L6.91576 17.0369Z" fill="#BDBDBD" stroke="#BDBDBD"/>
<path d="M16.5 17.75C16.5 17.3885 16.5006 17.155 16.5185 16.9791C16.5355 16.8115 16.564 16.7525 16.5843 16.7222C16.6207 16.6676 16.6676 16.6207 16.7222 16.5843C16.7525 16.564 16.8115 16.5355 16.9791 16.5185C17.155 16.5006 17.3885 16.5 17.75 16.5C18.1115 16.5 18.345 16.5006 18.5209 16.5185C18.6885 16.5355 18.7475 16.564 18.7778 16.5843C18.8324 16.6207 18.8793 16.6676 18.9157 16.7222L19.3139 16.4562L18.9157 16.7222C18.936 16.7525 18.9645 16.8115 18.9815 16.9791C18.9994 17.155 19 17.3885 19 17.75C19 18.1115 18.9994 18.345 18.9815 18.5209C18.9645 18.6885 18.936 18.7475 18.9157 18.7778C18.8793 18.8324 18.8324 18.8793 18.7778 18.9157C18.7475 18.936 18.6885 18.9645 18.5209 18.9815C18.345 18.9994 18.1115 19 17.75 19C17.3885 19 17.155 18.9994 16.9791 18.9815C16.8115 18.9645 16.7525 18.936 16.7222 18.9157L16.4562 19.3139L16.7222 18.9157C16.6676 18.8793 16.6207 18.8324 16.5843 18.7778C16.564 18.7475 16.5355 18.6885 16.5185 18.5209C16.5006 18.345 16.5 18.1115 16.5 17.75Z" fill="#BDBDBD" stroke="#BDBDBD"/>
</svg>
