<svg width="24" height="24" viewBox="0 0 24 24" fill="none" xmlns="http://www.w3.org/2000/svg">
<path d="M14.4481 13.0788V12.521C14.4481 10.9769 13.1376 9.7251 11.5211 9.7251H6.94744C5.33092 9.7251 4.02051 10.9768 4.02051 12.521V13.0788M9.23424 9.71614C7.4547 9.71614 6.01213 8.28523 6.01213 6.52008V5.1961C6.01213 4.31353 6.37279 3.51461 6.95586 2.93631C7.57354 2.32365 8.38383 2.00041 9.25549 2C11.0543 2 12.4564 3.41905 12.4564 5.19606V6.52008C12.4564 8.28523 11.0137 9.71614 9.23424 9.71614Z" stroke="white" stroke-miterlimit="22.9256" stroke-linecap="round" stroke-linejoin="round"/>
<path d="M11.8191 4.81386H9.00622C7.88755 4.81386 6.97519 4.01622 6.97519 3.03826V2.91776M18.6183 5.23763V5.24498M2 13.0788H16.4687L15.084 22H3.38324L2 13.0788ZM19.5848 2C20.0923 2.15144 20.5571 2.42008 20.9416 2.78423C20.746 3.11826 20.7294 3.54585 20.9358 3.90328C21.1423 4.26095 21.5212 4.46037 21.9085 4.45772C21.9694 4.71447 22.0001 4.97745 22 5.24133C22 5.51112 21.9683 5.77344 21.9086 6.02494C21.5212 6.02228 21.1423 6.2217 20.9358 6.57938C20.7295 6.93676 20.7461 7.36423 20.9415 7.69826C20.5618 8.05739 20.099 8.32959 19.5848 8.4827C19.3934 8.14593 19.0312 7.91743 18.6182 7.91743C18.2052 7.91743 17.843 8.14589 17.6517 8.4827C17.1442 8.33123 16.6794 8.06258 16.2949 7.69842C16.4905 7.3644 16.5071 6.93685 16.3007 6.57938C16.0942 6.2217 15.7153 6.02232 15.328 6.02494C15.2671 5.76819 15.2364 5.5052 15.2365 5.24133C15.2365 4.97158 15.2682 4.70925 15.3279 4.45776C15.7153 4.46042 16.0942 4.261 16.3007 3.90332C16.5071 3.54593 16.4905 3.11846 16.295 2.78444C16.6747 2.42531 17.1375 2.15311 17.6517 2.00004C17.8431 2.33681 18.2053 2.56527 18.6183 2.56527C19.0313 2.56523 19.3934 2.33676 19.5848 2Z" stroke="white" stroke-miterlimit="22.9256" stroke-linecap="round" stroke-linejoin="round"/>
<path fill-rule="evenodd" clip-rule="evenodd" d="M9.23432 18.7842C9.91996 18.7842 10.4791 18.225 10.4791 17.5394C10.4791 16.8537 9.91992 16.2946 9.23432 16.2946C8.54871 16.2946 7.9895 16.8538 7.9895 17.5394C7.98946 18.225 8.54867 18.7842 9.23432 18.7842Z" stroke="#BDBDBD" stroke-miterlimit="22.9256" stroke-linecap="round" stroke-linejoin="round"/>
</svg>
