<svg width="24" height="24" viewBox="0 0 24 24" fill="none" xmlns="http://www.w3.org/2000/svg">
<path d="M5.33326 16.3086C4.01903 16.3086 2.95239 17.3752 2.95239 18.6895V20.5943C2.95239 20.8562 3.16668 21.0705 3.42863 21.0705H7.23805C7.50001 21.0705 7.71429 20.8562 7.71429 20.5943V18.6895C7.71413 17.3752 6.64749 16.3086 5.33326 16.3086ZM6.76182 20.1182H3.90471V18.6896C3.90471 17.9039 4.54756 17.2611 5.33326 17.2611C6.11897 17.2611 6.76182 17.9039 6.76182 18.6896V20.1182Z" fill="#BDBDBD"/>
<path d="M13.9046 21.0705C14.1666 21.0705 14.3809 20.8562 14.3809 20.5943V18.6895C14.3809 17.3752 13.3142 16.3086 12 16.3086C10.6858 16.3086 9.61914 17.3752 9.61914 18.6895V20.5943C9.61914 20.8562 9.83342 21.0705 10.0954 21.0705H13.9046ZM10.5713 18.6896C10.5713 17.9039 11.2141 17.2611 11.9998 17.2611C12.7856 17.2611 13.4284 17.9039 13.4284 18.6896V20.1182H10.5713V18.6896Z" fill="#BDBDBD"/>
<path d="M20.5707 21.0705C20.8326 21.0705 21.0469 20.8562 21.0469 20.5943V18.6895C21.0469 17.3752 19.9803 16.3086 18.666 16.3086C17.3518 16.3086 16.2852 17.3752 16.2852 18.6895V20.5943C16.2852 20.8562 16.4994 21.0705 16.7614 21.0705H20.5707ZM17.2373 18.6896C17.2373 17.9039 17.8802 17.2611 18.6659 17.2611C19.4516 17.2611 20.0944 17.9039 20.0944 18.6896V20.1182H17.2373V18.6896Z" fill="#BDBDBD"/>
<path d="M21.5234 2.5H2.47624C2.21428 2.5 2 2.71428 2 2.97624V13.9284C2 14.1903 2.21428 14.4046 2.47624 14.4046H21.5238C21.7857 14.4046 22 14.1903 22 13.9284V2.97624C21.9998 2.71428 21.7856 2.5 21.5236 2.5H21.5234ZM21.0473 13.4521H2.95199V3.45223H21.0469L21.0473 13.4521Z" fill="white"/>
</svg>
