<svg width="24" height="24" viewBox="0 0 24 24" fill="none" xmlns="http://www.w3.org/2000/svg">
<g clip-path="url(#clip0_5785_13018)">
<mask id="mask0_5785_13018" style="mask-type:luminance" maskUnits="userSpaceOnUse" x="0" y="0" width="24" height="24">
<path d="M0.5 23.5V0.5H23.5V23.5H0.5Z" fill="white" stroke="black"/>
<path d="M14.7812 22.125C14.7812 22.1424 14.7951 22.1563 14.8125 22.1563C14.8299 22.1563 14.8438 22.1424 14.8438 22.125C14.8438 22.1076 14.8299 22.0938 14.8125 22.0938C14.7951 22.0938 14.7812 22.1076 14.7812 22.125Z" fill="white" stroke="black"/>
<path d="M9.15625 1.875C9.15625 1.89239 9.17011 1.90625 9.1875 1.90625C9.20489 1.90625 9.21875 1.89239 9.21875 1.875C9.21875 1.85761 9.20489 1.84375 9.1875 1.84375C9.17011 1.84375 9.15625 1.85761 9.15625 1.875Z" fill="white" stroke="black"/>
<path d="M4.35937 12.0313C4.37677 12.0313 4.39062 12.0174 4.39062 12C4.39062 11.9826 4.37677 11.9688 4.35937 11.9688C4.35036 11.9688 4.3419 11.973 4.33708 11.9778C4.33235 11.9826 4.32812 11.9909 4.32812 12C4.32812 12.0091 4.33234 12.0174 4.33706 12.0222C4.34189 12.027 4.35038 12.0313 4.35937 12.0313Z" fill="white" stroke="black"/>
</mask>
<g mask="url(#mask0_5785_13018)">
<mask id="mask1_5785_13018" style="mask-type:luminance" maskUnits="userSpaceOnUse" x="0" y="0" width="24" height="24">
<path d="M23.4999 23.5V0.500071H0.5V23.5H23.4999Z" fill="white" stroke="white"/>
</mask>
<g mask="url(#mask1_5785_13018)">
<path d="M14.3455 20.7805C14.3455 20.8323 14.3872 20.874 14.439 20.874C14.4907 20.874 14.5325 20.8323 14.5325 20.7805C14.5325 20.7288 14.4907 20.687 14.439 20.687C14.3872 20.687 14.3455 20.7288 14.3455 20.7805Z" fill="white" stroke="white"/>
<path d="M9.46755 3.21959C9.46755 3.27134 9.50929 3.31309 9.56105 3.31309C9.6128 3.31309 9.65454 3.27134 9.65454 3.21959C9.65454 3.16784 9.6128 3.1261 9.56105 3.1261C9.50929 3.1261 9.46755 3.16784 9.46755 3.21959Z" fill="white" stroke="white"/>
<path d="M5.37403 12.0935C5.42579 12.0935 5.46753 12.0517 5.46753 12C5.46753 11.9482 5.42579 11.9065 5.37403 11.9065C5.32188 11.9065 5.28054 11.9482 5.28054 12C5.28054 12.0517 5.32181 12.0935 5.37403 12.0935Z" fill="white" stroke="white"/>
<path d="M3.14453 9.5835C3.83274 7.1343 5.78438 4.86316 8.0226 3.74734" stroke="white" stroke-linecap="round" stroke-linejoin="round"/>
<path d="M14.4165 3.14486C17.4084 3.98551 20.0145 6.59162 20.8551 9.5835" stroke="white" stroke-linecap="round" stroke-linejoin="round"/>
<path d="M20.8551 14.4168C20.1669 16.866 18.2153 19.1371 15.9771 20.2529" stroke="white" stroke-linecap="round" stroke-linejoin="round"/>
<path d="M9.58317 20.8555C6.59129 20.0148 3.98518 17.4087 3.14453 14.4168" stroke="white" stroke-linecap="round" stroke-linejoin="round"/>
<path d="M12.813 2.81309C12.813 3.26228 12.4492 3.6261 12 3.6261C11.5508 3.6261 11.187 3.26228 11.187 2.81309C11.187 2.3639 11.5508 2.00008 12 2.00008C12.4492 2.00008 12.813 2.3639 12.813 2.81309Z" stroke="#BDBDBD" stroke-linecap="round" stroke-linejoin="round"/>
<path d="M22 12C22 12.4492 21.6362 12.813 21.187 12.813C20.7378 12.813 20.374 12.4492 20.374 12C20.374 11.5508 20.7378 11.187 21.187 11.187C21.6362 11.187 22 11.5508 22 12Z" stroke="#BDBDBD" stroke-linecap="round" stroke-linejoin="round"/>
<path d="M3.62602 12C3.62602 12.4492 3.2622 12.813 2.81301 12.813C2.36382 12.813 2 12.4492 2 12C2 11.5508 2.36382 11.187 2.81301 11.187C3.2622 11.187 3.62602 11.5508 3.62602 12Z" stroke="#BDBDBD" stroke-linecap="round" stroke-linejoin="round"/>
<path d="M12.813 21.1871C12.813 21.6363 12.4492 22.0001 12 22.0001C11.5508 22.0001 11.187 21.6363 11.187 21.1871C11.187 20.7379 11.5508 20.3741 12 20.3741C12.4492 20.3741 12.813 20.7379 12.813 21.1871Z" stroke="#BDBDBD" stroke-linecap="round" stroke-linejoin="round"/>
<path d="M10.374 14.0326V15.2521" stroke="#BDBDBD" stroke-linecap="round" stroke-linejoin="round"/>
<path d="M10.3741 15.2521H8.74805V14.4391C8.74805 13.0919 9.83992 12 11.1871 12H12.8131C14.1603 12 15.2521 13.0919 15.2521 14.4391V15.2521H10.3741Z" stroke="#BDBDBD" stroke-linecap="round" stroke-linejoin="round"/>
<path d="M13.626 15.2521V14.0326" stroke="#BDBDBD" stroke-linecap="round" stroke-linejoin="round"/>
<path d="M13.6261 9.56099C13.6261 10.459 12.898 11.187 12 11.187C11.1021 11.187 10.374 10.459 10.374 9.56099C10.374 8.66302 11.1021 7.93497 12 7.93497C12.898 7.93497 13.6261 8.66302 13.6261 9.56099Z" stroke="#BDBDBD" stroke-linecap="round" stroke-linejoin="round"/>
<path d="M5.57642 10.3866C6.30719 7.53659 9.00521 5.37402 12 5.37402C15.5862 5.37402 18.626 8.41391 18.626 12.0001C18.626 15.7135 15.476 18.6261 12 18.6261C9.06687 18.6261 6.33711 16.5421 5.57642 13.6135" stroke="white" stroke-linecap="round" stroke-linejoin="round"/>
</g>
</g>
</g>
<defs>
<clipPath id="clip0_5785_13018">
<rect width="24" height="24" fill="white"/>
</clipPath>
</defs>
</svg>
