<svg width="20" height="20" viewBox="0 0 20 20" fill="none" xmlns="http://www.w3.org/2000/svg">
<path d="M18.2496 9.84016C18.3788 9.82698 18.4975 9.76271 18.5796 9.66149C18.6617 9.56027 18.7005 9.43038 18.6874 9.3004C18.4922 7.30775 17.6296 5.44105 16.2409 4.0067C14.8523 2.57235 13.0203 1.65557 11.0456 1.40685L11.1523 0.988478C11.1824 0.869058 11.1852 0.744315 11.1604 0.623647C11.1357 0.502979 11.0841 0.389534 11.0094 0.291858C10.9406 0.201179 10.8519 0.127681 10.7502 0.0770656C10.6486 0.0264507 10.5367 8.00801e-05 10.4233 0H9.43657C9.20082 0 8.98304 0.111566 8.83955 0.306138C8.76534 0.407803 8.71567 0.525447 8.69446 0.649762C8.67325 0.774077 8.68109 0.901653 8.71735 1.02239L8.83156 1.40395C4.78255 1.90689 1.57075 5.14611 1.16778 9.3399C1.15535 9.47 1.19472 9.59975 1.27725 9.70068C1.35978 9.80162 1.47873 9.8655 1.60801 9.87831C1.6721 9.88459 1.73678 9.87809 1.79837 9.85919C1.85995 9.84028 1.91723 9.80934 1.96692 9.76814C2.0166 9.72694 2.05773 9.67628 2.08793 9.61907C2.11814 9.56186 2.13683 9.49922 2.14294 9.43473C2.53283 5.37505 5.88058 2.31322 9.92937 2.31322C13.9598 2.31322 17.3055 5.35943 17.7127 9.39902C17.726 9.52904 17.79 9.64845 17.8906 9.73113C17.9912 9.8138 18.1203 9.853 18.2496 9.84016ZM9.72954 0.985132H10.1414L10.0529 1.33366C10.0114 1.33322 9.97106 1.32786 9.92937 1.32786C9.89677 1.32786 9.86549 1.33188 9.83312 1.33233L9.72954 0.985132ZM19.51 10.4114H0.475388C0.348008 10.4152 0.227129 10.4689 0.138382 10.5609C0.0496356 10.6529 0 10.7761 0 10.9043C0 11.0325 0.0496356 11.1557 0.138382 11.2477C0.227129 11.3397 0.348008 11.3933 0.475388 11.3972H0.815153C1.0325 12.2114 1.7657 12.8156 2.64327 12.8156H4.5091C5.11877 13.5629 6.93358 15.7755 6.93358 15.7755C6.946 15.79 6.95909 15.8043 6.97328 15.8181L9.85108 18.5805L10.1409 18.8337L9.7484 19.108C9.64468 19.1838 9.57463 19.2975 9.55327 19.4247C9.53192 19.552 9.56096 19.6825 9.63416 19.7884C9.70737 19.8943 9.81891 19.9672 9.94487 19.9913C10.0708 20.0154 10.2012 19.9889 10.3079 19.9175L14.0928 17.2537L15.4412 18.5278C15.532 18.614 15.6522 18.6619 15.777 18.6617C15.9072 18.6617 16.0376 18.6097 16.1338 18.5066C16.2228 18.4114 16.2705 18.2845 16.2665 18.1539C16.2625 18.0233 16.2071 17.8996 16.1126 17.81L14.4306 16.22C14.2769 16.0752 14.0567 16.0546 13.8775 16.145C13.8041 15.9086 13.7981 15.6563 13.8602 15.4167C13.9631 15.0254 14.1565 14.664 14.4246 14.3622L15.543 13.1095C15.6155 13.0281 15.6588 12.9248 15.6663 12.8159H17.2166C18.0937 12.8159 18.8265 12.2116 19.0438 11.3974H19.51C19.6399 11.3974 19.7646 11.3455 19.8565 11.253C19.9484 11.1605 20 11.0351 20 10.9044C20 10.7736 19.9484 10.6482 19.8565 10.5558C19.7646 10.4633 19.6399 10.4114 19.51 10.4114ZM13.6958 13.7039C13.3236 14.122 13.0552 14.623 12.9127 15.1657C12.7704 15.706 12.828 16.28 13.0746 16.7809L10.9706 18.2536L10.5109 17.8524L7.67077 15.1251C7.52085 14.943 6.49646 13.6932 5.77834 12.8156H6.51021C6.51021 12.8156 8.16734 14.239 8.17976 14.2479C8.73309 14.6406 10.003 14.9901 10.6149 14.9901C11.0461 14.989 11.4725 14.8989 11.8677 14.7254C12.2629 14.5519 12.6185 14.2986 12.9125 13.9813C13.1112 13.7669 13.2944 13.577 13.4368 13.4308C13.677 13.1843 13.9402 13.0046 14.2186 12.8962C14.3035 12.8623 14.3917 12.8374 14.4818 12.8221L13.6958 13.7039ZM12.1968 13.3088C11.9945 13.5274 11.7497 13.702 11.4776 13.8217C11.2055 13.9414 10.9119 14.0036 10.6149 14.0045C10.1483 14.0045 9.12431 13.6988 8.76037 13.4536L8.0183 12.8156H12.6643C12.5299 12.9553 12.372 13.1198 12.1968 13.3088ZM17.2166 11.8303H2.64327C2.48768 11.8302 2.33464 11.7904 2.19847 11.7147C2.0623 11.6389 1.94743 11.5297 1.86461 11.3972H17.9943C17.9117 11.5297 17.797 11.6389 17.661 11.7146C17.5249 11.7904 17.372 11.8302 17.2166 11.8303Z" fill="white"/>
<path d="M15.7408 8.11694C15.8022 8.09776 15.8593 8.06659 15.9087 8.0252C15.9582 7.98381 15.999 7.93303 16.0289 7.87574C16.0588 7.81846 16.0772 7.75581 16.083 7.69137C16.0889 7.62693 16.082 7.56197 16.0628 7.5002C15.1496 4.54972 12.5616 3.69891 12.4518 3.66365C12.3282 3.62496 12.1944 3.63697 12.0796 3.69706C11.9647 3.75716 11.8781 3.86048 11.8386 3.98452C11.7994 4.10892 11.8108 4.24387 11.8702 4.35987C11.9296 4.47587 12.0323 4.56346 12.1558 4.60349C12.2458 4.63294 14.3707 5.34831 15.1272 7.79273C15.1659 7.91756 15.2522 8.02182 15.3673 8.08261C15.4824 8.14341 15.6167 8.15575 15.7408 8.11694Z" fill="#BDBDBD"/>
</svg>
