<svg width="24" height="24" viewBox="0 0 24 24" fill="none" xmlns="http://www.w3.org/2000/svg">
<path d="M9.33599 11.5259V9.09481C9.33599 8.8391 9.52018 8.61409 9.77249 8.55942L13.223 7.81966H13.2298C13.6389 7.73775 13.9423 7.4584 14.0855 7.02522C14.2252 6.60936 14.1264 6.14888 13.8298 5.82505C13.5263 5.49782 13.1377 5.36823 12.7285 5.46379H12.7251L8.2076 6.42857C8.15972 6.43895 8.12229 6.44235 8.09493 6.44235H5.23783C4.51865 6.44235 3.83655 6.72536 3.31501 7.24351C2.79 7.76505 2.5 8.45387 2.5 9.18358V11.4781C2.5 12.0168 2.93983 12.4567 3.47856 12.4567H8.41543C8.92345 12.4567 9.33599 12.0407 9.33599 11.526V11.5259ZM5.23776 7.38322H8.09499C8.19381 7.38322 8.28924 7.37303 8.40531 7.34912L12.9195 6.38774C12.9228 6.38774 12.9228 6.38774 12.9262 6.38435H12.933C12.9809 6.37416 13.0389 6.35705 13.1377 6.46599C13.2025 6.53777 13.2264 6.63666 13.1957 6.72876C13.1444 6.88218 13.0797 6.89237 13.0422 6.8991H13.0284L9.57818 7.63893C8.89642 7.78563 8.39852 8.39587 8.39852 9.09481V11.5155H4.96174V9.19703C4.96173 9.09397 4.92078 8.99515 4.84792 8.92227C4.77506 8.84939 4.67624 8.80844 4.57318 8.8084C4.52213 8.80837 4.47157 8.81841 4.42439 8.83792C4.37721 8.85744 4.33434 8.88606 4.29823 8.92215C4.26212 8.95824 4.23347 9.00109 4.21392 9.04826C4.19437 9.09542 4.1843 9.14597 4.18429 9.19703V11.5155H3.47516C3.45465 11.5155 3.43434 11.4952 3.43434 11.4746V9.18011C3.43774 8.20828 4.26287 7.38322 5.23776 7.38322Z" fill="white"/>
<path d="M10.7613 3.23766H19.1419C19.3295 3.23766 19.4793 3.39116 19.4793 3.58207V11.1714C19.4793 11.3623 19.3295 11.5157 19.1419 11.5157H14.8663C14.6072 11.5157 14.3957 11.7272 14.3957 11.9863C14.3957 12.2455 14.6071 12.4569 14.8663 12.4569H19.1419C19.8476 12.4569 20.4204 11.8807 20.4204 11.1714V3.58201C20.4204 2.87268 19.8476 2.29653 19.1419 2.29653H10.7613C10.5022 2.29653 10.2907 2.50802 10.2907 2.76713C10.2907 3.02624 10.5022 3.23766 10.7613 3.23766Z" fill="#BDBDBD"/>
<path fill-rule="evenodd" clip-rule="evenodd" d="M8.47689 15.73C8.47689 14.6354 7.58703 13.7422 6.48928 13.7422C5.39472 13.7422 4.50146 14.632 4.50146 15.73C4.50146 16.8243 5.39132 17.7176 6.48928 17.7176C7.58703 17.7176 8.47689 16.8243 8.47689 15.73ZM6.48928 16.7767C5.91313 16.7767 5.44253 16.3062 5.44253 15.73C5.44253 15.1539 5.91313 14.6832 6.48935 14.6832C7.06549 14.6832 7.53603 15.1538 7.53603 15.73C7.53603 16.3063 7.06882 16.7767 6.48928 16.7767ZM14.8527 15.73C14.8527 14.6354 13.9629 13.7422 12.8649 13.7422C11.7706 13.7422 10.8773 14.632 10.8773 15.73C10.8773 16.8243 11.7672 17.7176 12.8649 17.7176C13.9595 17.7176 14.8527 16.8243 14.8527 15.73ZM12.8649 16.7767C12.2887 16.7767 11.8182 16.3062 11.8182 15.73C11.8182 15.1539 12.2887 14.6832 12.8649 14.6832C13.441 14.6832 13.9117 15.1538 13.9117 15.73C13.9117 16.3063 13.4411 16.7767 12.8649 16.7767ZM19.2374 13.7422C18.1427 13.7422 17.2495 14.632 17.2495 15.73C17.2495 16.8243 18.1393 17.7176 19.2374 17.7176C20.3317 17.7176 21.2249 16.8277 21.2249 15.73C21.2249 14.6354 20.3351 13.7422 19.2374 13.7422ZM19.2374 16.7767C18.6611 16.7767 18.1906 16.3062 18.1906 15.73C18.1906 15.1539 18.6611 14.6832 19.2374 14.6832C19.8135 14.6832 20.284 15.1538 20.284 15.73C20.284 16.3063 19.8135 16.7767 19.2374 16.7767ZM16.0493 18.0245C14.955 18.0245 14.0617 18.9144 14.0617 20.0121C14.0617 21.1067 14.9516 22 16.0493 22C17.1439 22 18.0371 21.1101 18.0371 20.0121C18.0371 18.9178 17.1473 18.0245 16.0493 18.0245ZM16.0493 21.0589C15.4731 21.0589 15.0028 20.5883 15.0028 20.0121C15.0028 19.436 15.4731 18.9654 16.0493 18.9654C16.6257 18.9654 17.096 19.436 17.096 20.0121C17.0963 20.1497 17.0694 20.2859 17.0169 20.413C16.9644 20.5401 16.8873 20.6556 16.7901 20.7529C16.6928 20.8502 16.5773 20.9273 16.4502 20.9798C16.3231 21.0323 16.1868 21.0591 16.0493 21.0589ZM9.67707 18.0245C8.58277 18.0245 7.68952 18.9144 7.68952 20.0121C7.68952 21.1067 8.57938 22 9.67707 22C10.7714 22 11.6649 21.1101 11.6649 20.0121C11.6649 18.9178 10.7714 18.0245 9.67707 18.0245ZM9.67707 21.0589C9.10092 21.0589 8.63038 20.5883 8.63038 20.0121C8.63038 19.436 9.10092 18.9654 9.67707 18.9654C10.2533 18.9654 10.7239 19.436 10.7239 20.0121C10.7239 20.5919 10.2533 21.0589 9.67707 21.0589Z" fill="white"/>
<path fill-rule="evenodd" clip-rule="evenodd" d="M6.60168 5.97549C7.69624 5.97549 8.5895 5.08557 8.5895 3.98761C8.5895 2.89325 7.69964 2 6.60168 2C5.50732 2 4.61407 2.88986 4.61407 3.98761C4.61407 5.08217 5.50393 5.97549 6.60168 5.97549ZM7.64837 3.98761C7.64837 3.4114 7.17783 2.94113 6.60168 2.94113C6.02547 2.94113 5.55494 3.4114 5.55494 3.98761C5.55494 4.56403 6.02547 5.03429 6.60168 5.03429C7.17783 5.03429 7.64837 4.56403 7.64837 3.98761Z" fill="#BDBDBD"/>
</svg>
