<svg width="24" height="24" viewBox="0 0 24 24" fill="none" xmlns="http://www.w3.org/2000/svg">
<path fill-rule="evenodd" clip-rule="evenodd" d="M20.5981 9.36445L18.7973 7.61065L18.8566 7.36798L20.8257 6.80059C20.9753 6.75754 21.0782 6.62361 21.0782 6.47166C21.0782 6.31972 20.9753 6.18578 20.8257 6.14273L18.8566 5.57534L18.4274 3.81983C18.4091 3.74479 18.3653 3.67797 18.3031 3.63017C18.2409 3.58236 18.1641 3.55636 18.0849 3.55636C18.0057 3.55636 17.9288 3.58236 17.8666 3.63017C17.8045 3.67797 17.7607 3.74479 17.7423 3.81983L17.3135 5.57534L16.846 5.71005L14.0334 2.97092C13.5134 2.46432 12.8218 2.1853 12.0866 2.1853C11.351 2.1853 10.6597 2.46432 10.1398 2.97092L3.57514 9.36445C2.50152 10.41 2.50152 12.1116 3.57514 13.1571L3.90388 13.4773L3.5173 14.8135C3.31493 15.8513 2.07993 17.6337 2.06089 17.6611C2.01483 17.7272 1.99385 17.8067 2.00156 17.8862C2.00928 17.9656 2.0452 18.04 2.10315 18.0964L6.00781 21.8995C6.06474 21.955 6.13953 21.9898 6.21966 21.9981C6.29979 22.0064 6.3804 21.9876 6.448 21.9448L8.54612 20.6221C9.08491 20.2824 9.60073 19.9072 10.0946 19.5068L10.1397 19.5506C10.6596 20.0572 11.3509 20.3361 12.0865 20.3361C12.8218 20.3361 13.5133 20.0572 14.0333 19.5506L20.5979 13.1571C21.6714 12.1114 21.6714 10.4101 20.5981 9.36445ZM17.8644 6.08388C17.8218 6.12769 17.768 6.15976 17.7086 6.17686L16.6855 6.47166L17.7086 6.76646C17.768 6.78354 17.8218 6.81561 17.8644 6.85943C17.9071 6.90324 17.9371 6.95725 17.9514 7.01599L18.0849 7.56246L18.2187 7.01599C18.233 6.95726 18.263 6.90326 18.3057 6.85945C18.3483 6.81563 18.402 6.78356 18.4615 6.76646L19.4846 6.47166L18.4615 6.17686C18.402 6.15978 18.3483 6.12771 18.3056 6.08389C18.263 6.04008 18.233 5.98607 18.2187 5.92733L18.0849 5.38086L17.9514 5.92733C17.9371 5.98606 17.9071 6.04006 17.8644 6.08388ZM6.30458 21.2184L8.16333 20.0464C9.07285 19.4725 9.91783 18.8069 10.6843 18.0607L15.0587 13.8C15.1546 13.7065 15.2076 13.5823 15.2076 13.4502C15.2076 13.318 15.1547 13.1938 15.0587 13.1005C14.8665 12.913 14.5319 12.9135 14.3403 13.1003L11.8449 15.5307L11.6562 15.7145C11.6238 15.7473 11.5849 15.7734 11.5419 15.7914C11.499 15.8093 11.4528 15.8188 11.406 15.8192C11.3592 15.8196 11.3129 15.8109 11.2696 15.7937C11.2263 15.7764 11.187 15.751 11.1539 15.7188C11.1209 15.6865 11.0947 15.6483 11.077 15.6061C11.0593 15.5639 11.0504 15.5188 11.0508 15.4732C11.0512 15.4277 11.0609 15.3827 11.0794 15.3408C11.0978 15.299 11.1247 15.2612 11.1583 15.2295L13.8424 12.6154L14.8534 11.6307C14.9529 11.5335 15.0087 11.4018 15.0087 11.2646C15.0087 11.1273 14.9529 10.9957 14.8534 10.8985C14.6458 10.697 14.3091 10.6969 14.102 10.8982L10.5956 14.3133C10.5631 14.3461 10.5242 14.3722 10.4812 14.3902C10.4383 14.4081 10.3921 14.4176 10.3453 14.418C10.2986 14.4184 10.2522 14.4097 10.2089 14.3925C10.1656 14.3752 10.1263 14.3498 10.0932 14.3175C10.0602 14.2853 10.034 14.247 10.0163 14.2049C9.99862 14.1627 9.98971 14.1176 9.99012 14.072C9.99053 14.0265 10.0002 13.9815 10.0187 13.9396C10.0372 13.8978 10.064 13.8599 10.0976 13.8283L13.6036 10.4135L13.6043 10.413L14.8452 9.20453C14.8935 9.15761 14.9319 9.10183 14.9579 9.04039C14.984 8.97896 14.9974 8.9131 14.9972 8.84662C14.9974 8.78011 14.984 8.71422 14.9579 8.65276C14.9319 8.5913 14.8935 8.53549 14.8452 8.48853C14.7475 8.39376 14.6153 8.34054 14.4775 8.34054C14.3397 8.34054 14.2075 8.39376 14.1099 8.48853L9.36267 13.1124C9.33019 13.1452 9.29133 13.1713 9.24837 13.1893C9.2054 13.2072 9.15919 13.2167 9.11243 13.2171C9.06568 13.2175 9.0193 13.2088 8.97603 13.1916C8.93275 13.1743 8.89343 13.1489 8.86036 13.1167C8.8273 13.0844 8.80115 13.0462 8.78345 13.004C8.76574 12.9618 8.75683 12.9167 8.75724 12.8711C8.75764 12.8256 8.76736 12.7806 8.78581 12.7387C8.80427 12.6969 8.8311 12.659 8.86473 12.6274L12.5843 9.00439C12.6327 8.95746 12.6711 8.90165 12.6973 8.84019C12.7234 8.77873 12.7368 8.71283 12.7366 8.64631C12.7368 8.57981 12.7234 8.51395 12.6972 8.45252C12.6711 8.39109 12.6327 8.33531 12.5843 8.2884C12.3879 8.09727 12.0464 8.09667 11.8494 8.2884L6.79372 13.2124C6.73961 13.265 6.66942 13.299 6.59374 13.3093C6.51805 13.3196 6.44097 13.3057 6.37412 13.2696C6.30728 13.2335 6.25429 13.1772 6.22315 13.1092C6.19201 13.0413 6.18441 12.9653 6.20149 12.8927L6.90166 9.93742C6.91497 9.78602 6.86709 9.63554 6.76819 9.51802C6.71771 9.45715 6.6552 9.40675 6.58437 9.36981C6.51354 9.33287 6.43583 9.31014 6.35582 9.30297C6.03668 9.27244 5.76262 9.47909 5.70381 9.7799L4.20233 14.9706C4.02352 15.8924 3.16647 17.2604 2.80402 17.8089L6.30458 21.2184ZM13.5354 19.0656L20.1001 12.6721C20.8986 11.8938 20.8986 10.6277 20.1003 9.84944L18.6059 8.39404L18.4276 9.12341C18.4092 9.19845 18.3654 9.26526 18.3033 9.31307C18.2411 9.36087 18.1642 9.38688 18.085 9.38688C18.0058 9.38688 17.929 9.36087 17.8668 9.31307C17.8046 9.26526 17.7608 9.19845 17.7425 9.12341L17.3136 7.3679L15.3442 6.8005C15.1946 6.75746 15.0917 6.62352 15.0917 6.47158C15.0917 6.31963 15.1946 6.18569 15.3442 6.14265L16.0775 5.93136L13.5356 3.45583C13.1484 3.07888 12.6339 2.8712 12.0867 2.8712C11.8175 2.87047 11.5509 2.92177 11.3022 3.02212C11.0535 3.12248 10.8277 3.26989 10.6379 3.45583L4.07326 9.84935C3.27441 10.6276 3.27441 11.8938 4.07326 12.672L4.123 12.7204L5.01897 9.62281C5.13896 9.00079 5.74317 8.55765 6.42273 8.61999C6.5958 8.63554 6.76392 8.68473 6.91714 8.76464C7.07037 8.84456 7.20559 8.95357 7.31482 9.08525C7.42483 9.21633 7.50676 9.36755 7.55578 9.52998C7.6048 9.69241 7.61992 9.86276 7.60024 10.031C7.59857 10.044 7.59645 10.0571 7.59337 10.0702L7.16419 11.8817L11.3515 7.80341C11.814 7.35238 12.6204 7.35306 13.0823 7.80341C13.2142 7.93177 13.3059 8.08338 13.3649 8.24407L13.6118 8.00354C14.0888 7.53913 14.8646 7.53828 15.343 8.00337C15.457 8.11389 15.5473 8.24531 15.6088 8.39005C15.6704 8.53479 15.7018 8.68997 15.7013 8.84662C15.7018 9.00321 15.6703 9.15834 15.6088 9.30302C15.5473 9.44771 15.457 9.57907 15.343 9.68952L14.8871 10.1336C15.0563 10.1913 15.2161 10.2819 15.3513 10.4133C15.8331 10.8828 15.8331 11.6465 15.3513 12.1158L15.1101 12.3506C15.2751 12.4058 15.4295 12.4917 15.5566 12.6157C15.7856 12.8383 15.9118 13.1348 15.9118 13.4503C15.9122 13.6055 15.881 13.7591 15.8201 13.9024C15.7591 14.0457 15.6695 14.1758 15.5566 14.2852L11.1822 18.5459C11.002 18.7205 10.8175 18.8909 10.629 19.0569L10.6377 19.0654C11.0247 19.4426 11.5391 19.6501 12.0866 19.6501C12.3557 19.6508 12.6224 19.5995 12.8711 19.4992C13.1198 19.3988 13.3456 19.2515 13.5354 19.0656Z" fill="white"/>
<path d="M4.69138 4.05795H5.39568C5.59033 4.05795 5.74783 3.90437 5.74783 3.71496C5.74783 3.52554 5.59033 3.37196 5.39568 3.37196H4.69138C4.49672 3.37196 4.33922 3.52554 4.33922 3.71496C4.33922 3.90437 4.49672 4.05795 4.69138 4.05795Z" fill="#BDBDBD"/>
<path d="M3.98707 4.05795C3.79242 4.05795 3.63492 4.21152 3.63492 4.40094V5.08692C3.63492 5.27634 3.79242 5.42991 3.98707 5.42991C4.18172 5.42991 4.33922 5.27634 4.33922 5.08692V4.40094C4.33922 4.21152 4.18172 4.05795 3.98707 4.05795Z" fill="#BDBDBD"/>
<path d="M2.57846 4.05795H3.28277C3.47742 4.05795 3.63492 3.90437 3.63492 3.71496C3.63492 3.52554 3.47742 3.37196 3.28277 3.37196H2.57846C2.38381 3.37196 2.22631 3.52554 2.22631 3.71496C2.22631 3.90437 2.38381 4.05795 2.57846 4.05795Z" fill="#BDBDBD"/>
<path d="M3.98707 3.37196C4.18172 3.37196 4.33922 3.21839 4.33922 3.02897V2.34299C4.33922 2.15357 4.18172 2 3.98707 2C3.79242 2 3.63492 2.15357 3.63492 2.34299V3.02897C3.63492 3.21839 3.79242 3.37196 3.98707 3.37196Z" fill="#BDBDBD"/>
<path fill-rule="evenodd" clip-rule="evenodd" d="M18.9535 18.8066C18.274 18.8066 17.721 19.3451 17.721 20.007C17.721 20.6689 18.274 21.2075 18.9535 21.2075C19.6331 21.2075 20.1861 20.6689 20.1861 20.007C20.1861 19.3451 19.6331 18.8066 18.9535 18.8066ZM18.4253 20.007C18.4253 20.2908 18.6622 20.5215 18.9535 20.5215C19.2448 20.5215 19.4818 20.2908 19.4818 20.007C19.4818 19.7233 19.2449 19.4925 18.9535 19.4925C18.6622 19.4925 18.4253 19.7233 18.4253 20.007Z" fill="#BDBDBD"/>
<path d="M21.6236 16.587C21.5237 16.587 21.428 16.6256 21.3574 16.6944C21.2868 16.7631 21.2471 16.8564 21.2471 16.9536C21.2471 17.0509 21.2868 17.1441 21.3574 17.2129C21.428 17.2817 21.5237 17.3203 21.6236 17.3203C21.7234 17.3203 21.8191 17.2817 21.8897 17.2129C21.9603 17.1441 22 17.0509 22 16.9536C22 16.8564 21.9603 16.7631 21.8897 16.6944C21.8191 16.6256 21.7234 16.587 21.6236 16.587Z" fill="#BDBDBD"/>
</svg>
