<svg width="24" height="24" viewBox="0 0 24 24" fill="none" xmlns="http://www.w3.org/2000/svg">
<path d="M13.8927 9.70636C13.8927 9.70636 12.5446 10.3355 12.5446 12.7536V15.6435L13.4701 17M10.083 9.70636C10.083 9.70636 11.4311 10.3355 11.4311 12.7536V15.6435L10.5055 17M15.535 12.541V12.3232C15.535 11.7555 16.0061 11.2953 16.5871 11.2953H19.1197C19.1751 11.2953 19.229 11.2779 19.2735 11.2458C19.3181 11.2137 19.3509 11.1685 19.3672 11.1168L20.3967 7.85335C20.5678 7.31083 21.1567 7.00659 21.712 7.17381L21.925 7.23794L20.252 12.541H15.535Z" stroke="#BDBDBD" stroke-width="0.75" stroke-miterlimit="10" stroke-linecap="round" stroke-linejoin="round"/>
<path d="M3.68257 8.10409L3.6035 7.85335C3.43235 7.31083 2.84349 7.00659 2.28819 7.17381L2.0752 7.23794L3.74809 12.541H8.46506V12.3232C8.46506 11.7555 7.99403 11.2953 7.41298 11.2953H4.88045C4.82508 11.2953 4.77117 11.2779 4.72662 11.2458C4.68207 11.2137 4.64923 11.1685 4.63292 11.1168L4.09746 9.4193M11.4313 12.7536H12.5448V15.6435H11.4313V12.7536Z" stroke="#BDBDBD" stroke-width="0.75" stroke-miterlimit="10" stroke-linecap="round" stroke-linejoin="round"/>
<path d="M2.97119 10.0785H5.98373C6.59388 10.0785 7.08849 10.5618 7.08849 11.158V12.541M9.16178 9.66706H14.8787M3.61498 15.1407H8.96967M22.0001 7L20.2521 12.541M20.2521 12.541L20.8348 17M20.2521 12.541H15.4296L14.4568 17" stroke="white" stroke-width="0.75" stroke-miterlimit="10" stroke-linecap="round" stroke-linejoin="round"/>
<path d="M2 7L3.74794 12.541M3.74794 12.541L3.16528 17M3.74794 12.541H8.57047L9.54332 17" stroke="white" stroke-width="0.75" stroke-miterlimit="10" stroke-linecap="round" stroke-linejoin="round"/>
<path d="M21.0288 10.0785H18.0162C17.4061 10.0785 16.9115 10.5618 16.9115 11.1579V12.5409M20.385 15.1407H15.0303" stroke="white" stroke-width="0.75" stroke-miterlimit="10" stroke-linecap="round" stroke-linejoin="round"/>
</svg>
