<svg width="24" height="24" viewBox="0 0 24 24" fill="none" xmlns="http://www.w3.org/2000/svg">
<ellipse cx="11.9999" cy="6.57895" rx="3.63636" ry="3.57895" stroke="white" stroke-width="1.5"/>
<path d="M17.4546 9.26323C18.9608 9.26323 20.1819 8.26177 20.1819 7.02639C20.1819 5.79102 18.9608 4.78955 17.4546 4.78955" stroke="#BDBDBD" stroke-width="1.5" stroke-linecap="round"/>
<path d="M6.54541 9.26323C5.03918 9.26323 3.81814 8.26177 3.81814 7.02639C3.81814 5.79102 5.03918 4.78955 6.54541 4.78955" stroke="#BDBDBD" stroke-width="1.5" stroke-linecap="round"/>
<ellipse cx="12" cy="16.4211" rx="5.45455" ry="3.57895" stroke="white" stroke-width="1.5"/>
<path d="M19.2727 18.2105C20.8675 17.8663 22 16.9946 22 15.9737C22 14.9527 20.8675 14.081 19.2727 13.7368" stroke="#BDBDBD" stroke-width="1.5" stroke-linecap="round"/>
<path d="M4.72729 18.2105C3.13252 17.8663 2.00002 16.9946 2.00002 15.9737C2.00002 14.9527 3.13252 14.081 4.72729 13.7368" stroke="#BDBDBD" stroke-width="1.5" stroke-linecap="round"/>
</svg>
