<svg width="24" height="24" viewBox="0 0 24 24" fill="none" xmlns="http://www.w3.org/2000/svg">
<path d="M3.86054 16.4972C3.83785 16.456 3.80729 16.4197 3.77059 16.3904C3.7339 16.3611 3.69181 16.3392 3.6467 16.3262C3.6016 16.3132 3.55438 16.3092 3.50773 16.3144C3.46108 16.3197 3.41592 16.3341 3.37483 16.3568C3.33374 16.3795 3.29752 16.4102 3.26824 16.4469C3.23896 16.4837 3.2172 16.5259 3.20419 16.5711C3.17791 16.6624 3.1889 16.7604 3.23473 16.8435C6.95529 23.7197 17.0462 23.7179 20.7653 16.8435C20.8084 16.7606 20.8174 16.6641 20.7905 16.5747C20.7636 16.4852 20.7028 16.4098 20.6212 16.3646C20.5396 16.3194 20.4435 16.308 20.3536 16.3327C20.2637 16.3575 20.1869 16.4165 20.1398 16.4972C19.3373 17.9566 18.1587 19.1735 16.727 20.0209C15.2953 20.8684 13.6629 21.3155 12 21.3155C10.3372 21.3155 8.70474 20.8684 7.27303 20.0209C5.84131 19.1735 4.66308 17.9566 3.86054 16.4972ZM19.048 5.94401C19.1096 6.0162 19.1973 6.06091 19.2918 6.0683C19.3863 6.07568 19.4799 6.04515 19.5519 5.98341C19.624 5.92167 19.6686 5.83378 19.6759 5.73908C19.6833 5.64438 19.6528 5.55063 19.5912 5.47844C15.7674 0.840222 8.23228 0.840581 4.4088 5.47915C4.34984 5.55166 4.32152 5.6444 4.32991 5.73756C4.3383 5.83071 4.38271 5.91687 4.45367 5.97764C4.52463 6.0384 4.61649 6.06894 4.70962 6.06272C4.80275 6.05651 4.88976 6.01403 4.95205 5.94437C8.50248 1.63779 15.4979 1.63851 19.048 5.94437V5.94401Z" fill="white"/>
<path d="M7.32651 5.67074C7.2504 5.72735 7.19984 5.81194 7.18597 5.9059C7.17209 5.99986 7.19604 6.0955 7.25253 6.17177C7.30903 6.24804 7.39344 6.2987 7.48721 6.3126C7.58098 6.32651 7.67642 6.30251 7.75254 6.2459C8.98285 5.33688 10.4713 4.84646 11.9999 4.84646C13.5285 4.84646 15.0169 5.33688 16.2473 6.2459C16.3234 6.30251 16.4188 6.32651 16.5126 6.3126C16.6064 6.2987 16.6908 6.24804 16.7473 6.17177C16.8038 6.0955 16.8277 5.99986 16.8138 5.9059C16.8 5.81194 16.7494 5.72735 16.6733 5.67074C15.3196 4.67035 13.6819 4.13062 11.9999 4.13062C10.3179 4.13062 8.68016 4.67035 7.32651 5.67074ZM11.9999 19.8826C13.1857 19.8851 14.3565 19.6171 15.4236 19.0991C16.4907 18.581 17.4263 17.8265 18.1594 16.8926C18.2182 16.8181 18.2452 16.7232 18.2342 16.6289C18.2233 16.5345 18.1754 16.4484 18.1011 16.3894C18.0268 16.3304 17.9321 16.3034 17.838 16.3144C17.7438 16.3253 17.6578 16.3733 17.599 16.4478C14.8577 20.0495 9.14176 20.0492 6.40084 16.4478C6.34198 16.3733 6.256 16.3253 6.16183 16.3144C6.06766 16.3034 5.97301 16.3304 5.89869 16.3894C5.82438 16.4484 5.77649 16.5345 5.76557 16.6289C5.75464 16.7232 5.78157 16.8181 5.84044 16.8926C6.57353 17.8265 7.50907 18.581 8.57621 19.0991C9.64335 19.6171 10.8141 19.8851 11.9999 19.8826Z" fill="#BDBDBD"/>
<path d="M2.18145 12.9235C2.05572 13.1628 1.99343 13.4304 2.00055 13.7008C2.00766 13.9712 2.08394 14.2352 2.22209 14.4675C2.36023 14.6999 2.5556 14.8928 2.78948 15.0278C3.02336 15.1628 3.28792 15.2353 3.55781 15.2384H7.53498C7.53361 15.4748 7.57874 15.7091 7.66779 15.928C7.75683 16.1469 7.88805 16.3461 8.05393 16.5142C8.21982 16.6822 8.41713 16.8159 8.63458 16.9075C8.85204 16.9991 9.08538 17.0469 9.32127 17.0481H14.6787C14.9149 17.0479 15.1487 17.0009 15.3667 16.9096C15.5846 16.8184 15.7823 16.6847 15.9484 16.5165C16.1145 16.3482 16.2457 16.1486 16.3343 15.9293C16.423 15.7099 16.4674 15.4751 16.465 15.2384H20.4422C20.7121 15.2353 20.9766 15.1628 21.2105 15.0278C21.4444 14.8928 21.6398 14.6999 21.7779 14.4675C21.9161 14.2352 21.9923 13.9712 21.9995 13.7008C22.0066 13.4304 21.9443 13.1628 21.8185 12.9235C21.33 12.0165 20.521 11.325 19.5501 10.9845C19.8215 10.775 20.0413 10.506 20.1926 10.198C20.3439 9.89005 20.4227 9.55141 20.4229 9.20816C20.3164 6.23205 16.0411 6.23205 15.935 9.20816C15.9353 9.55147 16.0142 9.89014 16.1656 10.1981C16.3171 10.5061 16.537 10.7751 16.8085 10.9845C15.9324 11.2938 15.1864 11.8908 14.6916 12.6785C14.3208 12.4289 13.9171 12.2322 13.4922 12.094C13.8314 11.8549 14.1083 11.5376 14.2996 11.1688C14.4908 10.8 14.5908 10.3905 14.5912 9.97492C14.4696 6.53969 9.53035 6.53861 9.40884 9.97492C9.40915 10.3905 9.50916 10.8 9.70042 11.1688C9.89168 11.5376 10.1686 11.8549 10.5078 12.094C10.0828 12.2321 9.67899 12.4288 9.30805 12.6785C8.81237 11.8918 8.06682 11.2952 7.19151 10.9849C7.46301 10.7755 7.68294 10.5064 7.83437 10.1985C7.98581 9.8905 8.06471 9.55183 8.065 9.20851C7.96207 6.23527 3.68183 6.23061 3.57711 9.20851C3.57737 9.55171 3.65619 9.89027 3.80749 10.1982C3.9588 10.5061 4.17856 10.7751 4.44988 10.9845C3.47904 11.325 2.67007 12.0165 2.18145 12.9235ZM16.6498 9.20816C16.6559 8.80583 16.8197 8.42206 17.1058 8.13972C17.3919 7.85738 17.7774 7.69912 18.1789 7.69912C18.5805 7.69912 18.9659 7.85738 19.252 8.13972C19.5381 8.42206 19.702 8.80583 19.7081 9.20816C19.702 9.61049 19.5381 9.99425 19.252 10.2766C18.9659 10.5589 18.5805 10.7172 18.1789 10.7172C17.7774 10.7172 17.3919 10.5589 17.1058 10.2766C16.8197 9.99425 16.6559 9.61049 16.6498 9.20816ZM18.1763 11.4569C18.7946 11.4564 19.4015 11.6241 19.9321 11.9422C20.4627 12.2603 20.8972 12.7168 21.1892 13.263C21.2576 13.393 21.2915 13.5385 21.2878 13.6854C21.284 13.8324 21.2427 13.9759 21.1677 14.1023C21.0928 14.2286 20.9867 14.3336 20.8597 14.4071C20.7326 14.4806 20.5889 14.5203 20.4422 14.5222H16.3063C16.0492 13.992 15.6927 13.5163 15.2563 13.1211C15.5589 12.6154 15.9867 12.1964 16.4982 11.9049C17.0098 11.6133 17.5878 11.459 18.1763 11.4569ZM10.124 9.97492C10.2026 7.49018 13.7977 7.49089 13.876 9.97492C13.7974 12.4597 10.2023 12.4593 10.124 9.97492ZM15.6219 14.7417C15.7085 14.9059 15.7516 15.0896 15.747 15.2753C15.7423 15.4609 15.6902 15.6423 15.5955 15.8019C15.5008 15.9615 15.3667 16.0941 15.2062 16.1869C15.0457 16.2797 14.864 16.3296 14.6787 16.3318H9.32127C9.13522 16.3315 8.95243 16.2828 8.79079 16.1905C8.62915 16.0982 8.49418 15.9654 8.3991 15.8051C8.30401 15.6449 8.25205 15.4626 8.24831 15.2762C8.24456 15.0898 8.28916 14.9057 8.37773 14.7417C9.87596 11.8687 14.1244 11.8691 15.6219 14.7417ZM4.29191 9.20851C4.29805 8.80618 4.46186 8.42241 4.74796 8.14007C5.03406 7.85773 5.4195 7.69948 5.82106 7.69948C6.22261 7.69948 6.60805 7.85773 6.89415 8.14007C7.18026 8.42241 7.34406 8.80618 7.3502 9.20851C7.34406 9.61084 7.18026 9.99461 6.89415 10.277C6.60805 10.5593 6.22261 10.7176 5.82106 10.7176C5.4195 10.7176 5.03406 10.5593 4.74796 10.277C4.46186 9.99461 4.29805 9.61084 4.29191 9.20851ZM5.81802 11.4569C6.40743 11.4585 6.98643 11.6126 7.49898 11.9043C8.01153 12.1959 8.44027 12.6152 8.74371 13.1215C8.30731 13.5166 7.95082 13.9921 7.69366 14.5222H3.55817C3.41148 14.5203 3.26774 14.4806 3.14071 14.4071C3.01367 14.3336 2.9076 14.2286 2.83264 14.1023C2.75768 13.9759 2.71635 13.8324 2.71259 13.6854C2.70884 13.5385 2.74279 13.393 2.81119 13.263C3.10266 12.7177 3.53619 12.2618 4.06565 11.9438C4.59512 11.6257 5.20072 11.4575 5.81802 11.4569Z" fill="white"/>
</svg>
