<svg width="24" height="24" viewBox="0 0 24 24" fill="none" xmlns="http://www.w3.org/2000/svg">
<path fill-rule="evenodd" clip-rule="evenodd" d="M2.4119 7.00095C2.18836 7.02196 1.99906 7.23014 2.00003 7.45347V16.9583C1.99702 17.1971 2.21469 17.4167 2.45455 17.4167C2.69442 17.4167 2.91208 17.1973 2.90907 16.9583V11.0745H12.9094V16.9583C12.9094 17.0346 12.9292 17.1107 12.9662 17.1775L12.9731 17.1845C13.0074 17.2464 13.0565 17.3003 13.1152 17.3401C13.12 17.3426 13.1247 17.3448 13.1295 17.347C13.1388 17.3521 13.1483 17.3568 13.1578 17.3611C13.1624 17.3636 13.1672 17.3658 13.172 17.368C13.1813 17.3731 13.1908 17.3778 13.2003 17.3821H13.2146C13.224 17.3871 13.2335 17.3919 13.243 17.3961H13.2571C13.2664 17.3988 13.276 17.4012 13.2855 17.4031C13.3066 17.4069 13.328 17.4092 13.3494 17.41H13.3635H13.3776H21.5455H21.5881C21.6346 17.4053 21.6802 17.3933 21.723 17.3747C21.8863 17.3056 22.0003 17.1341 22 16.9574V7.45254V7.41005C21.9857 7.27626 21.9077 7.15053 21.7941 7.07771C21.7804 7.06745 21.7662 7.05797 21.7514 7.04944C21.7376 7.04407 21.7232 7.03917 21.7088 7.03522C21.6813 7.02306 21.6528 7.01343 21.6235 7.00695C21.5976 7.00237 21.5715 7 21.5453 7H2.45334H2.41069L2.4119 7.00095ZM12.9094 7.90618H2.90907V10.1692H12.9094V7.90618ZM21.0915 7.90618H13.8185V10.1692H21.0915V7.90618ZM21.0915 11.0744H13.8185V13.3373H21.0915V11.0744ZM21.0915 14.2425H13.8185V16.5055H21.0915V14.2425Z" fill="white"/>
<path d="M16.6028 8.58506C16.3648 8.59801 16.16 8.82546 16.1732 9.0624C16.1862 9.29933 16.4146 9.50323 16.6526 9.49029H18.272C18.512 9.49345 18.7327 9.27675 18.7327 9.03778C18.7327 8.79881 18.5121 8.58195 18.272 8.58526H16.6526L16.6028 8.58506Z" fill="#BDBDBD"/>
<path d="M16.6028 11.7532C16.3648 11.7662 16.16 11.9936 16.1732 12.2306C16.1862 12.4675 16.4146 12.6714 16.6526 12.6585H18.272C18.512 12.6616 18.7327 12.4449 18.7327 12.206C18.7327 11.967 18.5121 11.7501 18.272 11.7534H16.6526L16.6028 11.7532Z" fill="#BDBDBD"/>
<path d="M16.6028 14.9214C16.3658 14.9356 16.1627 15.1625 16.1757 15.3986C16.1887 15.6347 16.4154 15.8382 16.6526 15.8265H18.2721C18.5124 15.8301 18.7336 15.6133 18.7336 15.374C18.7336 15.1347 18.5124 14.9178 18.2721 14.9215H16.6526L16.6028 14.9214Z" fill="#BDBDBD"/>
</svg>
