<svg width="24" height="24" viewBox="0 0 24 24" fill="none" xmlns="http://www.w3.org/2000/svg">
<path fill-rule="evenodd" clip-rule="evenodd" d="M14.4175 18.0028C14.3346 18.0028 14.2552 17.9698 14.1965 17.9112C14.1379 17.8526 14.105 17.7731 14.105 17.6903C14.105 16.329 14.2595 15.2689 14.5773 14.4494C14.8629 13.7127 15.2426 13.2598 15.5775 12.8601C15.8357 12.552 16.0796 12.2611 16.2529 11.8703C16.4492 11.4279 16.5406 10.8977 16.5406 10.2017C16.5406 7.72237 14.5236 5.70533 12.0442 5.70533C9.5649 5.70533 7.54786 7.72237 7.54786 10.2017C7.54786 10.8977 7.63927 11.4279 7.83556 11.8703C8.0089 12.261 8.25277 12.552 8.51097 12.8601C8.84593 13.2597 9.22554 13.7127 9.51124 14.4494C9.82906 15.2689 9.98352 16.3289 9.98352 17.6902C9.98352 17.7731 9.9506 17.8526 9.89199 17.9112C9.83339 17.9698 9.7539 18.0027 9.67102 18.0027C9.58814 18.0027 9.50866 17.9698 9.45005 17.9112C9.39144 17.8526 9.35852 17.7731 9.35852 17.6902C9.35852 14.8443 8.68415 14.0397 8.03196 13.2616C7.75733 12.9339 7.47331 12.595 7.26427 12.1238C7.03136 11.5987 6.92285 10.988 6.92285 10.2017C6.92285 9.51047 7.05827 8.83973 7.32541 8.20816C7.58339 7.59824 7.95264 7.0506 8.42286 6.58033C8.89308 6.11011 9.44077 5.74086 10.0506 5.48289C10.6823 5.21574 11.3529 5.08032 12.0442 5.08032C12.7354 5.08032 13.4062 5.21579 14.0377 5.48289C14.6477 5.74086 15.1953 6.11006 15.6656 6.58033C16.1358 7.05055 16.505 7.59824 16.763 8.20816C17.0301 8.83973 17.1656 9.51047 17.1656 10.2017C17.1656 10.988 17.0571 11.5987 16.8242 12.1238C16.6151 12.595 16.3311 12.9338 16.0565 13.2616C15.4043 14.0397 14.7299 14.8443 14.7299 17.6902C14.7299 17.7312 14.7219 17.7719 14.7062 17.8098C14.6905 17.8477 14.6675 17.8822 14.6385 17.9112C14.6095 17.9402 14.575 17.9633 14.5371 17.979C14.4992 17.9947 14.4586 18.0028 14.4175 18.0028Z" fill="white"/>
<path fill-rule="evenodd" clip-rule="evenodd" d="M12.0439 3.98379C11.961 3.98379 11.8815 3.95086 11.8229 3.89226C11.7643 3.83365 11.7314 3.75417 11.7314 3.67129V2.3125C11.7314 2.22962 11.7643 2.15013 11.8229 2.09153C11.8815 2.03292 11.961 2 12.0439 2C12.1267 2 12.2062 2.03292 12.2648 2.09153C12.3234 2.15013 12.3564 2.22962 12.3564 2.3125V3.67129C12.3564 3.75417 12.3234 3.83365 12.2648 3.89226C12.2062 3.95086 12.1267 3.98379 12.0439 3.98379ZM14.9857 4.74188C14.9309 4.74183 14.877 4.72735 14.8296 4.6999C14.7821 4.67245 14.7427 4.633 14.7153 4.5855C14.6879 4.538 14.6735 4.48413 14.6735 4.4293C14.6735 4.37447 14.688 4.32061 14.7154 4.27312L15.3947 3.09641C15.4362 3.02463 15.5044 2.97226 15.5845 2.9508C15.6646 2.92935 15.7499 2.94058 15.8216 2.98202C15.8934 3.02346 15.9458 3.09172 15.9673 3.17178C15.9887 3.25183 15.9775 3.33714 15.936 3.40892L15.2567 4.58563C15.2292 4.63317 15.1897 4.67264 15.1421 4.70007C15.0946 4.7275 15.0406 4.74192 14.9857 4.74188ZM17.1553 6.86944C17.0864 6.86952 17.0195 6.84688 16.9649 6.80503C16.9102 6.76317 16.8709 6.70445 16.8531 6.63797C16.8352 6.57149 16.8398 6.50098 16.8662 6.43739C16.8925 6.37379 16.9391 6.32067 16.9987 6.28626L18.1754 5.60684C18.2109 5.58632 18.2502 5.573 18.2909 5.56764C18.3316 5.56228 18.3729 5.56498 18.4125 5.5756C18.4522 5.58622 18.4893 5.60455 18.5219 5.62953C18.5545 5.65452 18.5818 5.68567 18.6023 5.72121C18.6228 5.75675 18.6361 5.79598 18.6415 5.83667C18.6468 5.87735 18.6441 5.9187 18.6335 5.95834C18.6229 5.99798 18.6046 6.03514 18.5796 6.06769C18.5546 6.10025 18.5235 6.12756 18.4879 6.14808L17.3112 6.8275C17.2638 6.85498 17.21 6.86945 17.1553 6.86944ZM9.11715 4.79846C9.06223 4.79852 9.00827 4.78411 8.96071 4.75666C8.91314 4.72922 8.87364 4.68973 8.84621 4.64216L8.16679 3.46539C8.12535 3.39361 8.11413 3.30832 8.13559 3.22826C8.15705 3.14821 8.20943 3.07996 8.28121 3.03853C8.35298 2.99709 8.43827 2.98586 8.51833 3.00731C8.59838 3.02875 8.66663 3.08112 8.70808 3.15289L9.3875 4.3296C9.42893 4.40138 9.44016 4.48667 9.41871 4.56672C9.39727 4.64677 9.3449 4.71503 9.27313 4.75647C9.22575 4.78398 9.17194 4.79847 9.11715 4.79846ZM6.98899 6.96742C6.93421 6.96742 6.8804 6.95295 6.83301 6.92548L5.6563 6.24612C5.50683 6.15985 5.45562 5.96872 5.54193 5.81925C5.62825 5.66978 5.81933 5.61851 5.9688 5.70488L7.14551 6.38425C7.20517 6.41862 7.2518 6.47173 7.27817 6.53534C7.30453 6.59894 7.30915 6.66947 7.2913 6.73597C7.27345 6.80246 7.23414 6.8612 7.17947 6.90306C7.1248 6.94491 7.05784 6.96754 6.98899 6.96742Z" fill="#BDBDBD"/>
<path fill-rule="evenodd" clip-rule="evenodd" d="M14.5876 19.2983C14.5047 19.2983 14.4252 19.2654 14.3666 19.2068C14.308 19.1482 14.2751 19.0687 14.2751 18.9858C14.2751 18.903 14.308 18.8235 14.3666 18.7649C14.4252 18.7063 14.5047 18.6733 14.5876 18.6733C14.6765 18.6732 14.7618 18.6379 14.8246 18.575C14.8875 18.5121 14.9229 18.4269 14.923 18.3379C14.9229 18.249 14.8875 18.1637 14.8247 18.1008C14.7618 18.0379 14.6765 18.0026 14.5876 18.0024H9.50044C9.31554 18.0024 9.16504 18.1529 9.16504 18.3378C9.16504 18.5228 9.31549 18.6732 9.50044 18.6732C9.58332 18.6732 9.66281 18.7062 9.72141 18.7648C9.78002 18.8234 9.81294 18.9029 9.81294 18.9857C9.81294 19.0686 9.78002 19.1481 9.72141 19.2067C9.66281 19.2653 9.58332 19.2982 9.50044 19.2982C8.97092 19.2982 8.54004 18.8674 8.54004 18.3378C8.54004 17.8083 8.97087 17.3774 9.50044 17.3774H14.5876C15.1172 17.3774 15.548 17.8083 15.548 18.3379C15.5479 18.8675 15.1172 19.2983 14.5876 19.2983Z" fill="white"/>
<path fill-rule="evenodd" clip-rule="evenodd" d="M14.5876 20.594H9.50044C8.97092 20.594 8.54004 20.1632 8.54004 19.6336C8.54004 19.104 8.97087 18.6732 9.50044 18.6732H14.5876C15.1172 18.6732 15.548 19.104 15.548 19.6336C15.5479 20.1631 15.1172 20.594 14.5876 20.594ZM9.50044 19.2982C9.31554 19.2982 9.16504 19.4486 9.16504 19.6336C9.16504 19.8185 9.31549 19.969 9.50044 19.969H14.5876C14.6765 19.9689 14.7618 19.9335 14.8247 19.8706C14.8875 19.8077 14.9229 19.7224 14.923 19.6335C14.9229 19.5446 14.8875 19.4593 14.8246 19.3965C14.7618 19.3336 14.6765 19.2982 14.5876 19.2981L9.50044 19.2982Z" fill="white"/>
<path fill-rule="evenodd" clip-rule="evenodd" d="M12.7178 22.0001H11.3696C10.8096 22.0001 10.354 21.5445 10.354 20.9846V20.2815C10.354 20.1986 10.3869 20.1191 10.4455 20.0605C10.5041 20.0019 10.5836 19.969 10.6665 19.969C10.7494 19.969 10.8289 20.0019 10.8875 20.0605C10.9461 20.1191 10.979 20.1986 10.979 20.2815V20.9846C10.979 21.1999 11.1542 21.3751 11.3696 21.3751H12.7178C12.9332 21.3751 13.1084 21.1999 13.1084 20.9846V20.2815C13.1084 20.1986 13.1413 20.1191 13.1999 20.0605C13.2585 20.0019 13.338 19.969 13.4209 19.969C13.5038 19.969 13.5833 20.0019 13.6419 20.0605C13.7005 20.1191 13.7334 20.1986 13.7334 20.2815V20.9846C13.7334 21.5445 13.2778 22.0001 12.7178 22.0001Z" fill="white"/>
<path fill-rule="evenodd" clip-rule="evenodd" d="M12.6843 13.8895H11.4035C11.3206 13.8895 11.2412 13.8566 11.1826 13.798C11.1239 13.7394 11.091 13.6599 11.091 13.577V12.9373C10.8797 12.8505 10.681 12.7356 10.5004 12.5957L9.94583 12.9158C9.91029 12.9364 9.87105 12.9497 9.83036 12.955C9.78967 12.9604 9.74832 12.9577 9.70867 12.947C9.66903 12.9364 9.63186 12.9181 9.5993 12.8931C9.56674 12.8681 9.53943 12.837 9.51891 12.8014L8.87855 11.6922C8.85803 11.6567 8.84471 11.6175 8.83935 11.5768C8.83399 11.5361 8.83669 11.4948 8.84731 11.4551C8.85793 11.4155 8.87626 11.3783 8.90124 11.3458C8.92623 11.3132 8.95738 11.2859 8.99292 11.2654L9.54707 10.9454C9.51638 10.719 9.51638 10.4894 9.54707 10.2629L8.99292 9.94299C8.95738 9.92248 8.92623 9.89516 8.90124 9.86261C8.87626 9.83005 8.85793 9.79289 8.84731 9.75325C8.83669 9.71361 8.83399 9.67227 8.83935 9.63158C8.84471 9.59089 8.85803 9.55166 8.87855 9.51613L9.51891 8.40691C9.56038 8.33515 9.62864 8.28279 9.70869 8.26133C9.78874 8.23987 9.87404 8.25108 9.94583 8.29249L10.5004 8.61264C10.681 8.47275 10.8797 8.35786 11.091 8.27106V7.6314C11.091 7.54852 11.1239 7.46904 11.1826 7.41043C11.2412 7.35183 11.3206 7.3189 11.4035 7.3189L12.6843 7.31885C12.7672 7.31885 12.8467 7.35177 12.9053 7.41038C12.9639 7.46898 12.9968 7.54847 12.9968 7.63135V8.27111C13.2082 8.35788 13.4068 8.47278 13.5875 8.61269L14.142 8.29254C14.1775 8.27202 14.2168 8.2587 14.2575 8.25334C14.2982 8.24798 14.3395 8.25069 14.3791 8.26132C14.4188 8.27194 14.456 8.29028 14.4885 8.31526C14.5211 8.34025 14.5484 8.37141 14.5689 8.40696L15.2093 9.51618C15.2507 9.58795 15.2619 9.67325 15.2405 9.7533C15.219 9.83335 15.1667 9.90161 15.0949 9.94305L14.5407 10.263C14.5714 10.4895 14.5714 10.719 14.5407 10.9455L15.0949 11.2654C15.1667 11.3069 15.2191 11.3751 15.2405 11.4552C15.262 11.5352 15.2508 11.6205 15.2093 11.6923L14.5689 12.8015C14.5275 12.8732 14.4592 12.9256 14.3792 12.947C14.2991 12.9685 14.2138 12.9573 14.142 12.9158L13.5875 12.5957C13.4069 12.7355 13.2082 12.8504 12.9968 12.9372V13.5771C12.9968 13.66 12.9639 13.7394 12.9053 13.798C12.8467 13.8566 12.7672 13.8895 12.6843 13.8895ZM11.716 13.2645H12.3717V12.717C12.3717 12.6499 12.3933 12.5846 12.4333 12.5307C12.4733 12.4769 12.5295 12.4373 12.5937 12.4179C12.8719 12.3331 13.1269 12.1856 13.3392 11.9868C13.3882 11.941 13.4506 11.9121 13.5172 11.9044C13.5838 11.8968 13.6511 11.9107 13.7091 11.9443L14.1838 12.2183L14.5117 11.6504L14.0376 11.3767C13.9796 11.3432 13.9338 11.2919 13.9072 11.2304C13.8805 11.169 13.8743 11.1006 13.8895 11.0353C13.9222 10.8939 13.9388 10.7493 13.9387 10.6042C13.9387 10.4586 13.9221 10.3136 13.8895 10.1731C13.8743 10.1079 13.8805 10.0395 13.9072 9.97798C13.9338 9.9165 13.9796 9.86523 14.0376 9.83172L14.5117 9.55801L14.1838 8.99008L13.7092 9.26412C13.6511 9.29765 13.5838 9.3116 13.5172 9.30392C13.4506 9.29624 13.3882 9.26734 13.3392 9.22147C13.127 9.02268 12.8719 8.8752 12.5937 8.79037C12.5296 8.77095 12.4733 8.73138 12.4333 8.67753C12.3934 8.62368 12.3718 8.55839 12.3718 8.49133V7.94391L11.716 7.94396V8.49138C11.716 8.55845 11.6944 8.62375 11.6545 8.67761C11.6145 8.73147 11.5583 8.77105 11.4941 8.79048C11.2159 8.87533 10.9608 9.02282 10.7485 9.22164C10.6996 9.26749 10.6372 9.29639 10.5706 9.30406C10.504 9.31173 10.4366 9.29776 10.3786 9.26422L9.90395 8.99019L9.57604 9.55812L10.0502 9.83183C10.1082 9.86534 10.1539 9.91661 10.1806 9.97809C10.2073 10.0396 10.2135 10.108 10.1983 10.1732C10.1656 10.3137 10.1491 10.4587 10.1491 10.6043C10.1491 10.7499 10.1656 10.8949 10.1983 11.0353C10.2135 11.1006 10.2073 11.169 10.1806 11.2305C10.1539 11.292 10.1082 11.3433 10.0502 11.3768L9.57604 11.6505L9.90395 12.2183L10.3786 11.9443C10.4367 11.9108 10.504 11.8968 10.5706 11.9045C10.6373 11.9122 10.6996 11.9411 10.7486 11.987C10.9609 12.1857 11.2159 12.3332 11.4941 12.4181C11.5583 12.4375 11.6145 12.4771 11.6545 12.5309C11.6944 12.5848 11.716 12.6501 11.716 12.7172L11.716 13.2645Z" fill="#BDBDBD"/>
<path fill-rule="evenodd" clip-rule="evenodd" d="M12.0436 12.0016C11.273 12.0016 10.646 11.3747 10.646 10.6041C10.646 9.83345 11.273 9.20654 12.0436 9.20654C12.8142 9.20654 13.4411 9.8335 13.4411 10.6041C13.4411 11.3747 12.8142 12.0016 12.0436 12.0016ZM12.0436 9.83155C11.6176 9.83155 11.271 10.1781 11.271 10.6041C11.271 11.0301 11.6176 11.3766 12.0436 11.3766C12.4696 11.3766 12.8161 11.0301 12.8161 10.6041C12.8161 10.1781 12.4696 9.83155 12.0436 9.83155Z" fill="#BDBDBD"/>
</svg>
