<svg width="24" height="24" viewBox="0 0 24 24" fill="none" xmlns="http://www.w3.org/2000/svg">
<path d="M15.5486 8.06055C15.333 8.06055 15.158 8.23516 15.158 8.45106C15.158 8.6668 15.333 8.84168 15.5486 8.84168C15.7647 8.84168 15.9393 8.6668 15.9393 8.45106C15.9393 8.39975 15.9292 8.34894 15.9096 8.30153C15.89 8.25413 15.8612 8.21105 15.8249 8.17478C15.7887 8.13851 15.7456 8.10975 15.6982 8.09015C15.6508 8.07054 15.5999 8.06049 15.5486 8.06055ZM8.45117 15.1579C8.23508 15.1579 8.06055 15.3329 8.06055 15.5485C8.0605 15.5998 8.07056 15.6507 8.09018 15.6981C8.10979 15.7455 8.13856 15.7886 8.17484 15.8249C8.21113 15.8611 8.25421 15.8899 8.30163 15.9095C8.34904 15.9291 8.39986 15.9392 8.45117 15.9391C8.6668 15.9391 8.8418 15.7646 8.8418 15.5485C8.8418 15.3329 8.6668 15.1579 8.45117 15.1579Z" fill="#BDBDBD"/>
<path d="M21.514 4.40318C21.4492 4.38808 21.3815 4.38982 21.3175 4.40825C21.2535 4.42667 21.1953 4.46117 21.1484 4.50845L19.529 6.14068H18.7526L17.898 5.25521V4.46802L19.4942 2.84798C19.5407 2.80081 19.5744 2.74258 19.5922 2.67878C19.61 2.61498 19.6112 2.54771 19.5958 2.4833C19.5805 2.41889 19.549 2.35945 19.5044 2.31055C19.4598 2.26165 19.4035 2.2249 19.3407 2.20376C18.9397 2.06857 18.5201 2.00005 18.0933 2.00005C16.821 2.00005 15.6652 2.59333 14.9221 3.62771C14.2266 4.59603 14.0122 5.78271 14.3193 6.91842L11.442 9.79576L6.64828 4.99107V4.0481C6.64829 3.98064 6.63083 3.91433 6.59759 3.85563C6.56436 3.79693 6.51648 3.74784 6.45864 3.71314L3.69664 2.05572C3.62196 2.01086 3.53441 1.99228 3.44794 2.00293C3.36147 2.01358 3.28106 2.05286 3.21949 2.11451L2.11477 3.21908C2.0532 3.28072 2.01398 3.36116 2.00334 3.44763C1.99269 3.5341 2.01123 3.62165 2.05602 3.69638L3.71309 6.45838C3.74778 6.51619 3.79684 6.56404 3.8555 6.59728C3.91416 6.63051 3.98043 6.64799 4.04785 6.64803L4.99059 6.64834L9.78473 11.453L6.91836 14.3194C5.78266 14.0124 4.59535 14.2271 3.62656 14.923C2.59285 15.6657 2 16.8212 2 18.0935C2 18.5201 2.06852 18.9399 2.20371 19.3408C2.22497 19.4039 2.26202 19.4605 2.31134 19.5053C2.36065 19.55 2.42059 19.5815 2.48546 19.5965C2.55034 19.6116 2.61799 19.6099 2.68199 19.5914C2.74599 19.573 2.80421 19.5385 2.85113 19.4912L4.47039 17.8591H5.25106L6.14051 18.7486V19.5292L4.50836 21.1485C4.46109 21.1954 4.4266 21.2536 4.40817 21.3176C4.38974 21.3816 4.38797 21.4493 4.40304 21.5142C4.41812 21.579 4.44953 21.639 4.49429 21.6883C4.53905 21.7376 4.59568 21.7747 4.65879 21.7959C5.05965 21.9311 5.47942 21.9996 5.90606 21.9996C7.17832 21.9996 8.33375 21.4067 9.07653 20.3729C9.77251 19.4041 9.98719 18.217 9.68016 17.0813L11.9823 14.7792L12.5096 15.352L12.2676 15.5939C12.115 15.7464 12.115 15.9938 12.2676 16.1464C12.4202 16.2988 12.6674 16.2988 12.8201 16.1464L13.0393 15.9273L17.9871 21.3017C17.9908 21.3057 17.9945 21.3095 17.9984 21.3133C18.9139 22.2288 20.3972 22.2291 21.3132 21.3131C22.2266 20.3993 22.2266 18.9123 21.3132 17.9985C21.3092 17.9945 21.3051 17.9907 21.301 17.9869L15.9182 13.0485L16.1349 12.8318C16.2874 12.6794 16.2874 12.4321 16.1349 12.2795C15.9823 12.1269 15.735 12.1269 15.5823 12.2795L15.342 12.5199L14.7681 11.9932L17.0813 9.67994C17.4114 9.76807 17.7516 9.8126 18.0933 9.8124C20.2472 9.8124 21.9994 8.06006 21.9994 5.90631C21.9994 5.47951 21.9309 5.0599 21.7957 4.65888C21.7745 4.59577 21.7375 4.53914 21.6881 4.49438C21.6388 4.44962 21.5789 4.41823 21.514 4.40318ZM5.4291 5.98185C5.35586 5.90842 5.25653 5.87107 5.15278 5.87107L4.2693 5.87076L2.88289 3.55599L3.55625 2.88263L5.86703 4.26935V5.15279C5.86704 5.25623 5.90809 5.35544 5.98117 5.42865L10.8896 10.3483L10.3371 10.9006L5.4291 5.98185ZM15.3652 13.6015L20.7663 18.5565C21.3697 19.1662 21.3678 20.1535 20.7607 20.7609C20.1522 21.3694 19.1671 21.3712 18.5561 20.7662L13.5921 15.3743L15.3652 13.6015ZM14.789 13.0728L13.0625 14.799L12.5352 14.2262L14.2152 12.546L14.789 13.0728ZM18.0933 9.03115C17.7539 9.03152 17.4167 8.97652 17.0949 8.86834C17.026 8.8452 16.952 8.84174 16.8811 8.85834C16.8103 8.87495 16.7456 8.91095 16.6941 8.96232C14.7358 10.9206 10.5161 15.1402 8.96227 16.6941C8.9108 16.7456 8.87472 16.8104 8.85812 16.8812C8.84151 16.9521 8.84503 17.0262 8.86829 17.0951C9.19301 18.0593 9.03766 19.0878 8.44196 19.9171C7.84793 20.744 6.92356 21.2183 5.9061 21.2183C5.7918 21.2183 5.67813 21.2121 5.56551 21.2001L6.80621 19.969C6.84282 19.9327 6.87187 19.8895 6.89169 19.8419C6.91152 19.7943 6.92172 19.7433 6.92172 19.6917V18.5867C6.9217 18.4831 6.88053 18.3837 6.80727 18.3105L5.68899 17.1922C5.61575 17.1189 5.51641 17.0777 5.41281 17.0777H4.30774C4.25617 17.0777 4.20511 17.0879 4.15751 17.1078C4.1099 17.1276 4.06669 17.1566 4.03035 17.1932L2.79941 18.4339C2.78718 18.3208 2.78107 18.2071 2.78109 18.0933C2.78109 17.0758 3.25531 16.1515 4.08238 15.5575C4.91153 14.9618 5.94012 14.8063 6.9045 15.1312C6.97343 15.1544 7.04748 15.1579 7.1183 15.1413C7.18913 15.1247 7.2539 15.0886 7.30532 15.0372C7.32684 15.0158 15.0316 7.31088 15.0371 7.30537C15.0886 7.25394 15.1246 7.18916 15.1412 7.11835C15.1578 7.04753 15.1543 6.97348 15.1311 6.90455C14.8063 5.94033 14.9613 4.9122 15.5565 4.08345C16.1511 3.25587 17.0756 2.7813 18.0932 2.7813C18.211 2.7813 18.328 2.78787 18.444 2.80068L17.2291 4.03373C17.1571 4.10677 17.1168 4.20522 17.1168 4.30779V5.41287C17.1167 5.51407 17.156 5.61133 17.2263 5.68412L18.3056 6.80248C18.342 6.84023 18.3857 6.87025 18.434 6.89075C18.4823 6.91125 18.5342 6.9218 18.5867 6.92178H19.6917C19.7433 6.92178 19.7943 6.91157 19.8419 6.89175C19.8895 6.87192 19.9327 6.84287 19.969 6.80627L21.1999 5.56572C21.2121 5.67834 21.2182 5.79201 21.2182 5.90631C21.2182 7.62935 19.8164 9.03115 18.0933 9.03115H18.0933Z" fill="white"/>
<path d="M14.1675 9.27957L9.27938 14.1677C9.12692 14.3202 9.12692 14.5675 9.27938 14.7201C9.43196 14.8727 9.67931 14.8727 9.83189 14.7201L14.7201 9.83195C14.8726 9.67953 14.8726 9.43219 14.7201 9.27961C14.5675 9.12703 14.3201 9.12699 14.1675 9.27961V9.27957ZM19.1037 19.6563C19.2563 19.8085 19.5037 19.8085 19.6563 19.6554C19.8085 19.5027 19.8081 19.2553 19.6554 19.1031L16.1344 15.5934C15.9817 15.4411 15.7342 15.4416 15.582 15.5943C15.4296 15.7472 15.4301 15.9944 15.5828 16.1466L19.1037 19.6563Z" fill="#BDBDBD"/>
</svg>
