<svg width="24" height="24" viewBox="0 0 24 24" fill="none" xmlns="http://www.w3.org/2000/svg">
<path fill-rule="evenodd" clip-rule="evenodd" d="M12.417 15.2171H11.5835V20.9998H12.417V15.2171ZM18.2502 13.565H5.75024V14.3911H18.2502V13.565Z" fill="white"/>
<path fill-rule="evenodd" clip-rule="evenodd" d="M19.9169 8.19543C18.7681 8.19543 17.8335 7.26895 17.8335 6.13026C17.8335 4.99142 18.7681 4.06494 19.9169 4.06494C21.0656 4.06494 22.0002 4.99142 22.0002 6.13026C22.0002 7.26895 21.0656 8.19543 19.9169 8.19543ZM18.6669 6.13026C18.6669 5.447 19.2277 4.89113 19.9169 4.89113C20.606 4.89113 21.1669 5.447 21.1669 6.13026C21.1669 6.81333 20.606 7.36939 19.9169 7.36939C19.2277 7.36939 18.6669 6.81333 18.6669 6.13026Z" fill="#BDBDBD"/>
<path d="M15.7498 20.9996C15.6949 20.9996 15.639 20.9891 15.5856 20.966C15.374 20.876 15.276 20.6332 15.3669 20.4238L16.6169 17.5324C16.649 17.4581 16.7024 17.3948 16.7704 17.3503C16.8385 17.3058 16.9183 17.2821 16.9998 17.2822H19.9165C20.6056 17.2822 21.1665 16.7262 21.1665 16.0431V10.6735C21.1665 10.2179 20.7927 9.84743 20.3331 9.84743H19.9165C19.624 9.84743 19.3577 10.0391 18.999 10.51C18.5965 11.037 17.3749 12.5238 17.3231 12.5866C17.2839 12.6341 17.2346 12.6724 17.1787 12.6987C17.1228 12.725 17.0617 12.7386 16.9998 12.7386H14.9165C14.6864 12.7386 14.4998 12.9238 14.4998 13.1517V13.9778C14.4998 14.032 14.4891 14.0858 14.4681 14.1359C14.4472 14.186 14.4165 14.2316 14.3778 14.27C14.3391 14.3083 14.2932 14.3387 14.2426 14.3595C14.192 14.3802 14.1378 14.3909 14.0831 14.3909C14.0283 14.3909 13.9741 14.3802 13.9236 14.3595C13.873 14.3387 13.8271 14.3083 13.7884 14.2699C13.7497 14.2316 13.719 14.186 13.6981 14.1359C13.6772 14.0857 13.6664 14.032 13.6665 13.9778V13.1517C13.6665 12.4685 14.2272 11.9126 14.9165 11.9126H16.8014C17.1298 11.5119 18.0148 10.4298 18.334 10.0114C18.686 9.55035 19.1834 9.02124 19.9165 9.02124H20.3331C21.2522 9.02124 21.9998 9.76228 21.9998 10.6735V16.0431C21.9998 17.1818 21.0652 18.1082 19.9165 18.1082H17.2744L16.1326 20.7493C16.0652 20.9058 15.9114 20.9996 15.7498 20.9996Z" fill="white"/>
<path d="M14.083 21C14.0396 21 13.9951 20.9928 13.9513 20.9785C13.7334 20.9066 13.6151 20.6728 13.6881 20.4559L15.0697 16.3466C15.2959 15.6717 15.9317 15.2173 16.6506 15.2173H17.8329V13.9781C17.8329 13.7497 18.0193 13.5652 18.2497 13.5652C18.4801 13.5652 18.6664 13.7497 18.6664 13.9781V15.6304C18.6664 15.6846 18.6557 15.7383 18.6347 15.7885C18.6138 15.8386 18.5831 15.8842 18.5444 15.9225C18.5057 15.9609 18.4598 15.9913 18.4092 16.0121C18.3586 16.0328 18.3044 16.0435 18.2497 16.0434H16.6505C16.2913 16.0434 15.9734 16.2702 15.8604 16.6076L14.4785 20.7174C14.4507 20.7997 14.3976 20.8712 14.3266 20.9219C14.2557 20.9726 14.1704 20.9999 14.083 21Z" fill="white"/>
<path fill-rule="evenodd" clip-rule="evenodd" d="M18.0001 14.3085C18.075 14.3643 18.1626 14.3911 18.2495 14.3911C18.3767 14.3911 18.5016 14.334 18.5829 14.2259L19.8329 12.5737C19.9711 12.3915 19.9338 12.1326 19.7496 11.9959C19.5658 11.8591 19.3045 11.8959 19.1666 12.0784L17.9166 13.7307C17.7783 13.9128 17.8159 14.1718 18.0001 14.3085ZM7.86718 20.7495C7.9346 20.906 8.08839 20.9998 8.24999 20.9998C8.30647 21 8.36237 20.9886 8.41417 20.9663C8.62538 20.8763 8.72378 20.6335 8.6328 20.424L7.3828 17.5326C7.35074 17.4583 7.29736 17.395 7.2293 17.3505C7.16124 17.306 7.08151 17.2824 6.99999 17.2824H4.08328C3.39422 17.2824 2.83328 16.7264 2.83328 16.0433V10.6737C2.83328 10.2181 3.20711 9.84765 3.66672 9.84765H4.08328C4.37625 9.84765 4.64207 10.0393 5.00125 10.5097C5.40332 11.0371 6.62538 12.5241 6.6771 12.5868C6.75632 12.6832 6.8746 12.7389 6.99999 12.7389H9.08327C9.31288 12.7389 9.49999 12.924 9.49999 13.1519V13.978C9.49999 14.2064 9.68663 14.3911 9.91671 14.3911C10.1467 14.3911 10.3333 14.2064 10.3333 13.978V13.1519C10.3333 12.4687 9.77253 11.9128 9.08327 11.9128H7.19788C6.86952 11.5121 5.98499 10.43 5.66546 10.0116C5.31421 9.55057 4.81632 9.02146 4.08328 9.02146H3.66672C2.74754 9.02146 2 9.7625 2 10.6737V16.0433C2 17.182 2.93461 18.1085 4.08328 18.1085H6.72531L7.86718 20.7495Z" fill="white"/>
<path fill-rule="evenodd" clip-rule="evenodd" d="M4.08328 8.19543C2.93461 8.19543 2 7.26894 2 6.13026C2 4.99142 2.93461 4.06494 4.08328 4.06494C5.2321 4.06494 6.16671 4.99142 6.16671 6.13026C6.16671 7.26894 5.2321 8.19543 4.08328 8.19543ZM2.83328 6.13026C2.83328 5.447 3.39422 4.89113 4.08328 4.89113C4.77253 4.89113 5.33328 5.447 5.33328 6.13026C5.33328 6.81333 4.77253 7.36939 4.08328 7.36939C3.39422 7.36939 2.83328 6.81333 2.83328 6.13026Z" fill="#BDBDBD"/>
<path d="M9.91693 21C9.82945 20.9999 9.7442 20.9726 9.67323 20.9219C9.60226 20.8712 9.54916 20.7997 9.52142 20.7174L8.13974 16.6079C8.08454 16.4435 7.97847 16.3004 7.83658 16.1991C7.6947 16.0977 7.52422 16.0433 7.34935 16.0434H5.75021C5.52025 16.0434 5.3335 15.8587 5.3335 15.6304V13.9781C5.3335 13.7497 5.52025 13.5652 5.75021 13.5652C5.98017 13.5652 6.16693 13.7497 6.16693 13.9781V15.2173H7.34935C7.69921 15.2169 8.0403 15.3258 8.32416 15.5285C8.60802 15.7312 8.82022 16.0175 8.9306 16.3466L10.3123 20.4559C10.3852 20.6723 10.2673 20.9066 10.0489 20.9785C10.0063 20.9925 9.9618 20.9998 9.91693 21Z" fill="white"/>
<path fill-rule="evenodd" clip-rule="evenodd" d="M5.56367 14.3478C5.62163 14.3765 5.68552 14.3914 5.75029 14.3913C5.84029 14.3914 5.92785 14.3624 5.99975 14.3087C6.18393 14.1719 6.2215 13.913 6.08322 13.7309L4.83322 12.0787C4.69561 11.8961 4.43483 11.8593 4.24991 11.9961C4.06573 12.1328 4.02815 12.3918 4.16643 12.5739L5.41643 14.2261C5.4553 14.2775 5.50572 14.3191 5.56367 14.3478ZM15.1736 12.7078C15.2242 12.7285 15.2784 12.7391 15.3331 12.7391C15.5635 12.7391 15.7498 12.5545 15.7498 12.3261V9.43478C15.7498 8.06798 14.6286 6.95652 13.2498 6.95652H10.7498C9.37103 6.95652 8.24982 8.06798 8.24982 9.43478V10.6739C8.24982 10.9019 8.43646 11.087 8.66654 11.087C8.8965 11.087 9.0831 10.9019 9.0831 10.6739V9.43478C9.0831 8.52359 9.83064 7.78256 10.7498 7.78256H13.2498C14.169 7.78256 14.9165 8.52359 14.9165 9.43478V12.3261C14.9165 12.3804 14.9272 12.4341 14.9481 12.4842C14.969 12.5344 14.9997 12.5799 15.0384 12.6183C15.0771 12.6566 15.123 12.687 15.1736 12.7078Z" fill="white"/>
<path fill-rule="evenodd" clip-rule="evenodd" d="M11.9998 6.13049C10.8511 6.13049 9.91654 5.204 9.91654 4.06517C9.91654 2.92648 10.8511 2 11.9998 2C13.1485 2 14.0831 2.92648 14.0831 4.06517C14.0831 5.204 13.1485 6.13049 11.9998 6.13049ZM10.7498 4.06517C10.7498 3.38209 11.3106 2.82604 11.9998 2.82604C12.6891 2.82604 13.2498 3.38209 13.2498 4.06517C13.2498 4.74843 12.6891 5.3043 11.9998 5.3043C11.3106 5.3043 10.7498 4.74843 10.7498 4.06517Z" fill="#BDBDBD"/>
<path d="M11.5835 8.60901H12.4169V9.43504H11.5835V8.60901Z" fill="#BDBDBD"/>
</svg>
