<svg width="24" height="24" viewBox="0 0 24 24" fill="none" xmlns="http://www.w3.org/2000/svg">
<path d="M6.09307 22H10.6254M13.7457 22H18.278M5.79108 14.5123H2.29118C2.21395 14.5123 2.13989 14.4816 2.08528 14.427C2.03068 14.3724 2 14.2983 2 14.2211V13.3948C2 13.3176 2.03068 13.2435 2.08528 13.1889C2.13989 13.1343 2.21395 13.1036 2.29118 13.1036H5.79108M13.4245 14.5123H11.1961M18.5993 13.1036H21.761C21.8383 13.1036 21.9123 13.1343 21.9669 13.1889C22.0215 13.2435 22.0522 13.3176 22.0522 13.3948V14.2211C22.0522 14.2983 22.0215 14.3724 21.9669 14.427C21.9123 14.4816 21.8383 14.5123 21.761 14.5123H18.5993M10.9481 13.1036H13.4245M7.5033 16.4426H9.21516V17.8527H7.5033V16.4426ZM3.7395 22H2.81064C2.77406 22 2.73783 21.9928 2.70402 21.9788C2.67022 21.9648 2.63951 21.9443 2.61364 21.9185C2.58776 21.8926 2.56724 21.8619 2.55325 21.8281C2.53925 21.7943 2.53204 21.758 2.53205 21.7214V14.5123H4.01805V21.7214C4.01806 21.758 4.01086 21.7943 3.99686 21.8281C3.98286 21.8619 3.96235 21.8926 3.93648 21.9184C3.91061 21.9443 3.8799 21.9648 3.84611 21.9788C3.81231 21.9928 3.77608 22 3.7395 22ZM21.2416 22H20.3128C20.2762 22 20.2399 21.9928 20.2061 21.9788C20.1723 21.9648 20.1416 21.9443 20.1157 21.9185C20.0899 21.8926 20.0694 21.8619 20.0554 21.8281C20.0414 21.7943 20.0342 21.758 20.0342 21.7214V14.5123H21.5202V21.7214C21.5201 21.7953 21.4908 21.8662 21.4386 21.9184C21.3863 21.9707 21.3155 22 21.2416 22Z" stroke="white" stroke-miterlimit="10" stroke-linecap="round" stroke-linejoin="round"/>
<path d="M10.2331 16.4426H6.48549C6.07355 16.4426 5.74719 16.0948 5.77338 15.6837L6.18124 9.2793C6.20516 8.9036 6.51688 8.61108 6.89335 8.61108H9.82521C10.2017 8.61108 10.5134 8.90356 10.5373 9.2793L10.9452 15.6837C10.9714 16.0948 10.645 16.4426 10.2331 16.4426ZM10.046 17.8527H6.67262C6.0374 17.8527 5.52246 18.3676 5.52246 19.0028C5.52246 19.2306 5.70717 19.4154 5.935 19.4154H10.7836C11.0114 19.4154 11.1961 19.2306 11.1961 19.0028C11.1961 18.3676 10.6812 17.8527 10.046 17.8527Z" stroke="white" stroke-miterlimit="10" stroke-linecap="round" stroke-linejoin="round"/>
<path d="M7.73706 19.4154H8.98151V22H7.73706V19.4154ZM18.2523 10.2592L18.5978 15.6837C18.624 16.0948 18.2976 16.4426 17.8857 16.4426H14.1381C13.7261 16.4426 13.3998 16.0948 13.426 15.6837L13.8338 9.2793C13.8577 8.9036 14.1695 8.61108 14.5459 8.61108H17.4778C17.8543 8.61108 18.166 8.90356 18.1899 9.2793L18.2523 10.2592ZM15.156 16.4426H16.8678V17.8527H15.156V16.4426ZM17.6986 17.8527H14.3252C13.69 17.8527 13.175 18.3676 13.175 19.0028C13.175 19.2306 13.3597 19.4154 13.5876 19.4154H18.4362C18.664 19.4154 18.8487 19.2306 18.8487 19.0028C18.8487 18.3676 18.3338 17.8527 17.6986 17.8527Z" stroke="white" stroke-miterlimit="10" stroke-linecap="round" stroke-linejoin="round"/>
<path d="M4.27958 2H21.4317C21.7744 2 22.0522 2.27779 22.0522 2.62049C22.0522 2.96315 21.7744 3.24098 21.4317 3.24098H2.62049C2.27783 3.24098 2 2.96319 2 2.62049C2 2.27783 2.27779 2 2.62049 2H4.33634M15.3896 19.4153H16.6341V22H15.3896V19.4153Z" stroke="white" stroke-miterlimit="10" stroke-linecap="round" stroke-linejoin="round"/>
<path d="M7.52249 5.49964H6.21558C5.98109 5.49964 5.79102 5.30957 5.79102 5.07508V4.28626C5.79102 3.70899 6.25899 3.24097 6.83631 3.24097H6.90175C7.47903 3.24097 7.94705 3.70895 7.94705 4.28626V5.07512C7.94701 5.30957 7.75694 5.49964 7.52249 5.49964ZM12.6795 5.49964H11.3726C11.1381 5.49964 10.948 5.30957 10.948 5.07508V4.28626C10.948 3.70899 11.416 3.24097 11.9933 3.24097H12.0588C12.636 3.24097 13.1041 3.70895 13.1041 4.28626V5.07512C13.1041 5.30957 12.9139 5.49964 12.6795 5.49964ZM17.8365 5.49964H16.5296C16.2951 5.49964 16.105 5.30957 16.105 5.07508V4.28626C16.105 3.70899 16.573 3.24097 17.1503 3.24097H17.2158C17.7931 3.24097 18.2611 3.70895 18.2611 4.28626V5.07512C18.2611 5.30957 18.071 5.49964 17.8365 5.49964Z" stroke="#BDBDBD" stroke-miterlimit="10" stroke-linecap="round" stroke-linejoin="round"/>
</svg>
