<svg width="24" height="24" viewBox="0 0 24 24" fill="none" xmlns="http://www.w3.org/2000/svg">
<path d="M14.5112 20.5399C14.3423 20.2012 14.0025 19.9909 13.6244 19.9909H12.2998V17.2279H17.5157C18.0624 17.2279 18.5072 16.7825 18.5072 16.235V16.1486C18.5072 15.6011 18.0624 15.1557 17.5157 15.1557H16.5003L16.7782 13.4856C16.7865 13.4361 16.7838 13.3854 16.7705 13.3371C16.7572 13.2887 16.7336 13.2438 16.7012 13.2056C16.6688 13.1673 16.6285 13.1365 16.5831 13.1155C16.5376 13.0944 16.4881 13.0834 16.438 13.0834H16.1119L16.4204 12.1566C16.4493 12.0696 16.4426 11.9748 16.4017 11.8929C16.3607 11.8109 16.289 11.7486 16.2022 11.7197C16.0215 11.6595 15.8263 11.7572 15.766 11.9381L15.3848 13.0834H14.3689C14.3188 13.0834 14.2693 13.0943 14.2239 13.1154C14.1784 13.1365 14.1381 13.1673 14.1057 13.2055C14.0734 13.2438 14.0497 13.2887 14.0364 13.3371C14.0231 13.3854 14.0205 13.4361 14.0287 13.4856L14.3067 15.1557H12.2998V8.93897H15.4035C15.4675 8.93897 15.5303 8.92111 15.5848 8.88739C15.6392 8.85367 15.6833 8.80543 15.7119 8.74806L16.0932 7.9844L16.4745 8.74806C16.5031 8.80543 16.5471 8.85367 16.6016 8.88739C16.6561 8.92111 16.7189 8.93897 16.7829 8.93897H20.9212C20.9852 8.93897 21.048 8.92111 21.1025 8.88739C21.1569 8.85367 21.201 8.80543 21.2296 8.74806L21.9193 7.36657C21.9602 7.28465 21.967 7.1898 21.938 7.10291C21.9091 7.01601 21.8469 6.94418 21.7651 6.90321L12.1092 2.06798C12.0613 2.04399 12.0085 2.03149 11.9549 2.03149C11.9014 2.03149 11.8486 2.04399 11.8007 2.06798L2.14471 6.90321C2.06291 6.94418 2.00071 7.01601 1.97179 7.10291C1.94288 7.1898 1.94961 7.28465 1.99051 7.36657L2.68023 8.74806C2.70886 8.80543 2.75289 8.85367 2.80736 8.88739C2.86184 8.92111 2.92462 8.93897 2.98866 8.93897H7.12693C7.19097 8.93897 7.25374 8.92111 7.30822 8.88739C7.3627 8.85367 7.40672 8.80543 7.43536 8.74806L7.81664 7.9844L8.19792 8.74806C8.22656 8.80543 8.27058 8.85367 8.32506 8.88739C8.37954 8.92111 8.44231 8.93897 8.50635 8.93897H11.6101V15.1557H9.60317L9.88112 13.4856C9.88935 13.4361 9.88673 13.3854 9.87342 13.3371C9.86012 13.2887 9.83645 13.2438 9.80407 13.2056C9.7717 13.1673 9.73138 13.1365 9.68594 13.1155C9.64049 13.0944 9.59101 13.0834 9.54092 13.0834H8.52502L8.14382 11.9381C8.11488 11.8512 8.05267 11.7794 7.97086 11.7384C7.88906 11.6975 7.79435 11.6907 7.70758 11.7197C7.62082 11.7486 7.5491 11.8109 7.50819 11.8929C7.46729 11.9748 7.46055 12.0696 7.48946 12.1566L7.79793 13.0834H7.47178C7.42169 13.0834 7.3722 13.0943 7.32675 13.1154C7.2813 13.1365 7.24098 13.1673 7.20861 13.2055C7.17623 13.2438 7.15257 13.2887 7.13928 13.3371C7.12598 13.3854 7.12337 13.4361 7.13163 13.4856L7.40954 15.1557H6.39411C5.84738 15.1557 5.40265 15.6011 5.40265 16.1486V16.235C5.40265 16.7825 5.84738 17.2279 6.39411 17.2279H11.6101V19.9909H10.2854C9.90737 19.9909 9.5676 20.2012 9.39867 20.5398L9.0107 21.3169C8.85591 21.6269 8.87212 21.9881 9.05407 22.283C9.23607 22.5778 9.55135 22.7539 9.89746 22.7539H14.0124C14.3585 22.7539 14.6738 22.5778 14.8558 22.283C15.0378 21.9881 15.054 21.6269 14.8992 21.3169L14.5112 20.5399ZM7.65805 6.86673H3.75984L10.5817 3.45064L7.65805 6.86673ZM11.9549 2.90759L15.3434 6.86673H8.56644L11.9549 2.90759ZM13.3281 3.45064L20.15 6.86673H16.2518L13.3281 3.45064ZM20.7081 8.24822H16.9961L16.6512 7.55747H21.0529L20.7081 8.24822ZM6.91381 8.24822H3.20178L2.85692 7.55747H7.25862L6.91381 8.24822ZM8.37462 7.55747H15.5352L15.1903 8.24822H8.71947L8.37462 7.55747ZM14.776 13.7742H16.0309L15.801 15.1557H15.0059L14.776 13.7742ZM7.87884 13.7742H9.13382L8.90389 15.1557H8.10878L7.87884 13.7742ZM6.09236 16.235V16.1486C6.09236 15.982 6.22776 15.8464 6.39411 15.8464H17.5157C17.6821 15.8464 17.8175 15.982 17.8175 16.1486V16.235C17.8175 16.4016 17.6821 16.5372 17.5157 16.5372H6.39411C6.22776 16.5372 6.09236 16.4016 6.09236 16.235ZM14.2691 21.9198C14.2425 21.9629 14.1642 22.0631 14.0124 22.0631H9.89746C9.74564 22.0631 9.66735 21.9629 9.6408 21.9198C9.6142 21.8767 9.55967 21.7619 9.62757 21.6258L10.0156 20.8486C10.0405 20.7983 10.079 20.756 10.1267 20.7265C10.1743 20.697 10.2294 20.6814 10.2854 20.6817H13.6244C13.6805 20.6815 13.7355 20.697 13.7833 20.7265C13.831 20.7561 13.8694 20.7984 13.8943 20.8487L14.2823 21.6258C14.3502 21.7619 14.2957 21.8767 14.2691 21.9198Z" fill="#BDBDBD"/>
<path d="M21.3232 13.0684H21.2369C20.6893 13.0684 20.2439 13.5145 20.2439 14.0628V17.6084C20.2439 17.7753 20.1083 17.9111 19.9417 17.9111H16.747C16.1995 17.9111 15.7541 18.3572 15.7541 18.9056V21.7593C15.7541 22.3077 16.1995 22.7538 16.747 22.7538H16.8333C17.3809 22.7538 17.8263 22.3077 17.8263 21.7593V20.2892C17.8263 20.1224 17.9619 19.9866 18.1285 19.9866H19.9417C20.1083 19.9866 20.2439 20.1224 20.2439 20.2892V21.7593C20.2439 22.3077 20.6893 22.7538 21.2369 22.7538H21.3232C21.8708 22.7538 22.3162 22.3077 22.3162 21.7593V14.0628C22.3162 13.5145 21.8708 13.0684 21.3232 13.0684ZM21.6254 21.7593C21.6254 21.9262 21.4898 22.062 21.3232 22.062H21.2369C21.0703 22.062 20.9347 21.9262 20.9347 21.7593V20.2892C20.9347 19.7408 20.4893 19.2947 19.9417 19.2947H18.1285C17.581 19.2947 17.1356 19.7408 17.1356 20.2892V21.7593C17.1356 21.9262 16.9999 22.062 16.8333 22.062H16.747C16.5804 22.062 16.4448 21.9262 16.4448 21.7593V18.9056C16.4448 18.7387 16.5804 18.6029 16.747 18.6029H19.9417C20.4893 18.6029 20.9347 18.1568 20.9347 17.6084V14.0628C20.9347 13.896 21.0703 13.7602 21.2369 13.7602H21.3232C21.4898 13.7602 21.6254 13.896 21.6254 14.0628V21.7593ZM7.1629 17.9111H3.96819C3.80159 17.9111 3.66599 17.7753 3.66599 17.6084V14.0628C3.66599 13.5145 3.22059 13.0684 2.67304 13.0684H2.5867C2.03915 13.0684 1.59375 13.5145 1.59375 14.0628V21.7593C1.59375 22.3077 2.03915 22.7538 2.5867 22.7538H2.67304C3.22059 22.7538 3.66599 22.3077 3.66599 21.7593V20.2892C3.66599 20.1224 3.80159 19.9866 3.96819 19.9866H5.7814C5.948 19.9866 6.0836 20.1224 6.0836 20.2892V21.7593C6.0836 22.3077 6.52901 22.7538 7.07655 22.7538H7.1629C7.71044 22.7538 8.15584 22.3077 8.15584 21.7593V18.9056C8.15584 18.3572 7.71044 17.9111 7.1629 17.9111ZM7.4651 21.7593C7.4651 21.9262 7.32949 22.062 7.1629 22.062H7.07655C6.90995 22.062 6.77435 21.9262 6.77435 21.7593V20.2892C6.77435 19.7408 6.32895 19.2947 5.7814 19.2947H3.96819C3.42065 19.2947 2.97524 19.7408 2.97524 20.2892V21.7593C2.97524 21.9262 2.83964 22.062 2.67304 22.062H2.5867C2.4201 22.062 2.2845 21.9262 2.2845 21.7593V14.0628C2.2845 13.896 2.4201 13.7602 2.5867 13.7602H2.67304C2.83964 13.7602 2.97524 13.896 2.97524 14.0628V17.6084C2.97524 18.1568 3.42065 18.6029 3.96819 18.6029H7.1629C7.32949 18.6029 7.4651 18.7387 7.4651 18.9056V21.7593Z" fill="#BDBDBD"/>
<path d="M20.735 1.12812V0.796875M20.735 5.0765V4.74526M19.4562 1.65784L19.2219 1.42361M22.2481 4.44977L22.0139 4.21554M18.9265 2.93669H18.5952M22.8748 2.93669H22.5436M19.4562 4.21554L19.2219 4.44977M22.2481 1.42361L22.0139 1.65784M21.6973 2.44052C21.5173 2.09224 21.1541 1.85398 20.735 1.85398C20.137 1.85398 19.6523 2.33873 19.6523 2.93671C19.6523 3.5347 20.137 4.01945 20.735 4.01945C21.1797 4.01945 21.5615 3.75133 21.7282 3.36802" stroke="#BDBDBD" stroke-width="0.5" stroke-miterlimit="10" stroke-linecap="round" stroke-linejoin="round"/>
</svg>
