<svg width="24" height="24" viewBox="0 0 24 24" fill="none" xmlns="http://www.w3.org/2000/svg">
<path fill-rule="evenodd" clip-rule="evenodd" d="M12.0645 2.18555C11.9408 2.06185 11.7943 2 11.625 2C11.4557 2 11.3092 2.06185 11.1855 2.18555C11.0618 2.30924 11 2.45573 11 2.625V9.5C11.0065 9.66927 10.974 9.83203 10.9023 9.98828C10.8307 10.1445 10.7396 10.278 10.6289 10.3887C10.5182 10.4993 10.388 10.5872 10.2383 10.6523C10.0885 10.7174 9.92578 10.75 9.75 10.75V2.625C9.75 2.45573 9.68815 2.30924 9.56445 2.18555C9.44076 2.06185 9.29427 2 9.125 2C8.95573 2 8.80924 2.06185 8.68555 2.18555C8.56185 2.30924 8.5 2.45573 8.5 2.625V10.75C8.33073 10.7565 8.16797 10.724 8.01172 10.6523C7.85547 10.5807 7.72201 10.4896 7.61133 10.3789C7.50065 10.2682 7.41276 10.138 7.34766 9.98828C7.28255 9.83854 7.25 9.67578 7.25 9.5V2.625C7.25 2.45573 7.18815 2.30924 7.06445 2.18555C6.94076 2.06185 6.79427 2 6.625 2C6.45573 2 6.30924 2.06185 6.18555 2.18555C6.06185 2.30924 6 2.45573 6 2.625V9.5C6.00651 9.85156 6.07487 10.1771 6.20508 10.4766C6.33529 10.776 6.51432 11.0397 6.74219 11.2676C6.97005 11.4954 7.23372 11.6745 7.5332 11.8047C7.83268 11.9349 8.15495 12 8.5 12V21.375C8.5 21.5443 8.56185 21.6908 8.68555 21.8145C8.80924 21.9382 8.95573 22 9.125 22C9.29427 22 9.44076 21.9382 9.56445 21.8145C9.68815 21.6908 9.75 21.5443 9.75 21.375V12C10.0885 11.9935 10.4108 11.9251 10.7168 11.7949C11.0228 11.6647 11.2897 11.4857 11.5176 11.2578C11.7454 11.0299 11.9245 10.7663 12.0547 10.4668C12.1849 10.1673 12.25 9.84505 12.25 9.5V2.625C12.25 2.45573 12.1882 2.30924 12.0645 2.18555Z" fill="white"/>
<path fill-rule="evenodd" clip-rule="evenodd" d="M18.5 2V21.375C18.5 21.5443 18.4382 21.6908 18.3145 21.8145C18.1908 21.9382 18.0443 22 17.875 22C17.7057 22 17.5592 21.9382 17.4355 21.8145C17.3118 21.6908 17.25 21.5443 17.25 21.375V15.75C17.0091 15.75 16.7487 15.7533 16.4688 15.7598C16.1888 15.7663 15.9121 15.763 15.6387 15.75C15.3652 15.737 15.0983 15.6979 14.8379 15.6328C14.5775 15.5677 14.3496 15.4668 14.1543 15.3301C13.959 15.1934 13.7995 15.0078 13.6758 14.7734C13.5521 14.5391 13.4935 14.2396 13.5 13.875V6.375C13.5 5.76953 13.6139 5.20312 13.8418 4.67578C14.0697 4.14844 14.3822 3.6862 14.7793 3.28906C15.1764 2.89193 15.6387 2.57943 16.166 2.35156C16.6934 2.1237 17.263 2.00651 17.875 2H18.5ZM16.2539 3.69922C16.5534 3.51042 16.8854 3.38021 17.25 3.30859V14.5H15.375C15.2057 14.5 15.0592 14.4382 14.9355 14.3145C14.8118 14.1908 14.75 14.0443 14.75 13.875V6.375C14.75 5.99089 14.8118 5.63607 14.9355 5.31055C15.0592 4.98503 15.235 4.68229 15.4629 4.40234C15.6908 4.1224 15.9544 3.88802 16.2539 3.69922Z" fill="#BDBDBD"/>
</svg>
