<svg width="24" height="24" viewBox="0 0 24 24" fill="none" xmlns="http://www.w3.org/2000/svg">
<path d="M8.12913 14.0833C10.8014 14.0833 12.9677 11.9566 12.9677 9.33326C12.9677 6.70991 10.8014 4.58325 8.12913 4.58325C5.45689 4.58325 3.29053 6.70991 3.29053 9.33326C3.29351 11.9553 5.45814 14.0803 8.12913 14.0833ZM8.12913 5.21659C10.4451 5.21659 12.3226 7.05967 12.3226 9.33326C12.3226 11.6069 10.4451 13.4499 8.12913 13.4499C5.81317 13.4499 3.93567 11.6068 3.93567 9.33326C3.93834 7.06078 5.81426 5.2192 8.12913 5.21659Z" fill="white"/>
<path d="M7.16144 15.2673V16.6167H6.51629V16.3C6.51629 16.216 6.48231 16.1355 6.42181 16.0761C6.36132 16.0167 6.27927 15.9833 6.19372 15.9833C6.10817 15.9833 6.02612 16.0167 5.96563 16.0761C5.90513 16.1355 5.87115 16.216 5.87115 16.3V17.5667C5.87115 17.6507 5.90513 17.7312 5.96563 17.7906C6.02612 17.85 6.10817 17.8834 6.19372 17.8834C6.27927 17.8834 6.36132 17.85 6.42181 17.7906C6.48231 17.7312 6.51629 17.6507 6.51629 17.5667V17.25H7.22083C7.269 17.3825 7.34653 17.5027 7.44783 17.6022C7.54913 17.7016 7.67167 17.7777 7.80659 17.825V18.8333C7.80659 18.8409 7.81054 18.8472 7.81114 18.8548C7.81304 18.8763 7.81731 18.8976 7.82405 18.9182C7.8288 18.9371 7.83542 18.9556 7.84376 18.9732C7.85288 18.9903 7.8636 19.0065 7.8759 19.0213C7.88896 19.0391 7.90376 19.0555 7.92013 19.0702C7.92598 19.075 7.9288 19.0819 7.93497 19.0863L9.22526 20.0363C9.23909 20.0448 9.25361 20.0522 9.26857 20.0585C9.28038 20.0653 9.29252 20.0715 9.30494 20.0773C9.34135 20.0915 9.38022 20.0992 9.41945 20.1H16.2529C16.3194 20.2846 16.4423 20.4445 16.6049 20.5578C16.7675 20.6712 16.9618 20.7325 17.1612 20.7333H17.4838V21.6833C17.4838 21.7673 17.5178 21.8479 17.5783 21.9072C17.6388 21.9666 17.7208 22 17.8064 22H19.0967C19.1822 22 19.2643 21.9666 19.3247 21.9072C19.3852 21.8479 19.4192 21.7673 19.4192 21.6833V20.1H20.0644V20.4167C20.0644 20.5006 20.0984 20.5812 20.1589 20.6406C20.2193 20.7 20.3014 20.7333 20.3869 20.7333C20.4725 20.7333 20.5545 20.7 20.615 20.6406C20.6755 20.5812 20.7095 20.5006 20.7095 20.4167V19.15C20.7095 19.066 20.6755 18.9855 20.615 18.9261C20.5545 18.8667 20.4725 18.8333 20.3869 18.8333C20.3014 18.8333 20.2193 18.8667 20.1589 18.9261C20.0984 18.9855 20.0644 19.066 20.0644 19.15V19.4667H19.4192V15.9833C19.4184 15.7875 19.3559 15.5968 19.2405 15.4372C19.125 15.2776 18.9621 15.1569 18.7741 15.0916V14.0833C18.7722 14.0562 18.7667 14.0295 18.7577 14.0038C18.8841 13.9368 18.984 13.8304 19.0418 13.7013C19.0996 13.5723 19.1118 13.428 19.0767 13.2913C19.0504 13.1892 18.9986 13.0952 18.9259 13.0177C18.8533 12.9402 18.7622 12.8817 18.6607 12.8475C18.5593 12.8133 18.4507 12.8045 18.3449 12.8218C18.2391 12.8392 18.1394 12.8821 18.0548 12.9468C17.9701 13.0115 17.9033 13.0959 17.8602 13.1924C17.8172 13.2888 17.7993 13.3943 17.8083 13.4992C17.8172 13.6042 17.8526 13.7053 17.9114 13.7934C17.9701 13.8815 18.0503 13.9538 18.1447 14.0038C18.1358 14.0295 18.1305 14.0562 18.1289 14.0833V15.0916C17.9409 15.1569 17.778 15.2776 17.6626 15.4372C17.5471 15.5968 17.4846 15.7875 17.4838 15.9833V16.3H16.8386V15.9833C16.8386 15.8993 16.8047 15.8188 16.7442 15.7594C16.6837 15.7 16.6016 15.6666 16.5161 15.6666C16.4305 15.6666 16.3485 15.7 16.288 15.7594C16.2275 15.8188 16.1935 15.8993 16.1935 15.9833V17.25C16.1935 17.334 16.2275 17.4145 16.288 17.4739C16.3485 17.5333 16.4305 17.5666 16.5161 17.5666C16.6016 17.5666 16.6837 17.5333 16.7442 17.4739C16.8047 17.4145 16.8386 17.334 16.8386 17.25V16.9333H17.4838V18.8333H17.1612C16.9618 18.8342 16.7675 18.8954 16.6049 19.0088C16.4423 19.1222 16.3194 19.2821 16.2529 19.4667H9.52687L8.45173 18.675V17.825C8.63975 17.7597 8.80263 17.639 8.91811 17.4794C9.03359 17.3198 9.09603 17.1291 9.09688 16.9333V15.2672C12.2535 14.7718 14.4919 11.9779 14.2388 8.84963C13.9856 5.72135 11.3257 3.30957 8.12916 3.30957C4.93258 3.30957 2.27276 5.72131 2.0195 8.84963C1.76636 11.978 4.00486 14.7719 7.16144 15.2673V15.2673ZM18.1289 15.9833C18.1289 15.8994 18.1629 15.8188 18.2234 15.7594C18.2839 15.7 18.366 15.6667 18.4515 15.6667C18.5371 15.6667 18.6191 15.7 18.6796 15.7594C18.7401 15.8188 18.7741 15.8994 18.7741 15.9833V21.3667H18.1289V15.9833ZM8.45173 15.35V16.9334C8.45173 17.0173 8.41775 17.0979 8.35725 17.1573C8.29676 17.2167 8.21471 17.25 8.12916 17.25C8.04361 17.25 7.96156 17.2167 7.90107 17.1573C7.84057 17.0979 7.80659 17.0173 7.80659 16.9334V15.35H8.45173ZM8.12916 3.94999C11.1577 3.94999 13.6129 6.36022 13.6129 9.33334C13.6129 12.3064 11.1577 14.7167 8.12916 14.7167C5.1006 14.7167 2.64541 12.3064 2.64541 9.33334C2.64872 6.36165 5.10205 3.95324 8.12916 3.94999Z" fill="white"/>
<path d="M21.3547 8.75832V4.58334C21.3536 3.70926 20.6322 3.00107 19.7419 3H17.1613C16.2709 3.00107 15.5495 3.70926 15.5484 4.58334V8.75832C15.3599 8.82282 15.1965 8.94332 15.0808 9.1031C14.9652 9.26288 14.9031 9.45402 14.9031 9.65001C14.9031 9.84601 14.9652 10.0372 15.0808 10.1969C15.1965 10.3567 15.3599 10.4772 15.5484 10.5417V12.1834C15.5492 12.9062 16.0496 13.5363 16.7636 13.7135C16.8105 13.7252 16.8594 13.7263 16.9068 13.7169C16.9542 13.7076 16.9988 13.6878 17.0374 13.6592C17.076 13.6306 17.1075 13.5939 17.1297 13.5517C17.1519 13.5095 17.1641 13.463 17.1655 13.4155C17.1811 12.7292 17.7524 12.1809 18.4516 12.1809C19.1507 12.1809 19.722 12.7292 19.7376 13.4155C19.74 13.498 19.775 13.5762 19.8353 13.6337C19.8955 13.6912 19.9762 13.7233 20.0602 13.7232C20.0871 13.7235 20.1139 13.7202 20.1399 13.7135C20.8537 13.5362 21.354 12.9061 21.3547 12.1834V10.5417C21.5433 10.4772 21.7067 10.3567 21.8223 10.1969C21.9379 10.0371 22.0001 9.84597 22.0001 9.64997C22.0001 9.45398 21.9379 9.26284 21.8223 9.10306C21.7067 8.94328 21.5433 8.82278 21.3547 8.75828V8.75832ZM16.1936 4.58334C16.1944 4.38756 16.2568 4.19683 16.3723 4.03722C16.4878 3.87761 16.6507 3.75691 16.8387 3.69164V3.95C16.8387 4.03399 16.8727 4.11453 16.9332 4.17392C16.9937 4.23331 17.0757 4.26667 17.1613 4.26667C17.2468 4.26667 17.3289 4.23331 17.3894 4.17392C17.4499 4.11453 17.4839 4.03399 17.4839 3.95V3.63333H18.129V3.95C18.129 4.03399 18.163 4.11453 18.2235 4.17392C18.284 4.23331 18.366 4.26667 18.4516 4.26667C18.5371 4.26667 18.6192 4.23331 18.6797 4.17392C18.7402 4.11453 18.7741 4.03399 18.7741 3.95V3.63333H19.4193V3.95C19.4193 4.03399 19.4533 4.11453 19.5138 4.17392C19.5743 4.23331 19.6563 4.26667 19.7419 4.26667C19.8274 4.26667 19.9095 4.23331 19.97 4.17392C20.0305 4.11453 20.0644 4.03399 20.0644 3.95V3.69164C20.2525 3.75691 20.4153 3.87761 20.5308 4.03722C20.6463 4.19683 20.7087 4.38756 20.7096 4.58334V8.70001H16.1936V4.58334ZM20.7096 12.1834C20.7095 12.3318 20.6737 12.4781 20.6051 12.6105C20.5366 12.7428 20.4372 12.8574 20.315 12.9449C20.0846 12.1212 19.3218 11.5503 18.4516 11.5503C17.5813 11.5503 16.8185 12.1212 16.5881 12.9449C16.466 12.8574 16.3666 12.7428 16.298 12.6105C16.2294 12.4781 16.1937 12.3318 16.1936 12.1834V10.6H20.7096V12.1834ZM21.0322 9.96668H15.871C15.7854 9.96668 15.7034 9.93332 15.6429 9.87393C15.5824 9.81455 15.5484 9.734 15.5484 9.65001C15.5484 9.56603 15.5824 9.48548 15.6429 9.4261C15.7034 9.36671 15.7854 9.33335 15.871 9.33335H21.0322C21.1177 9.33335 21.1998 9.36671 21.2603 9.4261C21.3207 9.48548 21.3547 9.56603 21.3547 9.65001C21.3547 9.734 21.3207 9.81455 21.2603 9.87393C21.1998 9.93332 21.1177 9.96668 21.0322 9.96668Z" fill="white"/>
<path d="M17.4838 7.74844C17.4825 7.83196 17.4478 7.91162 17.3871 7.97022C17.3265 8.02882 17.2448 8.06167 17.1597 8.06167C17.0746 8.06167 16.9929 8.02882 16.9323 7.97022C16.8716 7.91162 16.8369 7.83196 16.8355 7.74844C16.8355 7.70664 16.8439 7.66524 16.8602 7.62662C16.8765 7.588 16.9003 7.5529 16.9304 7.52334C16.9605 7.49377 16.9963 7.47032 17.0356 7.45432C17.075 7.43831 17.1171 7.43007 17.1597 7.43007C17.3386 7.43007 17.4838 7.57261 17.4838 7.74844ZM18.7741 7.74844C18.7728 7.83196 18.738 7.91162 18.6774 7.97022C18.6168 8.02882 18.5351 8.06167 18.45 8.06167C18.3649 8.06167 18.2832 8.02882 18.2226 7.97022C18.1619 7.91162 18.1272 7.83196 18.1258 7.74844C18.1258 7.70664 18.1342 7.66524 18.1505 7.62662C18.1668 7.588 18.1906 7.5529 18.2207 7.52334C18.2508 7.49377 18.2866 7.47032 18.3259 7.45432C18.3652 7.43831 18.4074 7.43007 18.45 7.43007C18.6289 7.43007 18.7741 7.57261 18.7741 7.74844ZM20.0644 7.74844C20.0631 7.83196 20.0283 7.91162 19.9677 7.97022C19.9071 8.02882 19.8254 8.06167 19.7403 8.06167C19.6552 8.06167 19.5735 8.02882 19.5129 7.97022C19.4522 7.91162 19.4175 7.83196 19.4161 7.74844C19.4161 7.70664 19.4245 7.66524 19.4408 7.62662C19.4571 7.588 19.4809 7.5529 19.511 7.52334C19.5411 7.49377 19.5769 7.47032 19.6162 7.45432C19.6555 7.43831 19.6977 7.43007 19.7403 7.43007C19.9192 7.43007 20.0644 7.57261 20.0644 7.74844ZM17.4838 6.48177C17.4825 6.56529 17.4478 6.64495 17.3871 6.70355C17.3265 6.76215 17.2448 6.795 17.1597 6.795C17.0746 6.795 16.9929 6.76215 16.9323 6.70355C16.8716 6.64495 16.8369 6.56529 16.8355 6.48177C16.8355 6.43997 16.8439 6.39857 16.8602 6.35995C16.8765 6.32133 16.9003 6.28623 16.9304 6.25667C16.9605 6.2271 16.9963 6.20365 17.0356 6.18765C17.075 6.17164 17.1171 6.1634 17.1597 6.1634C17.3386 6.1634 17.4838 6.30594 17.4838 6.48177ZM18.7741 6.48177C18.7728 6.56529 18.738 6.64495 18.6774 6.70355C18.6168 6.76215 18.5351 6.795 18.45 6.795C18.3649 6.795 18.2832 6.76215 18.2226 6.70355C18.1619 6.64495 18.1272 6.56529 18.1258 6.48177C18.1258 6.43997 18.1342 6.39857 18.1505 6.35995C18.1668 6.32133 18.1906 6.28623 18.2207 6.25667C18.2508 6.2271 18.2866 6.20365 18.3259 6.18765C18.3652 6.17164 18.4074 6.1634 18.45 6.1634C18.6289 6.1634 18.7741 6.30594 18.7741 6.48177ZM20.0644 6.48177C20.0631 6.56529 20.0283 6.64495 19.9677 6.70355C19.9071 6.76215 19.8254 6.795 19.7403 6.795C19.6552 6.795 19.5735 6.76215 19.5129 6.70355C19.4522 6.64495 19.4175 6.56529 19.4161 6.48177C19.4161 6.43997 19.4245 6.39857 19.4408 6.35995C19.4571 6.32133 19.4809 6.28623 19.511 6.25667C19.5411 6.2271 19.5769 6.20365 19.6162 6.18765C19.6555 6.17164 19.6977 6.1634 19.7403 6.1634C19.9192 6.1634 20.0644 6.30594 20.0644 6.48177ZM17.4838 5.2151C17.4825 5.29862 17.4478 5.37828 17.3871 5.43688C17.3265 5.49548 17.2448 5.52833 17.1597 5.52833C17.0746 5.52833 16.9929 5.49548 16.9323 5.43688C16.8716 5.37828 16.8369 5.29862 16.8355 5.2151C16.8355 5.1733 16.8439 5.1319 16.8602 5.09328C16.8765 5.05466 16.9003 5.01956 16.9304 4.99C16.9605 4.96043 16.9963 4.93698 17.0356 4.92098C17.075 4.90497 17.1171 4.89673 17.1597 4.89673C17.3386 4.89673 17.4838 5.03927 17.4838 5.2151ZM18.7741 5.2151C18.7728 5.29862 18.738 5.37828 18.6774 5.43688C18.6168 5.49548 18.5351 5.52833 18.45 5.52833C18.3649 5.52833 18.2832 5.49548 18.2226 5.43688C18.1619 5.37828 18.1272 5.29862 18.1258 5.2151C18.1258 5.1733 18.1342 5.1319 18.1505 5.09328C18.1668 5.05466 18.1906 5.01956 18.2207 4.99C18.2508 4.96043 18.2866 4.93698 18.3259 4.92098C18.3652 4.90497 18.4074 4.89673 18.45 4.89673C18.6289 4.89673 18.7741 5.03927 18.7741 5.2151ZM20.0644 5.2151C20.0631 5.29862 20.0283 5.37828 19.9677 5.43688C19.9071 5.49548 19.8254 5.52833 19.7403 5.52833C19.6552 5.52833 19.5735 5.49548 19.5129 5.43688C19.4522 5.37828 19.4175 5.29862 19.4161 5.2151C19.4161 5.1733 19.4245 5.1319 19.4408 5.09328C19.4571 5.05466 19.4809 5.01956 19.511 4.99C19.5411 4.96043 19.5769 4.93698 19.6162 4.92098C19.6555 4.90497 19.6977 4.89673 19.7403 4.89673C19.9192 4.89673 20.0644 5.03927 20.0644 5.2151ZM8.12921 6.48331C9.73184 6.48501 11.0306 7.76004 11.0324 9.33332C11.0324 9.4173 11.0664 9.49785 11.1269 9.55724C11.1873 9.61662 11.2694 9.64998 11.3549 9.64998C11.4405 9.64998 11.5225 9.61662 11.583 9.55724C11.6435 9.49785 11.6775 9.4173 11.6775 9.33332C11.6751 7.41043 10.088 5.85231 8.12921 5.84998C8.04366 5.84998 7.96161 5.88334 7.90112 5.94273C7.84063 6.00211 7.80664 6.08266 7.80664 6.16664C7.80664 6.25063 7.84063 6.33117 7.90112 6.39056C7.96161 6.44995 8.04366 6.48331 8.12921 6.48331Z" fill="#BDBDBD"/>
</svg>
