<svg width="24" height="24" viewBox="0 0 24 24" fill="none" xmlns="http://www.w3.org/2000/svg">
<path d="M12 6C15.1959 6 18.1984 7.10467 20.5596 9.12958C20.9788 9.48908 21.6095 9.49244 22 9.10194C22.3905 8.71149 22.3926 8.07555 21.9772 7.7117C19.2368 5.31113 15.7309 4 12 4C8.26899 4.00092 4.76312 5.31128 2.02273 7.71171C1.60736 8.07555 1.60946 8.71149 1.99991 9.10194C2.39041 9.49244 3.02117 9.48908 3.44037 9.12958C5.80153 7.10467 8.804 6 12 6ZM16.964 15.014C17.3544 14.6235 17.3575 13.9841 16.9198 13.6475C14.0662 11.4528 9.93373 11.4528 7.08013 13.6475C6.64242 13.9841 6.6455 14.6235 7.03597 15.014C7.42643 15.4045 8.05586 15.3958 8.50766 15.0783C10.5713 13.6282 13.4287 13.6282 15.4923 15.0783C15.9441 15.3958 16.5735 15.4045 16.964 15.014Z" fill="white"/>
<path d="M19.73 12C20.1205 11.6095 20.1227 10.9723 19.6998 10.6173C15.3241 6.94431 8.67678 6.94431 4.30114 10.6173C3.87821 10.9723 3.88044 11.6095 4.27089 12C4.6614 12.3905 5.29163 12.3857 5.72083 12.0382C9.32116 9.123 14.6798 9.123 18.2801 12.0382C18.7093 12.3857 19.3395 12.3905 19.73 12Z" fill="white"/>
<path d="M12 20C13.1046 20 14 19.1046 14 18C14 16.8954 13.1046 16 12 16C10.8954 16 10 16.8954 10 18C10 19.1046 10.8954 20 12 20Z" fill="#BDBDBD"/>
</svg>
