<svg width="24" height="24" viewBox="0 0 24 24" fill="none" xmlns="http://www.w3.org/2000/svg">
<path d="M12.3676 16.0375L16.0383 12.3668M7.96275 11.6326L11.6335 7.96191" stroke="#BDBDBD" stroke-width="1.5" stroke-linecap="round"/>
<path d="M3.92467 18.6073L4.455 18.077L3.92467 18.6073ZM5.39295 20.0756L4.86262 20.6059L5.39295 20.0756ZM9.06367 20.0756L8.53334 20.6059L9.06367 20.0756ZM9.79781 20.8097L10.3281 20.2794L9.79781 20.8097ZM14.6057 19.3774L13.8813 19.1833L13.8813 19.1833L14.6057 19.3774ZM13.4685 17.139L12.9382 17.6693H12.9382L13.4685 17.139ZM14.6057 18.5713L13.8813 18.7654V18.7654L14.6057 18.5713ZM12.0362 21.9469L11.8421 21.2225L11.8421 21.2225L12.0362 21.9469ZM11.2301 21.9469L11.4242 21.2225L11.2301 21.9469ZM2.05331 11.964L2.77775 12.1581L2.77775 12.1581L2.05331 11.964ZM3.19053 14.2024L2.66019 14.7328L3.19053 14.2024ZM2.05331 12.7701L1.32886 12.9643L2.05331 12.7701ZM4.62281 9.3945L4.81693 10.1189L4.62281 9.3945ZM6.86124 10.5317L6.33091 11.062V11.062L6.86124 10.5317ZM5.42896 9.3945L5.62307 8.67005H5.62307L5.42896 9.3945ZM19.3777 14.6055L19.1836 13.8811H19.1836L19.3777 14.6055ZM17.1392 13.4683L16.6089 13.9986L17.1392 13.4683ZM18.5715 14.6055L18.7656 13.8811H18.7656L18.5715 14.6055ZM21.9472 12.036L21.2227 11.8419L21.2227 11.8419L21.9472 12.036ZM21.9472 11.2299L21.2227 11.424L21.2227 11.424L21.9472 11.2299ZM11.9642 2.05307L11.7701 1.32862V1.32862L11.9642 2.05307ZM14.2027 3.19028L13.6723 3.72061L14.2027 3.19028ZM12.7704 2.05307L12.5763 2.77751L12.5763 2.77751L12.7704 2.05307ZM9.39474 4.62257L8.6703 4.42845V4.42845L9.39474 4.62257ZM10.532 6.861L10.0016 7.39133L10.532 6.861ZM9.39474 5.42871L10.1192 5.2346V5.2346L9.39474 5.42871ZM7.0245 16.9757C7.31739 17.2686 7.31739 17.7435 7.0245 18.0364C6.73161 18.3293 6.25673 18.3293 5.96384 18.0364L7.0245 16.9757ZM18.0366 5.9636C18.3295 6.25649 18.3295 6.73136 18.0366 7.02426C17.7438 7.31715 17.2689 7.31715 16.976 7.02426L18.0366 5.9636ZM12.3673 16.0378L12.8976 15.5075H12.8976L12.3673 16.0378ZM16.038 12.3671L16.5684 11.8367L16.038 12.3671ZM7.96246 11.6329L8.49279 11.1026V11.1026L7.96246 11.6329ZM11.6332 7.96221L12.1635 7.43188L11.6332 7.96221ZM4.455 18.077L5.92328 19.5452L4.86262 20.6059L3.39434 19.1376L4.455 18.077ZM19.5455 5.92304L18.0772 4.45475L19.1379 3.39409L20.6061 4.86238L19.5455 5.92304ZM19.5455 7.79895C19.9066 7.43788 20.1229 7.2193 20.2582 7.04192C20.3205 6.96028 20.3463 6.9114 20.3569 6.88584C20.3651 6.86626 20.3641 6.86179 20.3641 6.861H21.8641C21.8641 7.30594 21.6747 7.65828 21.4508 7.95179C21.24 8.22799 20.9372 8.52853 20.6061 8.85961L19.5455 7.79895ZM20.6061 4.86238C20.9372 5.19347 21.24 5.49401 21.4508 5.77021C21.6747 6.06372 21.8641 6.41605 21.8641 6.861H20.3641C20.3641 6.8602 20.3651 6.85573 20.3569 6.83615C20.3463 6.8106 20.3205 6.76171 20.2582 6.68008C20.1229 6.50269 19.9066 6.28411 19.5455 5.92304L20.6061 4.86238ZM5.92328 19.5452C6.28436 19.9063 6.50293 20.1226 6.68032 20.258C6.76196 20.3203 6.81084 20.346 6.8364 20.3567C6.85598 20.3649 6.86045 20.3638 6.86124 20.3638L6.86124 21.8638C6.4163 21.8638 6.06396 21.6745 5.77045 21.4505C5.49425 21.2398 5.19371 20.937 4.86262 20.6059L5.92328 19.5452ZM8.85986 20.6059C8.52877 20.937 8.22823 21.2398 7.95203 21.4505C7.65852 21.6745 7.30618 21.8638 6.86124 21.8638L6.86124 20.3638C6.86204 20.3638 6.8665 20.3649 6.88608 20.3567C6.91164 20.346 6.96053 20.3203 7.04216 20.258C7.21955 20.1226 7.43813 19.9063 7.7992 19.5452L8.85986 20.6059ZM4.455 16.201C4.09393 16.5621 3.8776 16.7807 3.74226 16.9581C3.67997 17.0397 3.6542 17.0886 3.64354 17.1142C3.63538 17.1337 3.63643 17.1382 3.63643 17.139L2.13643 17.139C2.13643 16.6941 2.32578 16.3417 2.54973 16.0482C2.76046 15.772 3.06325 15.4715 3.39434 15.1404L4.455 16.201ZM3.39434 19.1376C3.06325 18.8065 2.76046 18.506 2.54973 18.2298C2.32579 17.9363 2.13643 17.5839 2.13643 17.139L3.63643 17.139C3.63643 17.1398 3.63538 17.1443 3.64354 17.1638C3.6542 17.1894 3.67997 17.2383 3.74226 17.3199C3.8776 17.4973 4.09393 17.7159 4.455 18.077L3.39434 19.1376ZM15.1406 3.39409C15.4717 3.06301 15.7723 2.76022 16.0485 2.54948C16.342 2.32554 16.6943 2.13619 17.1392 2.13619V3.63619C17.1384 3.63619 17.134 3.63513 17.1144 3.6433C17.0888 3.65396 17.04 3.67973 16.9583 3.74201C16.7809 3.87736 16.5624 4.09368 16.2013 4.45475L15.1406 3.39409ZM18.0772 4.45475C17.7161 4.09368 17.4976 3.87736 17.3202 3.74201C17.2385 3.67973 17.1896 3.65396 17.1641 3.6433C17.1445 3.63513 17.14 3.63619 17.1392 3.63619V2.13619C17.5842 2.13619 17.9365 2.32554 18.23 2.54948C18.5062 2.76022 18.8068 3.06301 19.1379 3.39409L18.0772 4.45475ZM9.594 19.5452L10.3281 20.2794L9.26748 21.34L8.53334 20.6059L9.594 19.5452ZM12.9382 20.2794C13.291 19.9266 13.5197 19.6969 13.6779 19.5071C13.8295 19.3253 13.8671 19.2363 13.8813 19.1833L15.3302 19.5715C15.2364 19.9216 15.0485 20.2057 14.83 20.4677C14.6181 20.7218 14.3322 21.0067 13.9989 21.34L12.9382 20.2794ZM13.9989 16.6087C14.3322 16.942 14.6181 17.2269 14.83 17.481C15.0485 17.743 15.2364 18.0271 15.3302 18.3772L13.8813 18.7654C13.8671 18.7124 13.8295 18.6234 13.6779 18.4416C13.5197 18.2518 13.291 18.0222 12.9382 17.6693L13.9989 16.6087ZM13.8813 19.1833C13.918 19.0464 13.918 18.9023 13.8813 18.7654L15.3302 18.3772C15.435 18.7684 15.435 19.1803 15.3302 19.5716L13.8813 19.1833ZM13.9989 21.34C13.6656 21.6734 13.3806 21.9593 13.1265 22.1712C12.8645 22.3896 12.5804 22.5776 12.2304 22.6714L11.8421 21.2225C11.8951 21.2083 11.9841 21.1707 12.1659 21.0191C12.3557 20.8609 12.5854 20.6322 12.9382 20.2794L13.9989 21.34ZM10.3281 20.2794C10.681 20.6322 10.9107 20.8609 11.1004 21.0191C11.2822 21.1707 11.3712 21.2083 11.4242 21.2225L11.036 22.6714C10.6859 22.5776 10.4018 22.3896 10.1398 22.1712C9.88573 21.9593 9.60079 21.6734 9.26748 21.34L10.3281 20.2794ZM12.2304 22.6714C11.8391 22.7762 11.4272 22.7762 11.036 22.6714L11.4242 21.2225C11.5611 21.2592 11.7052 21.2592 11.8421 21.2225L12.2304 22.6714ZM3.72086 11.062C3.36802 11.4149 3.13937 11.6445 2.98115 11.8343C2.82956 12.0161 2.79195 12.1051 2.77775 12.1581L1.32886 11.7699C1.42267 11.4198 1.6106 11.1357 1.82908 10.8737C2.04094 10.6196 2.32688 10.3347 2.66019 10.0014L3.72086 11.062ZM2.66019 14.7328C2.32688 14.3994 2.04094 14.1145 1.82908 13.8604C1.6106 13.5984 1.42267 13.3143 1.32886 12.9643L2.77775 12.576C2.79195 12.629 2.82956 12.718 2.98115 12.8998C3.13937 13.0896 3.36802 13.3193 3.72086 13.6721L2.66019 14.7328ZM2.77775 12.1581C2.74107 12.295 2.74107 12.4391 2.77775 12.576L1.32886 12.9643C1.22404 12.573 1.22404 12.1611 1.32887 11.7699L2.77775 12.1581ZM2.66019 10.0014C2.99351 9.66807 3.27844 9.38212 3.53252 9.17027C3.79456 8.95178 4.07862 8.76386 4.4287 8.67005L4.81693 10.1189C4.76393 10.1331 4.67492 10.1708 4.49311 10.3223C4.30336 10.4806 4.07369 10.7092 3.72086 11.062L2.66019 10.0014ZM6.33091 11.062C5.97808 10.7092 5.74841 10.4806 5.55865 10.3223C5.37685 10.1708 5.28784 10.1331 5.23484 10.1189L5.62307 8.67005C5.97314 8.76386 6.25721 8.95178 6.51924 9.17027C6.77333 9.38212 7.05826 9.66807 7.39157 10.0014L6.33091 11.062ZM4.4287 8.67005C4.81992 8.56522 5.23185 8.56523 5.62307 8.67005L5.23484 10.1189C5.09795 10.0823 4.95382 10.0823 4.81693 10.1189L4.4287 8.67005ZM20.6061 8.5331L21.3403 9.26724L20.2796 10.3279L19.5455 9.59376L20.6061 8.5331ZM21.3403 13.9986C21.007 14.3319 20.722 14.6179 20.468 14.8297C20.2059 15.0482 19.9219 15.2361 19.5718 15.3299L19.1836 13.8811C19.2366 13.8669 19.3256 13.8292 19.5074 13.6777C19.6971 13.5194 19.9268 13.2908 20.2796 12.938L21.3403 13.9986ZM17.6696 12.938C18.0224 13.2908 18.2521 13.5194 18.4418 13.6777C18.6236 13.8292 18.7126 13.8669 18.7656 13.8811L18.3774 15.3299C18.0273 15.2361 17.7433 15.0482 17.4812 14.8297C17.2272 14.6179 16.9422 14.3319 16.6089 13.9986L17.6696 12.938ZM19.5718 15.3299C19.1806 15.4348 18.7686 15.4348 18.3774 15.3299L18.7656 13.8811C18.9025 13.9177 19.0467 13.9177 19.1836 13.8811L19.5718 15.3299ZM20.2796 12.938C20.6325 12.5851 20.8611 12.3555 21.0193 12.1657C21.1709 11.9839 21.2085 11.8949 21.2227 11.8419L22.6716 12.2301C22.5778 12.5802 22.3899 12.8643 22.1714 13.1263C21.9596 13.3804 21.6736 13.6653 21.3403 13.9986L20.2796 12.938ZM21.3403 9.26724C21.6736 9.60055 21.9596 9.88548 22.1714 10.1396C22.3899 10.4016 22.5778 10.6857 22.6716 11.0357L21.2227 11.424C21.2085 11.371 21.1709 11.282 21.0193 11.1002C20.8611 10.9104 20.6325 10.6807 20.2796 10.3279L21.3403 9.26724ZM21.2227 11.8419C21.2594 11.705 21.2594 11.5609 21.2227 11.424L22.6716 11.0357C22.7765 11.427 22.7765 11.8389 22.6716 12.2301L21.2227 11.8419ZM10.0016 2.65995C10.3349 2.32664 10.6199 2.04069 10.874 1.82884C11.136 1.61035 11.4201 1.42242 11.7701 1.32862L12.1584 2.77751C12.1054 2.79171 12.0163 2.82932 11.8345 2.98091C11.6448 3.13912 11.4151 3.36778 11.0623 3.72061L10.0016 2.65995ZM13.6723 3.72061C13.3195 3.36778 13.0898 3.13912 12.9001 2.98091C12.7183 2.82932 12.6293 2.79171 12.5763 2.77751L12.9645 1.32862C13.3146 1.42242 13.5986 1.61035 13.8607 1.82884C14.1148 2.04069 14.3997 2.32664 14.733 2.65995L13.6723 3.72061ZM11.7701 1.32862C12.1614 1.22379 12.5733 1.22379 12.9645 1.32862L12.5763 2.77751C12.4394 2.74083 12.2952 2.74083 12.1584 2.77751L11.7701 1.32862ZM11.0623 3.72061C10.7095 4.07344 10.4808 4.30312 10.3226 4.49287C10.171 4.67467 10.1334 4.76368 10.1192 4.81668L8.6703 4.42845C8.7641 4.07838 8.95203 3.79432 9.17051 3.53228C9.38237 3.27819 9.66832 2.99326 10.0016 2.65995L11.0623 3.72061ZM10.0016 7.39133C9.66832 7.05802 9.38237 6.77308 9.17051 6.519C8.95203 6.25696 8.7641 5.9729 8.6703 5.62283L10.1192 5.2346C10.1334 5.2876 10.171 5.37661 10.3226 5.55841C10.4808 5.74816 10.7095 5.97784 11.0623 6.33067L10.0016 7.39133ZM10.1192 4.81668C10.0825 4.95357 10.0825 5.0977 10.1192 5.2346L8.6703 5.62283C8.56547 5.2316 8.56547 4.81968 8.6703 4.42845L10.1192 4.81668ZM3.72086 13.6721L7.0245 16.9757L5.96384 18.0364L2.66019 14.7328L3.72086 13.6721ZM14.733 2.65995L18.0366 5.9636L16.976 7.02426L13.6723 3.72061L14.733 2.65995ZM12.9382 17.6693L11.837 16.5681L12.8976 15.5075L13.9989 16.6087L12.9382 17.6693ZM16.6089 13.9986L15.5077 12.8974L16.5684 11.8367L17.6696 12.938L16.6089 13.9986ZM11.837 16.5681L7.43213 12.1633L8.49279 11.1026L12.8976 15.5075L11.837 16.5681ZM7.43213 12.1633L6.33091 11.062L7.39157 10.0014L8.49279 11.1026L7.43213 12.1633ZM15.5077 12.8974L11.1028 8.49254L12.1635 7.43188L16.5684 11.8367L15.5077 12.8974ZM11.1028 8.49254L10.0016 7.39133L11.0623 6.33067L12.1635 7.43188L11.1028 8.49254ZM19.5455 9.59376C19.0499 9.09814 19.0499 8.29458 19.5455 7.79895L20.6061 8.85961C20.6963 8.76945 20.6963 8.62326 20.6061 8.5331L19.5455 9.59376ZM8.53334 20.6059C8.62351 20.6961 8.76969 20.6961 8.85986 20.6059L7.7992 19.5452C8.29482 19.0496 9.09838 19.0496 9.594 19.5452L8.53334 20.6059Z" fill="white"/>
</svg>
